<svg width="66" height="81" viewBox="0 0 66 81" fill="none" xmlns="http://www.w3.org/2000/svg">
<path opacity="0.5" d="M20.5136 74.7L33.0001 80.1L44.5947 71.1L28.5407 67.5L20.5136 74.7Z" fill="url(#paint0_linear)"/>
<path d="M62.1163 46.3567L57.8914 2.21787C57.875 2.04859 57.849 1.88037 57.8136 1.71402L58.0184 1.68721L58.3198 0.572277L56.5972 0.0462435C56.4289 -8.19389e-05 56.2529 -0.0117594 56.08 0.0119227C55.9071 0.0356047 55.7408 0.0941503 55.5912 0.183992L4.24441 29.7445C2.88061 30.5525 2.3846 32.3174 2.55241 34.073L6.77731 78.2155C6.87651 79.2537 7.27703 79.9951 7.81569 80.2974V80.3214L9.32041 80.927L10.369 79.654L10.3495 79.5116L60.4243 50.6851C61.5267 50.05 62.2841 48.1123 62.1163 46.3567Z" fill="#9FA4D9"/>
<path d="M48.2454 71.3611C48.2247 71.2148 48.1708 71.0752 48.0877 70.953C48.0047 70.8307 47.8946 70.729 47.7661 70.6557L41.5655 67.0862C41.3 66.9334 41.0908 66.6994 40.969 66.4189C40.8471 66.1384 40.8189 65.8262 40.8887 65.5285L44.3496 58.4404L32.5983 59.1745L25.758 72.4871C25.3028 74.3574 25.657 75.7228 27.3091 76.6288L31.4654 79.063L33.4365 80.2242C33.7627 80.4165 34.1345 80.5187 34.5136 80.5202C34.8926 80.5216 35.2652 80.4223 35.5929 80.2325L48.7015 72.6304C48.8453 72.547 48.9646 72.4275 49.0475 72.2838C49.1305 72.14 49.1742 71.9771 49.1744 71.8113V70.933L48.2454 71.3611Z" fill="#DADAE5"/>
<path d="M48.5922 71.7829L35.6514 79.2334C35.3321 79.4173 34.9698 79.5142 34.601 79.5142C34.2322 79.5142 33.8699 79.4173 33.5506 79.2334L27.681 75.8544C27.1973 75.5765 26.8164 75.1507 26.5946 74.6399C26.3728 74.1292 26.322 73.5607 26.4498 73.0189L33.6257 59.4807L45.1758 57.873L41.7148 64.9602C41.6451 65.2579 41.6732 65.57 41.7951 65.8506C41.917 66.1311 42.1261 66.3651 42.3916 66.5179L48.5922 70.0874C48.7414 70.1733 48.8653 70.2969 48.9515 70.4457C49.0376 70.5945 49.0829 70.7633 49.0829 70.9352C49.0829 71.107 49.0376 71.2758 48.9515 71.4246C48.8653 71.5734 48.7414 71.697 48.5922 71.7829Z" fill="#AEAED6"/>
<path d="M61.7463 51.2773L10.4013 80.8379C9.46212 81.1411 8.26891 80.5605 8.1011 78.804L3.87435 34.6689C3.70654 32.9124 4.18679 31.1031 5.56635 30.3414L56.9132 0.776208C57.7216 0.237231 58.9528 0.464656 59.0817 1.51025C59.129 1.88929 59.1652 2.30901 59.2134 2.80454L63.4383 46.947C63.6061 48.7045 62.8486 50.6422 61.7463 51.2773Z" fill="#232323"/>
<path d="M42.3916 66.5179C42.1261 66.3651 41.917 66.1311 41.7951 65.8506C41.6732 65.57 41.6451 65.2579 41.7148 64.9602L45.1758 57.873L33.6257 59.4807L26.4498 73.0189C26.322 73.5607 26.3728 74.1292 26.5946 74.6399C26.8164 75.1507 27.1973 75.5765 27.681 75.8543L27.9675 76.0189L43.4504 67.1253L42.3916 66.5179Z" fill="#65657B"/>
<path d="M8.12031 79.0275C8.277 80.6611 9.36359 81.4312 10.5484 80.7517L61.5977 51.3622C62.7835 50.6799 63.6179 48.8023 63.4593 47.1687L62.7176 39.4585L7.38232 71.3173L8.12031 79.0275Z" fill="#B2B2DE"/>
<path d="M60.1238 37.7758L9.75877 66.7743L6.40723 33.3041L56.7713 4.30566L60.1238 37.7758Z" fill="#333333"/>
<path d="M40.5156 58.2188C40.5156 58.9055 40.3758 59.5224 40.1545 59.9638C39.9302 60.4111 39.6387 60.65 39.3464 60.65C39.054 60.65 38.7626 60.4111 38.5383 59.9638C38.3169 59.5224 38.1771 58.9055 38.1771 58.2188C38.1771 57.532 38.3169 56.9151 38.5383 56.4737C38.7626 56.0264 39.054 55.7875 39.3464 55.7875C39.6387 55.7875 39.9302 56.0264 40.1545 56.4737C40.3758 56.9151 40.5156 57.532 40.5156 58.2188Z" fill="white" stroke="#65657B" stroke-width="0.2"/>
<defs>
<linearGradient id="paint0_linear" x1="31.2163" y1="72.9" x2="22.2346" y2="80.0207" gradientUnits="userSpaceOnUse">
<stop stop-color="#29296A"/>
<stop offset="1" stop-color="#3D3DA8" stop-opacity="0"/>
</linearGradient>
</defs>
</svg>
