<svg width="24" height="20" viewBox="0 0 24 20" fill="none" xmlns="http://www.w3.org/2000/svg">
<path d="M20.3958 15.9335H3.60415C1.76249 15.9335 0.299988 14.471 0.299988 12.6293V3.58348C0.299988 1.7418 1.76249 0.279297 3.60415 0.279297H20.45C22.2916 0.279297 23.7541 1.7418 23.7541 3.58348V12.6293C23.7541 14.471 22.2375 15.9335 20.3958 15.9335ZM3.60415 1.85014C2.68333 1.85014 1.92499 2.60848 1.92499 3.5293V12.5751C1.92499 13.496 2.68333 14.2543 3.60415 14.2543H20.45C21.3708 14.2543 22.1291 13.496 22.1291 12.5751V3.58348C22.1291 2.66264 21.3708 1.9043 20.45 1.9043H3.60415V1.85014ZM17.6875 19.7251H6.31249C5.87915 19.7251 5.49999 19.346 5.49999 18.9126C5.49999 18.4793 5.87915 18.1001 6.31249 18.1001H17.7416C18.175 18.1001 18.5541 18.4793 18.5541 18.9126C18.5541 19.346 18.175 19.7251 17.6875 19.7251Z" fill="#543E3E"/>
</svg>
