<svg width="12" height="12" viewBox="0 0 12 12" fill="none" xmlns="http://www.w3.org/2000/svg">
<g clip-path="url(#clip0_223_137462)">
<path fill-rule="evenodd" clip-rule="evenodd" d="M2 0C0.895431 0 0 0.895431 0 2V10C0 11.1046 0.895431 12 2 12H10C11.1046 12 12 11.1046 12 10V2C12 0.895431 11.1046 0 10 0H2ZM6.14789 3.94865H5.30282V5.78108H6.14789C6.98415 5.78108 7.4419 5.45676 7.4419 4.81622C7.4419 4.16757 6.98415 3.94865 6.14789 3.94865ZM7.47711 6.54324L9 9H7.54753L6.20951 6.72973H5.30282V9H4V3H6.27113C7.63556 3 8.71831 3.43784 8.71831 4.81622C8.71831 5.71622 8.22535 6.27568 7.47711 6.54324Z" fill="#4880FF"/>
</g>
<defs>
<clipPath id="clip0_223_137462">
<rect width="12" height="12" fill="white"/>
</clipPath>
</defs>
</svg>
