<svg width="24" height="24" viewBox="0 0 24 24" fill="none" xmlns="http://www.w3.org/2000/svg">
<path fill-rule="evenodd" clip-rule="evenodd" d="M23 4H1V9.33333H3V10.6667H1V15.3333V16.6667V20H23V16.6667V15.3333V4ZM5 7.33333H3V6H21V14.6667H3V12.6667H5V7.33333ZM11.6667 7.33333H7V13.3333H11.6667V7.33333ZM9 11.3333V9.33333H9.66667V11.3333H9ZM3 17.3333V18H6V17.3333H3ZM8 17.3333V18H11V17.3333H8ZM13 17.3333V18H16V17.3333H13ZM18 17.3333V18H21V17.3333H18ZM18.3333 7.33333H13.6667V13.3333H18.3333V7.33333ZM15.6667 11.3333V9.33333H16.3333V11.3333H15.6667Z" fill="#999999"/>
</svg>
