<svg width="60" height="60" viewBox="0 0 60 60" fill="none" xmlns="http://www.w3.org/2000/svg">
<circle cx="30" cy="30" r="30" fill="#F0F0F1"/>
<path opacity="0.4" d="M23.79 30.276V31.896H29.118V35.64H22.278V37.278H37.74V35.64H30.846V31.896H36.228V30.276H23.79ZM31.782 25.344L30.882 26.676C32.61 27.45 34.284 28.512 35.922 29.862L36.894 28.404C35.346 27.198 33.654 26.172 31.782 25.344ZM27.822 25.452C26.526 26.604 24.888 27.54 22.908 28.26L23.646 29.808C25.716 28.98 27.462 27.936 28.884 26.676L27.822 25.452ZM30.27 21.096L28.398 21.384C28.65 21.834 28.902 22.338 29.118 22.878H22.242V26.694H23.988V24.462H36.03V26.712H37.776V22.878H30.9C30.684 22.23 30.486 21.636 30.27 21.096Z" fill="black"/>
</svg>
