<svg width="18" height="16" viewBox="0 0 18 16" fill="none" xmlns="http://www.w3.org/2000/svg">
<path d="M3.33523 6.40832C3.07622 7.38573 3.05925 8.41275 3.28585 9.39839C3.51244 10.384 3.97559 11.2978 4.63426 12.0588C5.29292 12.8198 6.12677 13.4045 7.06189 13.761C7.997 14.1176 9.00453 14.235 9.99516 14.1029C10.2217 14.0758 10.4497 14.1401 10.6297 14.282C10.8097 14.4238 10.9274 14.6318 10.9572 14.8608C10.987 15.0899 10.9266 15.3216 10.789 15.5059C10.6514 15.6902 10.4477 15.8121 10.2219 15.8454C8.94848 16.0153 7.65331 15.8644 6.45119 15.4061C5.24906 14.9478 4.17709 14.1964 3.33023 13.2182C2.48338 12.2401 1.88778 11.0655 1.59621 9.79857C1.30464 8.5316 1.3261 7.21136 1.65868 5.95481L0.623128 5.67356C0.584778 5.66334 0.549663 5.64332 0.521151 5.61541C0.492639 5.5875 0.471686 5.55264 0.460302 5.51417C0.448919 5.4757 0.447487 5.43491 0.456143 5.39572C0.4648 5.35653 0.483255 5.32024 0.509738 5.29035L3.3873 2.00442C3.41574 1.97171 3.45262 1.94769 3.4938 1.93504C3.53498 1.92239 3.57883 1.92163 3.62041 1.93283C3.662 1.94403 3.69968 1.96675 3.72922 1.99844C3.75876 2.03013 3.77899 2.06954 3.78763 2.11223L4.65657 6.41652C4.66436 6.45555 4.6622 6.49595 4.65029 6.5339C4.63839 6.57185 4.61713 6.6061 4.58854 6.63342C4.55994 6.66075 4.52494 6.68024 4.48684 6.69006C4.44874 6.69989 4.4088 6.69972 4.37078 6.68957L3.33523 6.40832ZM15.0688 9.59465C15.3278 8.61724 15.3448 7.59022 15.1182 6.60459C14.8916 5.61895 14.4284 4.70515 13.7698 3.94416C13.1111 3.18317 12.2773 2.5985 11.3421 2.24195C10.407 1.8854 9.39949 1.76799 8.40886 1.90012C8.29511 1.9169 8.1792 1.91062 8.06786 1.88165C7.95653 1.85269 7.85199 1.8016 7.76031 1.73137C7.66863 1.66114 7.59164 1.57316 7.53381 1.47254C7.47598 1.37192 7.43847 1.26067 7.42344 1.14524C7.40842 1.02982 7.41619 0.91252 7.4463 0.800161C7.47642 0.687802 7.52827 0.582622 7.59885 0.490729C7.66943 0.398836 7.75733 0.322062 7.85745 0.264864C7.95758 0.207667 8.06792 0.171186 8.18208 0.157541C9.45554 -0.0122922 10.7507 0.138608 11.9528 0.596873C13.155 1.05514 14.2269 1.80662 15.0738 2.78474C15.9206 3.76287 16.5162 4.93744 16.8078 6.2044C17.0994 7.47137 17.0779 8.79161 16.7453 10.0482L17.7809 10.3294C17.8192 10.3396 17.8544 10.3596 17.8829 10.3876C17.9114 10.4155 17.9323 10.4503 17.9437 10.4888C17.9551 10.5273 17.9565 10.5681 17.9479 10.6073C17.9392 10.6464 17.9208 10.6827 17.8943 10.7126L15.0167 13.9986C14.9883 14.0313 14.9514 14.0553 14.9102 14.0679C14.869 14.0806 14.8252 14.0813 14.7836 14.0701C14.742 14.0589 14.7043 14.0362 14.6748 14.0045C14.6453 13.9728 14.625 13.9334 14.6164 13.8907L13.7474 9.58645C13.7397 9.54742 13.7418 9.50702 13.7537 9.46907C13.7656 9.43112 13.7869 9.39687 13.8155 9.36955C13.8441 9.34223 13.8791 9.32273 13.9172 9.31291C13.9553 9.30309 13.9952 9.30326 14.0332 9.3134L15.0688 9.59465Z" fill="#303133"/>
</svg>
