<svg width="24" height="24" viewBox="0 0 24 24" fill="none" xmlns="http://www.w3.org/2000/svg">
<path fill-rule="evenodd" clip-rule="evenodd" d="M22.3333 4.33341L22.3333 5.33341V18.6667L22.3333 19.6667L22.3333 21.3334H20.3333V19.6667H18.3333V21.3334H16.3333V19.6667H14.3333V21.3334H12.3333V19.6667H10.3333V21.3334H8.33332V19.6667H6.33332V21.3334H4.33332V19.6667H1.66666V13.0001H2.99999V11.0001H1.66666V4.33341H4.33332V2.66675H6.33332V4.33341H8.33332V2.66675H10.3333V4.33341H12.3333V2.66675H14.3333V4.33341H16.3333V2.66675H18.3333V4.33341H20.3333V2.66675H22.3333L22.3333 4.33341ZM4.99999 15.0001V9.00008H3.66666V6.33341H20.3333V17.6667H3.66666V15.0001H4.99999ZM18.3333 8.33341H7.33332V15.6667H18.3333V8.33341ZM9.33332 13.6667V10.3334H16.3333V13.6667H9.33332Z" fill="#999999"/>
</svg>
