<svg width="44" height="44" viewBox="0 0 44 44" fill="none" xmlns="http://www.w3.org/2000/svg">
<circle cx="22" cy="22" r="21.5" stroke="#8291A9"/>
<g clip-path="url(#clip0)">
<path d="M19.7463 26.4905L27 22.0649L19.7463 17.6386V26.4905ZM22.0649 11C15.9801 11 11 15.9794 11 22.0649C11 28.1498 15.9801 33.1299 22.0649 33.1299C28.1505 33.1299 33.1298 28.1498 33.1298 22.0649C33.1298 15.9794 28.1505 11 22.0649 11ZM22.0649 30.9167C17.1969 30.9167 13.2132 26.9329 13.2132 22.0649C13.2132 17.1962 17.1969 13.2124 22.0649 13.2124C26.9336 13.2124 30.9174 17.1962 30.9174 22.0649C30.9174 26.9329 26.9336 30.9167 22.0649 30.9167Z" fill="#8291A9"/>
</g>
<defs>
<clipPath id="clip0">
<rect width="22" height="22" fill="white" transform="translate(11 11)"/>
</clipPath>
</defs>
</svg>
