<svg width="44" height="44" viewBox="0 0 44 44" fill="none" xmlns="http://www.w3.org/2000/svg">
<circle cx="22" cy="22" r="21.5" stroke="#8291A9"/>
<path d="M14.5 13.5C14.5 12.9477 14.9477 12.5 15.5 12.5H24.7325C24.9796 12.5 25.2179 12.5914 25.4015 12.7567L29.169 16.1474C29.3797 16.3371 29.5 16.6072 29.5 16.8907V30.5C29.5 31.0523 29.0523 31.5 28.5 31.5H15.5C14.9477 31.5 14.5 31.0523 14.5 30.5V13.5Z" stroke="#8291A9" stroke-width="2"/>
<path d="M24.5 12.5V15C24.5 16.1046 25.3954 17 26.5 17H29.5" stroke="#8291A9" stroke-width="2"/>
<path d="M18 18H21" stroke="#8291A9" stroke-width="2"/>
<path d="M18 22H26" stroke="#8291A9" stroke-width="2"/>
<path d="M18 26H26" stroke="#8291A9" stroke-width="2"/>
</svg>
