<svg width="110" height="28" viewBox="0 0 110 28" fill="none" xmlns="http://www.w3.org/2000/svg">
<path d="M42.672 12.072H40.89V8.4H47.064C46.992 8.136 46.92 7.884 46.848 7.644C46.776 7.392 46.71 7.164 46.65 6.96L48.648 6.654L49.224 8.4H54.912V12.072H53.148V10.092H42.672V12.072ZM52.626 14.916C52.314 15.732 51.966 16.47 51.582 17.13C51.21 17.778 50.766 18.372 50.25 18.912C51.078 19.272 51.918 19.65 52.77 20.046C53.622 20.442 54.48 20.85 55.344 21.27L54.462 23.106C53.574 22.65 52.626 22.182 51.618 21.702C50.622 21.222 49.608 20.748 48.576 20.28C47.664 20.88 46.548 21.408 45.228 21.864C43.908 22.32 42.3 22.752 40.404 23.16L39.864 21.252C41.376 21 42.678 20.724 43.77 20.424C44.862 20.112 45.804 19.764 46.596 19.38C45.768 19.02 44.982 18.684 44.238 18.372C43.494 18.048 42.804 17.766 42.168 17.526C42.432 17.142 42.696 16.728 42.96 16.284C43.224 15.84 43.488 15.384 43.752 14.916H40.116V13.206H44.634C44.874 12.702 45.096 12.216 45.3 11.748C45.516 11.28 45.708 10.836 45.876 10.416L47.73 11.046C47.598 11.382 47.448 11.73 47.28 12.09C47.112 12.45 46.944 12.822 46.776 13.206H55.614V14.916H52.626ZM48.486 18.138C48.966 17.718 49.368 17.244 49.692 16.716C50.028 16.188 50.322 15.588 50.574 14.916H45.948C45.6 15.612 45.264 16.212 44.94 16.716C45.468 16.92 46.026 17.142 46.614 17.382C47.214 17.61 47.838 17.862 48.486 18.138ZM72.8828 23.088C72.1268 22.704 71.4308 22.314 70.7948 21.918C70.1588 21.534 69.5768 21.114 69.0488 20.658C68.1128 21.474 66.8948 22.26 65.3948 23.016L64.6748 21.702C64.5428 22.026 64.3148 22.248 63.9908 22.368C63.6788 22.5 63.2648 22.596 62.7488 22.656L61.7948 22.764L61.2728 21.09L62.5508 20.964C62.8508 20.94 63.0548 20.88 63.1628 20.784C63.2828 20.676 63.3428 20.478 63.3428 20.19V15.528H60.6608C60.6488 16.536 60.6068 17.388 60.5348 18.084C60.4748 18.768 60.3788 19.374 60.2468 19.902C60.1268 20.418 59.9708 20.892 59.7788 21.324C59.5988 21.768 59.3768 22.242 59.1128 22.746L57.4568 22.134C57.7208 21.63 57.9488 21.168 58.1408 20.748C58.3448 20.316 58.5128 19.86 58.6448 19.38C58.7768 18.9 58.8788 18.354 58.9508 17.742C59.0348 17.13 59.0888 16.392 59.1128 15.528H57.7808V13.962H59.1308V8.13H60.7328C60.8408 7.794 60.9368 7.458 61.0208 7.122C61.1168 6.774 61.1828 6.492 61.2188 6.276L62.8208 6.708C62.7608 6.9 62.6948 7.122 62.6228 7.374C62.5508 7.626 62.4728 7.878 62.3888 8.13H64.8368V20.73C64.8368 20.958 64.8188 21.162 64.7828 21.342C65.4188 21.03 65.9828 20.718 66.4748 20.406C66.9788 20.094 67.4348 19.776 67.8428 19.452C67.4108 18.936 67.0328 18.378 66.7088 17.778C66.3848 17.178 66.1148 16.512 65.8988 15.78L67.1588 15.258H65.3408V13.728H72.4148V15.384C72.1988 16.14 71.9168 16.854 71.5688 17.526C71.2328 18.186 70.8008 18.822 70.2728 19.434C71.1488 20.106 72.2888 20.736 73.6928 21.324L72.8828 23.088ZM67.9688 9.912C67.9688 10.296 67.9388 10.65 67.8788 10.974C67.8188 11.286 67.7168 11.592 67.5728 11.892C67.4408 12.18 67.2608 12.468 67.0328 12.756C66.8168 13.032 66.5468 13.326 66.2227 13.638L65.0168 12.522C65.3048 12.27 65.5388 12.036 65.7188 11.82C65.9108 11.592 66.0608 11.358 66.1688 11.118C66.2768 10.878 66.3548 10.62 66.4028 10.344C66.4508 10.056 66.4748 9.72 66.4748 9.336V7.446H71.5868V10.56C71.5868 10.836 71.6228 11.016 71.6948 11.1C71.7788 11.184 71.9408 11.226 72.1808 11.226H73.3328L73.2248 12.864H71.5328C71.2688 12.864 71.0408 12.846 70.8488 12.81C70.6568 12.762 70.4948 12.684 70.3628 12.576C70.2428 12.468 70.1528 12.318 70.0928 12.126C70.0328 11.934 70.0028 11.688 70.0028 11.388V8.94H67.9688V9.912ZM63.3428 13.962V9.678H60.6788V13.962H63.3428ZM61.8308 10.272C62.0828 10.656 62.3108 11.034 62.5148 11.406C62.7188 11.766 62.9168 12.168 63.1088 12.612L62.0828 13.53C61.6508 12.606 61.2068 11.736 60.7508 10.92L61.8308 10.272ZM67.4468 15.258C67.6268 15.87 67.8428 16.428 68.0948 16.932C68.3588 17.424 68.6768 17.88 69.0488 18.3C69.4688 17.82 69.8168 17.328 70.0928 16.824C70.3688 16.32 70.5908 15.798 70.7588 15.258H67.4468ZM61.9928 19.308C61.7888 18.84 61.5848 18.39 61.3808 17.958C61.1768 17.514 60.9728 17.082 60.7688 16.662L61.8128 15.996C62.0528 16.392 62.2748 16.776 62.4788 17.148C62.6828 17.52 62.8748 17.934 63.0548 18.39L61.9928 19.308ZM90.1515 14.718C90.1395 14.79 90.1215 14.964 90.0975 15.24C90.0855 15.516 90.0615 15.846 90.0255 16.23C89.9895 16.602 89.9535 17.004 89.9175 17.436C89.8815 17.856 89.8455 18.252 89.8095 18.624C89.7735 18.996 89.7435 19.32 89.7195 19.596C89.6955 19.86 89.6775 20.022 89.6655 20.082C89.6055 20.514 89.5095 20.862 89.3775 21.126C89.2575 21.402 89.0835 21.618 88.8555 21.774C88.6275 21.942 88.3335 22.062 87.9735 22.134C87.6255 22.206 87.1995 22.26 86.6955 22.296L85.4715 22.386L84.9135 20.766L86.0115 20.694C86.3715 20.658 86.6655 20.622 86.8935 20.586C87.1335 20.55 87.3195 20.49 87.4515 20.406C87.5955 20.322 87.6975 20.202 87.7575 20.046C87.8295 19.89 87.8895 19.68 87.9375 19.416C87.9615 19.26 87.9915 19.026 88.0275 18.714C88.0755 18.402 88.1175 18.084 88.1535 17.76C88.2015 17.424 88.2375 17.118 88.2615 16.842C88.2975 16.554 88.3215 16.356 88.3335 16.248H86.5335C86.3175 16.992 86.0415 17.682 85.7055 18.318C85.3815 18.942 84.9855 19.536 84.5175 20.1C84.0495 20.652 83.4975 21.174 82.8615 21.666C82.2255 22.17 81.4935 22.662 80.6655 23.142L79.5495 21.756C80.3055 21.348 80.9595 20.946 81.5115 20.55C82.0755 20.154 82.5615 19.74 82.9695 19.308C83.3775 18.876 83.7195 18.414 83.9955 17.922C84.2835 17.418 84.5355 16.86 84.7515 16.248H82.8975C82.5615 16.86 82.1775 17.43 81.7455 17.958C81.3255 18.474 80.8395 18.966 80.2875 19.434C79.7355 19.89 79.1055 20.328 78.3975 20.748C77.7015 21.168 76.9155 21.582 76.0395 21.99L75.1215 20.55C76.6575 19.902 77.8935 19.23 78.8295 18.534C79.7775 17.838 80.5035 17.076 81.0075 16.248H78.9735C78.6135 16.632 78.2235 17.004 77.8035 17.364C77.3955 17.724 76.9455 18.09 76.4535 18.462L75.4095 17.112C76.1775 16.62 76.8555 16.08 77.4435 15.492C78.0435 14.892 78.5595 14.256 78.9915 13.584H77.7675V7.14H89.0175V13.584H80.0355L80.7735 13.926C80.6775 14.058 80.5875 14.19 80.5035 14.322C80.4315 14.454 80.3475 14.586 80.2515 14.718H90.1515ZM79.5315 8.598V9.714H87.2535V8.598H79.5315ZM87.2535 12.09V11.082H79.5315V12.09H87.2535ZM108.68 7.986V9.57H103.496V11.19H107.564V18.678H105.836V12.828H100.13V18.678H98.3843V11.19H101.714V6.366L103.496 6.438V7.986H108.68ZM98.0603 6.852C97.8563 7.5 97.6403 8.124 97.4123 8.724C97.1963 9.312 96.9623 9.894 96.7103 10.47V22.638H94.9643V13.746C94.7603 14.094 94.5443 14.436 94.3163 14.772C94.0883 15.096 93.8543 15.432 93.6143 15.78L92.4803 14.16C92.8163 13.692 93.1643 13.164 93.5243 12.576C93.8843 11.988 94.2323 11.364 94.5683 10.704C94.9043 10.032 95.2223 9.33 95.5223 8.598C95.8223 7.866 96.0803 7.128 96.2963 6.384L98.0603 6.852ZM103.802 16.212C103.802 16.968 103.712 17.658 103.532 18.282C103.352 18.906 103.034 19.488 102.578 20.028C102.134 20.556 101.522 21.054 100.742 21.522C99.9623 22.002 98.9723 22.464 97.7723 22.908L96.9443 21.252C98.0723 20.844 98.9723 20.46 99.6443 20.1C100.328 19.74 100.85 19.362 101.21 18.966C101.57 18.558 101.804 18.108 101.912 17.616C102.032 17.124 102.092 16.548 102.092 15.888V13.566L103.802 13.638V16.212ZM104.144 18.228C104.864 18.636 105.62 19.098 106.412 19.614C107.204 20.118 107.96 20.652 108.68 21.216L107.834 22.926C107.522 22.65 107.18 22.362 106.808 22.062C106.436 21.774 106.052 21.486 105.656 21.198C105.26 20.922 104.864 20.658 104.468 20.406C104.072 20.142 103.688 19.908 103.316 19.704L104.144 18.228Z" fill="#697585"/>
<path fill-rule="evenodd" clip-rule="evenodd" d="M16.3209 11.3846L26.0567 21.1203C23.6194 25.2385 19.1322 28 14 28C8.86783 28 4.38064 25.2385 1.94333 21.1203L11.6791 11.3846C12.9609 10.1028 15.0391 10.1028 16.3209 11.3846ZM14 0C21.732 0 28 6.26801 28 14C28 14.8983 27.9154 15.7768 27.7537 16.628L19.4155 8.29007C16.4246 5.29916 11.5754 5.29916 8.58449 8.29007L0.246267 16.628C0.0846 15.7768 0 14.8983 0 14C0 6.26801 6.26801 0 14 0Z" fill="url(#paint0_linear_3422_11578)"/>
<defs>
<linearGradient id="paint0_linear_3422_11578" x1="28" y1="14" x2="14" y2="28" gradientUnits="userSpaceOnUse">
<stop stop-color="#4A98F9"/>
<stop offset="1" stop-color="#245FF0"/>
</linearGradient>
</defs>
</svg>
