<svg width="20" height="20" viewBox="0 0 20 20" fill="none" xmlns="http://www.w3.org/2000/svg">
<path opacity="0.7" d="M4.44407 15.5554H15.5552C16.3222 15.5554 16.9441 14.9336 16.9441 14.1666V7.22211C16.9441 6.45505 16.3222 5.83322 15.5552 5.83322H10.4433C10.1714 5.83322 9.92281 5.6796 9.80121 5.4364C9.49721 4.8284 8.87578 4.44434 8.19602 4.44434H4.44406C3.677 4.44434 3.05518 5.06616 3.05518 5.83322V14.1666C3.05518 14.9336 3.677 15.5554 4.44407 15.5554Z" fill="#787885"/>
<g opacity="0.7">
<path d="M4.44407 15.5559H15.5552C16.3222 15.5559 16.9441 14.9341 16.9441 14.167V7.91699H3.05518V14.167C3.05518 14.9341 3.677 15.5559 4.44407 15.5559Z" fill="white"/>
<path d="M4.44407 15.5559H15.5552C16.3222 15.5559 16.9441 14.9341 16.9441 14.167V7.91699H3.05518V14.167C3.05518 14.9341 3.677 15.5559 4.44407 15.5559Z" fill="#C4C4C4"/>
</g>
</svg>
