<svg width="40" height="30" viewBox="0 0 40 30" fill="none" xmlns="http://www.w3.org/2000/svg">
<rect width="40" height="30" rx="6" fill="#D6D6DF"/>
<path d="M25.1041 12.8896C25.1041 12.8896 24.6516 18.5021 24.3891 20.8663C24.2641 21.9955 23.5666 22.6571 22.4241 22.678C20.2499 22.7171 18.0733 22.7196 15.8999 22.6738C14.8008 22.6513 14.1149 21.9813 13.9924 20.8721C13.7283 18.4871 13.2783 12.8896 13.2783 12.8896" stroke="white" stroke-width="1.5" stroke-linecap="round" stroke-linejoin="round"/>
<path d="M26.2569 10.1999H12.1252" stroke="white" stroke-width="1.5" stroke-linecap="round" stroke-linejoin="round"/>
<path d="M22.0001 15.5H16.0001" stroke="white" stroke-width="1.5" stroke-linecap="round" stroke-linejoin="round"/>
<path d="M21.0001 18.5H17.0001" stroke="white" stroke-width="1.5" stroke-linecap="round" stroke-linejoin="round"/>
<path d="M23.5339 10.1995C22.8797 10.1995 22.3164 9.73699 22.188 9.09616L21.9855 8.08283C21.8605 7.61533 21.4372 7.29199 20.9547 7.29199H17.4272C16.9447 7.29199 16.5214 7.61533 16.3964 8.08283L16.1939 9.09616C16.0655 9.73699 15.5022 10.1995 14.848 10.1995" stroke="white" stroke-width="1.5" stroke-linecap="round" stroke-linejoin="round"/>
</svg>
