<svg width="20" height="20" viewBox="0 0 20 20" fill="none" xmlns="http://www.w3.org/2000/svg">
<path d="M16.104 7.88965C16.104 7.88965 15.6515 13.5021 15.389 15.8663C15.264 16.9955 14.5665 17.6571 13.424 17.678C11.2499 17.7171 9.0732 17.7196 6.89986 17.6738C5.8007 17.6513 5.11486 16.9813 4.99236 15.8721C4.7282 13.4871 4.2782 7.88965 4.2782 7.88965" stroke="#A1A1A1" stroke-width="1.5" stroke-linecap="round" stroke-linejoin="round"/>
<path d="M17.2568 5.19987H3.12512" stroke="#A1A1A1" stroke-width="1.5" stroke-linecap="round" stroke-linejoin="round"/>
<path d="M13 10.5H7" stroke="#A1A1A1" stroke-width="1.5" stroke-linecap="round" stroke-linejoin="round"/>
<path d="M12 13.5H8" stroke="#A1A1A1" stroke-width="1.5" stroke-linecap="round" stroke-linejoin="round"/>
<path d="M14.5337 5.19949C13.8796 5.19949 13.3162 4.73699 13.1879 4.09616L12.9854 3.08283C12.8604 2.61533 12.4371 2.29199 11.9546 2.29199H8.42707C7.94457 2.29199 7.52123 2.61533 7.39623 3.08283L7.19373 4.09616C7.0654 4.73699 6.50207 5.19949 5.8479 5.19949" stroke="#A1A1A1" stroke-width="1.5" stroke-linecap="round" stroke-linejoin="round"/>
</svg>
