<svg width="20" height="21" viewBox="0 0 20 21" fill="none" xmlns="http://www.w3.org/2000/svg">
<g filter="url(#filter0_d)">
<path d="M4.78822 12.3334L2.8954 10.8216C2.3682 10.4006 2.3682 9.59944 2.8954 9.17837L4.78822 7.66663C5.36059 7.20948 6.21173 7.6147 6.21173 8.35096V11.649C6.21173 12.3853 5.36059 12.7905 4.78822 12.3334Z" fill="white"/>
<path d="M10.8216 2.8954L12.3334 4.78822C12.7905 5.36059 12.3853 6.21174 11.649 6.21174H8.35096C7.6147 6.21174 7.20948 5.36059 7.66663 4.78822L9.17837 2.8954C9.59944 2.3682 10.4006 2.3682 10.8216 2.8954Z" fill="white"/>
<path d="M12.7168 10C12.7168 11.5005 11.5005 12.7168 10 12.7168C8.49953 12.7168 7.28316 11.5005 7.28316 10C7.28316 8.49953 8.49953 7.28316 10 7.28316C11.5005 7.28316 12.7168 8.49953 12.7168 10Z" fill="white"/>
<path d="M9.17837 17.1046L7.66663 15.2118C7.20948 14.6394 7.6147 13.7883 8.35096 13.7883H11.649C12.3853 13.7883 12.7905 14.6394 12.3334 15.2118L10.8216 17.1046C10.4006 17.6318 9.59944 17.6318 9.17837 17.1046Z" fill="white"/>
<path d="M17.1046 10.8216L15.2118 12.3334C14.6394 12.7905 13.7883 12.3853 13.7883 11.649V8.35096C13.7883 7.61471 14.6394 7.20948 15.2118 7.66663L17.1046 9.17837C17.6318 9.59944 17.6318 10.4006 17.1046 10.8216Z" fill="white"/>
</g>
<path fill-rule="evenodd" clip-rule="evenodd" d="M9.65683 3.27754C9.83279 3.05722 10.1673 3.05722 10.3433 3.27754L11.855 5.17036C11.9932 5.34332 11.8702 5.59955 11.6491 5.59955H8.35102C8.12988 5.59955 8.00694 5.34332 8.14508 5.17036L9.65683 3.27754ZM12.1047 10.0001C12.1047 11.1624 11.1624 12.1047 10.0001 12.1047C8.83773 12.1047 7.89547 11.1624 7.89547 10.0001C7.89547 8.83773 8.83773 7.89547 10.0001 7.89547C11.1624 7.89547 12.1047 8.83773 12.1047 10.0001ZM3.27754 9.65683C3.05722 9.83279 3.05722 10.1673 3.27754 10.3433L5.17036 11.855C5.34332 11.9932 5.59955 11.8702 5.59955 11.6491V8.35102C5.59955 8.12988 5.34332 8.00694 5.17036 8.14508L3.27754 9.65683ZM9.65683 16.7226L8.14508 14.8298C8.00694 14.6568 8.12988 14.4006 8.35102 14.4006H11.6491C11.8702 14.4006 11.9932 14.6568 11.855 14.8298L10.3433 16.7226C10.1673 16.9429 9.83279 16.9429 9.65683 16.7226ZM14.8298 11.855L16.7226 10.3433C16.9429 10.1673 16.9429 9.83279 16.7226 9.65683L14.8298 8.14508C14.6568 8.00694 14.4006 8.12988 14.4006 8.35102V11.6491C14.4006 11.8702 14.6568 11.9932 14.8298 11.855Z" fill="#343536"/>
<defs>
<filter id="filter0_d" x="0.5" y="1.5" width="19" height="19" filterUnits="userSpaceOnUse" color-interpolation-filters="sRGB">
<feFlood flood-opacity="0" result="BackgroundImageFix"/>
<feColorMatrix in="SourceAlpha" type="matrix" values="0 0 0 0 0 0 0 0 0 0 0 0 0 0 0 0 0 0 127 0"/>
<feOffset dy="1"/>
<feGaussianBlur stdDeviation="1"/>
<feColorMatrix type="matrix" values="0 0 0 0 0 0 0 0 0 0 0 0 0 0 0 0 0 0 0.3 0"/>
<feBlend mode="normal" in2="BackgroundImageFix" result="effect1_dropShadow"/>
<feBlend mode="normal" in="SourceGraphic" in2="effect1_dropShadow" result="shape"/>
</filter>
</defs>
</svg>
