<svg width="72" height="72" viewBox="0 0 72 72" fill="none" xmlns="http://www.w3.org/2000/svg">
<path fill-rule="evenodd" clip-rule="evenodd" d="M33 15C33 13.6193 34.1193 12.5 35.5 12.5H50C55.2467 12.5 59.5 16.7533 59.5 22V50C59.5 55.2467 55.2467 59.5 50 59.5H22C16.7533 59.5 12.5 55.2467 12.5 50V38.5C12.5 37.1193 13.6193 36 15 36C16.3807 36 17.5 37.1193 17.5 38.5V50C17.5 52.4853 19.5147 54.5 22 54.5H50C52.4853 54.5 54.5 52.4853 54.5 50V22C54.5 19.5147 52.4853 17.5 50 17.5H35.5C34.1193 17.5 33 16.3807 33 15ZM42 24.5C43.3807 24.5 44.5 25.6193 44.5 27V41C44.5 42.933 42.933 44.5 41 44.5H27C25.6193 44.5 24.5 43.3807 24.5 42C24.5 40.6193 25.6193 39.5 27 39.5H35.9645L16.2322 19.7678C15.2559 18.7915 15.2559 17.2085 16.2322 16.2322C17.2085 15.2559 18.7915 15.2559 19.7678 16.2322L39.5 35.9645V27C39.5 25.6193 40.6193 24.5 42 24.5Z" fill="#787885"/>
</svg>
