<svg width="16" height="16" viewBox="0 0 16 16" fill="none" xmlns="http://www.w3.org/2000/svg">
<path fill-rule="evenodd" clip-rule="evenodd" d="M9.46676 10.4003C8.6868 10.9862 7.71728 11.3333 6.66667 11.3333C4.08934 11.3333 2 9.244 2 6.66667C2 4.08934 4.08934 2 6.66667 2C9.244 2 11.3333 4.08934 11.3333 6.66667C11.3333 7.71728 10.9862 8.6868 10.4003 9.46676C10.4251 9.48542 10.4488 9.50603 10.4714 9.52859L13.8047 12.8619C14.0651 13.1223 14.0651 13.5444 13.8047 13.8047C13.5444 14.0651 13.1223 14.0651 12.8619 13.8047L9.52859 10.4714C9.50603 10.4488 9.48542 10.4251 9.46676 10.4003ZM10 6.66667C10 8.50762 8.50762 10 6.66667 10C4.82572 10 3.33333 8.50762 3.33333 6.66667C3.33333 4.82572 4.82572 3.33333 6.66667 3.33333C8.50762 3.33333 10 4.82572 10 6.66667Z" fill="#A5A7A9"/>
</svg>
