<svg width="44" height="44" viewBox="0 0 44 44" fill="none" xmlns="http://www.w3.org/2000/svg">
<circle cx="22" cy="22" r="21.5" stroke="#8291A9"/>
<path d="M12.1022 14.3967C12.1022 14.8823 12.4953 15.2776 12.983 15.2776H30.9891C31.4746 15.2776 31.8699 14.8844 31.8699 14.3967C31.8699 13.9112 31.4768 13.5159 30.9891 13.5159H12.983C12.4953 13.518 12.1022 13.9112 12.1022 14.3967Z" fill="#8291A9"/>
<path fill-rule="evenodd" clip-rule="evenodd" d="M21.5338 11.5952H22.6381C23.1237 11.5952 23.519 11.9884 23.519 12.4739V14.3989C23.519 14.8866 23.1237 15.2798 22.6381 15.2798H21.5338C21.0461 15.2798 20.653 14.8845 20.653 14.3989V12.4761C20.653 11.9884 21.0483 11.5952 21.5338 11.5952ZM15.5246 32.2825H28.4432C29.2832 32.2825 29.9643 31.6036 29.9643 30.7614V16.1757H14.0035V30.7614C14.0035 31.6015 14.6846 32.2825 15.5246 32.2825ZM25.401 18.9472C25.401 18.4595 25.7963 18.0664 26.2819 18.0664C26.7674 18.0664 27.1627 18.4595 27.1627 18.9451V28.7892C27.1627 29.2769 26.7674 29.6701 26.2819 29.6701C25.7942 29.6701 25.401 29.2748 25.401 28.7892V18.9472ZM16.8073 18.9472C16.8073 18.4595 17.2026 18.0664 17.6881 18.0664C18.1737 18.0664 18.569 18.4595 18.569 18.9451V28.7892C18.569 29.2769 18.1737 29.6701 17.6881 29.6701C17.2004 29.6701 16.8073 29.2748 16.8073 28.7892V18.9472ZM21.1041 18.9472C21.1041 18.4595 21.4994 18.0664 21.985 18.0664C22.4705 18.0664 22.8658 18.4595 22.8658 18.9451V28.7892C22.8658 29.2769 22.4705 29.6701 21.985 29.6701C21.4973 29.6701 21.1041 29.2748 21.1041 28.7892V18.9472Z" fill="#8291A9"/>
</svg>
