<svg width="17" height="18" viewBox="0 0 17 18" fill="none" xmlns="http://www.w3.org/2000/svg">
<path d="M14.104 6.89014C14.104 6.89014 13.6515 12.5026 13.389 14.8668C13.264 15.996 12.5665 16.6576 11.424 16.6785C9.24986 16.7176 7.0732 16.7201 4.89986 16.6743C3.8007 16.6518 3.11486 15.9818 2.99236 14.8726C2.7282 12.4876 2.2782 6.89014 2.2782 6.89014" stroke="#A1A1A1" stroke-width="1.5" stroke-linecap="round" stroke-linejoin="round"/>
<path d="M15.2568 4.19975H1.12512" stroke="#A1A1A1" stroke-width="1.5" stroke-linecap="round" stroke-linejoin="round"/>
<path d="M11 9.5H5" stroke="#A1A1A1" stroke-width="1.5" stroke-linecap="round" stroke-linejoin="round"/>
<path d="M10 12.5H6" stroke="#A1A1A1" stroke-width="1.5" stroke-linecap="round" stroke-linejoin="round"/>
<path d="M12.5337 4.19974C11.8796 4.19974 11.3162 3.73724 11.1879 3.0964L10.9854 2.08307C10.8604 1.61557 10.4371 1.29224 9.95457 1.29224H6.42707C5.94457 1.29224 5.52123 1.61557 5.39623 2.08307L5.19373 3.0964C5.0654 3.73724 4.50207 4.19974 3.8479 4.19974" stroke="#A1A1A1" stroke-width="1.5" stroke-linecap="round" stroke-linejoin="round"/>
</svg>
