<svg width="16" height="16" viewBox="0 0 16 16" fill="none" xmlns="http://www.w3.org/2000/svg">
<path fill-rule="evenodd" clip-rule="evenodd" d="M2.66671 9.33329C3.40309 9.33329 4.00004 8.73634 4.00004 7.99996C4.00004 7.26358 3.40309 6.66663 2.66671 6.66663C1.93033 6.66663 1.33337 7.26358 1.33337 7.99996C1.33337 8.73634 1.93033 9.33329 2.66671 9.33329ZM9.33337 7.99996C9.33337 8.73634 8.73642 9.33329 8.00004 9.33329C7.26366 9.33329 6.66671 8.73634 6.66671 7.99996C6.66671 7.26358 7.26366 6.66663 8.00004 6.66663C8.73642 6.66663 9.33337 7.26358 9.33337 7.99996ZM14.6667 7.99996C14.6667 8.73634 14.0698 9.33329 13.3334 9.33329C12.597 9.33329 12 8.73634 12 7.99996C12 7.26358 12.597 6.66663 13.3334 6.66663C14.0698 6.66663 14.6667 7.26358 14.6667 7.99996Z" fill="#333333"/>
</svg>
