<svg width="16" height="16" viewBox="0 0 16 16" fill="none" xmlns="http://www.w3.org/2000/svg">
<path fill-rule="evenodd" clip-rule="evenodd" d="M8.00016 2.66671C5.05464 2.66671 2.66683 5.05452 2.66683 8.00004C2.66683 10.9456 5.05464 13.3334 8.00016 13.3334C10.9457 13.3334 13.3335 10.9456 13.3335 8.00004C13.3335 5.05452 10.9457 2.66671 8.00016 2.66671ZM1.3335 8.00004C1.3335 4.31814 4.31826 1.33337 8.00016 1.33337C11.6821 1.33337 14.6668 4.31814 14.6668 8.00004C14.6668 11.6819 11.6821 14.6667 8.00016 14.6667C4.31826 14.6667 1.3335 11.6819 1.3335 8.00004ZM6.66683 7.00004H8.66683V10H9.3335V11.3334H6.66683V10H7.3335V8.33337H6.66683V7.00004ZM8.66683 6.00004V4.66671H7.3335V6.00004H8.66683Z" fill="#333333"/>
</svg>
