<svg width="113" height="24" viewBox="0 0 113 24" fill="none" xmlns="http://www.w3.org/2000/svg">
<g clip-path="url(#clip0_406_13693)">
<path fill-rule="evenodd" clip-rule="evenodd" d="M23.8187 14.0888C23.9518 13.3325 24.0143 12.554 23.9982 11.7553C23.8711 5.33375 18.6011 0.0940532 12.1776 0.00127947C5.4676 -0.0955279 0 5.31359 0 11.9993C0 12.7113 0.0625214 13.4111 0.181514 14.0888C0.207733 14.234 0.383196 14.2925 0.492104 14.1936L7.00442 8.37915C9.85015 5.83796 14.15 5.83796 16.9957 8.37915L23.5081 14.1936C23.617 14.2925 23.7924 14.234 23.8187 14.0888ZM21.6748 18.5903L13.9988 11.7372C12.8613 10.7207 11.1409 10.7207 10.0034 11.7372L2.32539 18.5903C2.19833 18.7033 2.17615 18.8949 2.27497 19.032C4.45717 22.0411 7.99871 23.9994 12.0001 23.9994C16.0015 23.9994 19.543 22.0411 21.7252 19.032C21.824 18.8949 21.7998 18.7033 21.6748 18.5903Z" fill="#4880FF"/>
</g>
<path fill-rule="evenodd" clip-rule="evenodd" d="M50.1567 6.96001H38.9275C38.8513 6.96001 38.8072 6.97609 38.775 6.98786C38.7564 6.99465 38.7417 7.00001 38.727 7.00001V8.04001C38.727 8.08001 38.6869 8.16001 38.6067 8.16001H36.5213C36.4812 8.16001 36.401 8.12001 36.401 8.04001V4.68001C36.401 4.64001 36.4411 4.56001 36.5213 4.56001H42.8577C42.8979 4.56001 42.9781 4.52001 42.9781 4.44001V3.32001C42.9781 3.28001 43.0182 3.20001 43.0984 3.20001H45.8255C45.8656 3.20001 45.9458 3.24001 45.9458 3.32001V4.48001C45.9458 4.52001 45.9859 4.60001 46.0661 4.60001H52.4827C52.5229 4.60001 52.6031 4.64001 52.6031 4.72001V8.12001C52.6031 8.16001 52.563 8.24001 52.4827 8.24001H50.3973C50.3572 8.24001 50.277 8.20001 50.277 8.12001V7.08001C50.277 7.04001 50.2369 6.96001 50.1567 6.96001ZM67.7223 6.04001V6.20001C67.7223 7.45357 67.552 8.5372 67.4625 9.10636C67.4549 9.15469 67.4479 9.19931 67.4416 9.24001C67.4416 9.33374 67.4278 9.40001 67.4164 9.45492C67.4084 9.49374 67.4015 9.52688 67.4015 9.56001C67.3614 9.60001 67.3213 9.64001 67.2812 9.64001H64.9953C64.915 9.64001 64.8348 9.60001 64.8749 9.52001C64.9952 9.08001 65.3161 7.64001 65.3161 6.00001V3.72001C65.3161 3.64001 65.3562 3.60001 65.4364 3.60001H71.6525C71.7327 3.60001 71.7729 3.64001 71.7729 3.72001V6.96001C71.7729 7.16001 71.9734 7.32001 72.1739 7.32001H72.8156C72.8958 7.32001 72.9359 7.36001 72.9359 7.44001V9.56001C72.9359 9.64001 72.8958 9.68001 72.8156 9.68001H70.8104C70.0484 9.68001 69.4067 9.08001 69.4067 8.32001V6.04001C69.4067 5.96001 69.3666 5.92001 69.2864 5.92001H67.8426C67.7624 5.92001 67.7223 5.96001 67.7223 6.04001ZM61.1051 10.12L60.7843 7.68001C60.7843 7.64001 60.7041 7.60001 60.664 7.60001H58.9796C58.8994 7.60001 58.8593 7.68001 58.8593 7.72001L59.1801 10.16C59.1801 10.2 59.2202 10.24 59.3005 10.24H60.9848C61.065 10.24 61.1452 10.2 61.1051 10.12ZM58.9796 14H60.664C60.7041 14 60.7843 14.04 60.7843 14.08L61.1051 16.52C61.1051 16.6 61.065 16.64 60.9848 16.64H59.3005C59.2202 16.64 59.1801 16.6 59.1801 16.56L58.8593 14.12C58.8593 14.04 58.8994 14 58.9796 14ZM60.8244 3.20001H58.0572C58.0406 3.20001 58.024 3.20688 58.0045 3.21492C57.977 3.22629 57.9438 3.24001 57.8968 3.24001L57.4958 4.52001C57.4958 4.56001 57.4557 4.60001 57.4156 4.60001H56.3729C56.2926 4.60001 56.2525 4.64001 56.2525 4.72001V10.72C56.2525 10.8 56.2124 10.84 56.1322 10.84H55.29C55.2098 10.84 55.1697 10.88 55.1697 10.96V13.08C55.1697 13.16 55.2098 13.2 55.29 13.2H56.1322C56.2124 13.2 56.2525 13.24 56.2525 13.32V15.04C56.2525 16.72 55.4505 19.2 55.2499 19.8C55.2098 19.84 55.2499 19.92 55.3301 19.92H57.4958C57.5359 19.92 57.576 19.88 57.576 19.84C57.7364 19.4 58.4984 16.92 58.4984 15.04V13.32C58.4984 13.24 58.5385 13.2 58.6187 13.2H61.5062C61.5864 13.2 61.6265 13.24 61.6265 13.32V17.08C61.6265 17.36 61.3859 17.6 61.1051 17.6H60.5838L60.8645 19.84C60.8645 19.88 60.9046 19.92 60.9848 19.92H62.5489C63.3109 19.92 63.9525 19.32 63.9525 18.56V13.2V10.84V4.68001C63.9525 4.60001 63.9124 4.56001 63.8322 4.56001H60.7041C60.6239 4.56001 60.5838 4.52001 60.5838 4.44001L60.9447 3.32001C60.9447 3.28001 60.9046 3.20001 60.8244 3.20001ZM61.7067 7.04001V10.72C61.7067 10.8 61.6666 10.84 61.5864 10.84H58.6989C58.6187 10.84 58.5786 10.8 58.5786 10.72V7.04001C58.5786 6.96001 58.6187 6.92001 58.6989 6.92001H61.5864C61.5998 6.93335 61.6176 6.94668 61.6354 6.96001C61.6711 6.98668 61.7067 7.01335 61.7067 7.04001ZM47.9109 16.24C49.2744 16.76 51.1994 17.2 52.964 17.48C53.0442 17.48 53.1244 17.56 53.0843 17.56L52.8437 19.76C52.8437 19.84 52.7635 19.92 52.6833 19.88C49.6755 19.4 47.4296 18.76 45.5848 18.08C45.5447 18.04 45.5046 18.04 45.4645 18.08C43.2989 19.36 40.0505 19.92 36.4812 19.96C36.4411 19.96 36.3609 19.92 36.3609 19.84L36.1202 17.76C36.1202 17.68 36.1604 17.6 36.2406 17.6C38.2057 17.6 40.3713 17.28 42.0156 16.64C42.1359 16.6 42.1359 16.48 42.0557 16.4C41.013 15.8 40.0104 15.2 38.8874 14.32C38.8072 14.28 38.8072 14.2 38.8473 14.12C39.169 13.7635 39.5544 13.1529 39.9751 12.4863C40.0264 12.4049 40.0783 12.3227 40.1307 12.24C40.1708 12.16 40.1307 12.04 40.0104 12.04H36.1604C36.1202 12.04 36.04 12 36.04 11.92V9.84001C36.04 9.80001 36.0801 9.72001 36.1604 9.72001H41.3739C41.414 9.72001 41.4541 9.68001 41.4942 9.64001C41.815 9.04001 42.0958 8.44001 42.2161 8.08001C42.2161 8.04001 42.2562 8.00001 42.3364 8.00001H44.9031C44.9833 8.00001 45.0635 8.08001 45.0234 8.16001C44.9031 8.56001 44.7426 9.04001 44.502 9.52001C44.4619 9.60001 44.5421 9.72001 44.6223 9.72001H53.0442C53.0843 9.72001 53.1645 9.76001 53.1645 9.84001V11.92C53.1645 11.96 53.1244 12.04 53.0442 12.04H50.5176C50.4775 12.04 50.4374 12.08 50.3973 12.12C49.7156 13.68 48.8333 14.96 47.8708 16C47.7906 16.08 47.8307 16.2 47.9109 16.24ZM42.3364 13.72C43.0583 14.16 43.8604 14.6 44.7426 15C44.7827 15 44.8229 15 44.863 14.96C45.7854 14.24 46.5473 13.32 47.189 12.24C47.2291 12.16 47.189 12.04 47.0687 12.04H43.339C43.2989 12.04 43.2588 12.08 43.2187 12.12C42.8979 12.68 42.577 13.16 42.2963 13.52C42.2562 13.6 42.2562 13.68 42.3364 13.72ZM73.1364 17.56C72.2942 17.36 71.5322 17.08 70.8505 16.76C70.8104 16.76 70.7703 16.64 70.8505 16.56C71.7729 15.48 72.4947 14.32 72.7755 13.08V13.04V10.84C72.7755 10.76 72.7354 10.72 72.6551 10.72H65.3963C65.3161 10.72 65.276 10.76 65.276 10.84V12.96C65.276 13.04 65.3161 13.08 65.3963 13.08H70.1687C70.2489 13.08 70.3291 13.12 70.289 13.2C70.0484 13.92 69.5671 14.64 68.8854 15.32C68.8452 15.36 68.765 15.36 68.7249 15.32C68.3239 14.96 68.0031 14.6 67.7223 14.16C67.7223 14.16 67.6822 14.12 67.6421 14.12H65.4364C65.3963 14.12 65.3161 14.2 65.3562 14.28C65.7171 15.16 66.2786 15.96 66.9202 16.68C66.9604 16.72 66.9202 16.8 66.8801 16.84C66.2786 17.16 65.5968 17.36 64.9551 17.48C64.915 17.48 64.8749 17.56 64.8749 17.6C64.895 17.8 64.9451 18.23 64.9952 18.66C65.0454 19.09 65.0955 19.52 65.1156 19.72C65.1156 19.76 65.1557 19.84 65.2359 19.8C66.5593 19.56 67.8025 19.08 68.8854 18.4H69.0458C70.1687 19.08 71.4921 19.56 72.9359 19.8C72.976 19.8 73.0161 19.76 73.0562 19.72L73.2166 17.72C73.2166 17.64 73.1765 17.6 73.1364 17.56ZM80.5156 11.16H90.2208C90.301 11.16 90.3411 11.12 90.301 11V3.72001C90.301 3.68001 90.2609 3.60001 90.1807 3.60001H77.0265C76.9864 3.60001 76.9062 3.64001 76.9062 3.72001V11C76.9062 11.04 76.9463 11.12 77.0265 11.12H77.7484C77.3473 11.8 76.5452 12.76 75.0213 13.84C74.9411 13.88 74.9411 13.96 74.9812 14.04L76.1442 15.8C76.1843 15.88 76.2645 15.88 76.3447 15.84C77.0265 15.36 77.6281 14.88 78.1093 14.4H80.1145C80.2348 14.4 80.2749 14.56 80.1947 14.64C79.1921 15.64 77.7484 16.92 75.7432 18.24C75.663 18.28 75.663 18.36 75.7031 18.44L76.826 20.08C76.8661 20.16 76.9463 20.16 77.0265 20.12C80.4755 17.84 82.4807 15.64 83.4432 14.44C83.4833 14.4 83.5234 14.4 83.5635 14.4H85.288C85.4083 14.4 85.4885 14.56 85.4083 14.64C84.6463 15.64 83.363 17.04 81.438 18.64C81.3577 18.68 81.3577 18.8 81.3979 18.84L82.6411 20.48C82.6812 20.56 82.7614 20.56 82.8416 20.52C85.7291 18.36 87.4937 15.88 88.3359 14.48C88.376 14.44 88.4161 14.4 88.4562 14.4H88.8973V17.52C88.8973 17.84 88.6567 18.12 88.2958 18.12H86.8119C86.7317 18.12 86.6916 18.2 86.6916 18.28L87.0124 20.04C87.0124 20.12 87.0525 20.16 87.1328 20.16H89.4989C90.3812 20.16 91.1432 19.44 91.1833 18.48V12.12C91.1833 12.08 91.1432 12 91.063 12H80.2348C80.1145 12 80.0744 11.88 80.1145 11.8C80.1967 11.6633 80.2602 11.5267 80.3178 11.4028C80.3445 11.3453 80.3699 11.2907 80.3952 11.24C80.3952 11.2 80.4755 11.16 80.5156 11.16ZM87.9749 9.08001H79.3124C79.2322 9.08001 79.1921 9.00001 79.1921 8.96001V8.40001C79.1921 8.36001 79.2322 8.28001 79.3124 8.28001H87.9749C88.015 8.28001 88.0952 8.32001 88.0952 8.40001V8.96001C88.0952 9.00001 88.0551 9.08001 87.9749 9.08001ZM87.9749 6.40001H79.3124C79.2322 6.40001 79.1921 6.32001 79.1921 6.28001V5.92001C79.1921 5.88001 79.2322 5.80001 79.3124 5.80001H87.9749C88.015 5.80001 88.0952 5.84001 88.0952 5.92001V6.28001C88.0952 6.32001 88.0551 6.40001 87.9749 6.40001ZM109.23 15.04C108.949 15.28 107.506 16.48 105.701 17.2C105.621 17.24 105.621 17.4 105.741 17.32C107.024 17.68 108.548 17.92 110.193 17.96C110.273 17.96 110.313 18.04 110.313 18.12C110.295 18.2985 110.269 18.6046 110.242 18.9207C110.209 19.3129 110.175 19.7207 110.152 19.92C110.152 20 110.072 20.04 109.992 20.04C106.463 19.72 104.859 19.32 102.573 18.6H102.493C100.247 19.36 98.041 19.76 94.5921 20.12C94.5119 20.12 94.4317 20.08 94.4317 20C94.4116 19.82 94.3915 19.49 94.3715 19.16C94.3514 18.83 94.3314 18.5 94.3113 18.32C94.3113 18.24 94.3514 18.16 94.4317 18.16C96.3567 17.92 97.7202 17.72 99.1238 17.4C99.2442 17.4 99.2843 17.2 99.1639 17.16C98.5223 16.8 97.5598 16.2 96.7978 15.48C96.7577 15.44 96.6775 15.44 96.6374 15.48C96.116 15.84 95.4744 16.28 95.0332 16.52C94.9931 16.56 94.9129 16.56 94.8728 16.48L93.9504 14.76C93.9103 14.72 93.9103 14.64 93.9905 14.6C95.4744 13.76 96.0759 13.16 96.7176 12.32C96.7577 12.24 96.7176 12.12 96.5973 12.12H95.7551C95.6749 12.12 95.6348 12.08 95.6348 12V8.20001C95.6348 8.08001 95.5145 8.00001 95.4343 8.08001C95.2337 8.24001 94.9931 8.40001 94.7525 8.56001C94.6723 8.60001 94.5921 8.56001 94.552 8.52001C94.4517 8.36001 94.2311 8.04001 94.0106 7.72001C93.79 7.40001 93.5694 7.08001 93.4692 6.92001C93.4291 6.88001 93.4692 6.80001 93.5093 6.76001C94.7926 5.76001 95.5947 4.64001 96.0358 3.68001C96.0759 3.64001 96.116 3.60001 96.1561 3.60001H109.872C109.952 3.60001 109.992 3.64001 109.992 3.72001V5.44001C109.992 5.52001 109.952 5.56001 109.872 5.56001H97.64C97.5999 5.56001 97.5598 5.60001 97.5197 5.64001L97.1988 6.16001H109.15C109.23 6.16001 109.27 6.20001 109.27 6.28001V11.96C109.27 12.04 109.23 12.08 109.15 12.08H99.6853C99.6452 12.08 99.6051 12.12 99.565 12.16L99.2041 12.76H109.15C109.23 12.76 109.27 12.8 109.27 12.88V14.92C109.27 14.96 109.27 15 109.23 15.04ZM106.623 7.76001H98.2817C98.2014 7.76001 98.1613 7.80001 98.1613 7.88001V8.32001C98.1613 8.40001 98.2014 8.44001 98.2817 8.44001H106.623C106.704 8.44001 106.744 8.40001 106.744 8.32001V7.88001C106.744 7.80001 106.704 7.76001 106.623 7.76001ZM106.623 9.72001H98.2817C98.2014 9.72001 98.1613 9.76001 98.1613 9.84001V10.4C98.1613 10.48 98.2014 10.52 98.2817 10.52H106.623C106.704 10.52 106.744 10.48 106.744 10.4V9.84001C106.744 9.76001 106.704 9.72001 106.623 9.72001ZM100.046 15.08C100.888 15.56 102.092 16.16 102.412 16.28H102.493C103.174 16.04 104.297 15.6 105.099 15.08C105.22 15 105.139 14.84 105.019 14.84H100.126C99.966 14.84 99.9259 15 100.046 15.08Z" fill="#002266"/>
<defs>
<clipPath id="clip0_406_13693">
<rect width="24" height="24" fill="white"/>
</clipPath>
</defs>
</svg>
