<svg width="44" height="44" viewBox="0 0 44 44" fill="none" xmlns="http://www.w3.org/2000/svg">
<circle cx="22" cy="22" r="21.5" stroke="#8291A9"/>
<path d="M15.4804 19.1587C15.3718 19.086 15.2503 19.0369 15.1232 19.0142C14.9961 18.9916 14.8659 18.996 14.7404 19.0271C14.6149 19.0582 14.4967 19.1154 14.3928 19.1952C14.2888 19.2751 14.2013 19.3761 14.1353 19.4921C14.0694 19.6081 14.0264 19.7368 14.0089 19.8705C13.9914 20.0043 13.9998 20.1403 14.0335 20.2706C14.0673 20.4009 14.1257 20.5228 14.2053 20.629C14.2849 20.7351 14.3841 20.8235 14.497 20.8887C14.7157 21.0151 14.9727 21.0475 15.2137 20.9791C15.4548 20.9107 15.661 20.7468 15.7887 20.5221C15.9164 20.2974 15.9557 20.0295 15.8982 19.7751C15.8406 19.5207 15.6908 19.2996 15.4804 19.1587ZM18.3068 21.0633C18.1141 20.9433 17.8837 20.9084 17.6665 20.9663C17.4492 21.0241 17.2628 21.1699 17.1482 21.3716C17.0336 21.5734 17.0003 21.8145 17.0555 22.042C17.1108 22.2694 17.2501 22.4646 17.4428 22.5845L22.7226 25.8771C22.8509 25.9563 22.997 25.9987 23.146 26C23.295 26.0012 23.4417 25.9614 23.5712 25.8843C23.7008 25.8073 23.8087 25.6958 23.8839 25.5612C23.9592 25.4266 23.9993 25.2736 24 25.1176C24.0001 24.9641 23.9622 24.8132 23.8899 24.6797C23.8177 24.5462 23.7135 24.4346 23.5877 24.3558L18.3068 21.0633Z" fill="#8291A9"/>
<path d="M32.9943 19.789L32.9921 19.7843C32.9714 19.6644 32.9277 19.5504 32.8635 19.4491C32.8456 19.422 32.8188 19.4031 32.7987 19.3772C32.7469 19.3083 32.6854 19.2482 32.6165 19.199C32.6075 19.1931 32.6019 19.1813 32.593 19.1754L22.0424 12.6226C21.9475 12.5638 21.8426 12.5253 21.7336 12.5093C21.6246 12.4933 21.5136 12.5002 21.4071 12.5294C21.3006 12.5587 21.2006 12.6098 21.1128 12.6798C21.025 12.7499 20.9512 12.8375 20.8955 12.9377C20.8398 13.0379 20.8033 13.1487 20.7881 13.2637C20.773 13.3788 20.7795 13.4959 20.8072 13.6083C20.8349 13.7207 20.8833 13.8263 20.9497 13.919C21.016 14.0116 21.099 14.0896 21.194 14.1484L30.886 20.169L28.1259 23.6088L15.1909 15.4736L18.4127 12.4568C18.4838 12.368 18.5377 12.2654 18.5712 12.1547C18.6048 12.044 18.6173 11.9274 18.6082 11.8116C18.5991 11.6958 18.5684 11.583 18.518 11.4797C18.4675 11.3764 18.3983 11.2845 18.3143 11.2095C18.2302 11.1344 18.133 11.0775 18.0282 11.0421C17.9233 11.0067 17.8128 10.9934 17.7031 11.0031C17.5934 11.0127 17.4865 11.0451 17.3887 11.0983C17.2908 11.1515 17.2038 11.2246 17.1327 11.3133L13.2715 15.1278C13.2176 15.2036 13.1757 15.2881 13.1474 15.378C13.1184 15.4134 13.0815 15.4406 13.0591 15.4819L11.5623 18.1322C11.1828 18.8071 11.0722 19.6133 11.255 20.374C11.4377 21.1347 11.8988 21.7879 12.5371 22.1904L16.6621 24.7841L15.6325 28.0202H12.6846L12.6768 26.7045C12.6753 26.4708 12.5864 26.2472 12.4293 26.0825C12.2722 25.9178 12.0598 25.8254 11.8384 25.8254H11.8328C11.6114 25.8269 11.3996 25.9209 11.2436 26.0867C11.0876 26.2525 11 26.4767 11 26.7104V26.7163L11.0302 32.1209C11.0317 32.3546 11.1206 32.5782 11.2777 32.7429C11.4348 32.9076 11.6472 33 11.8686 33H11.8742C12.0956 32.9984 12.3074 32.9045 12.4634 32.7387C12.6194 32.5729 12.707 32.3487 12.707 32.115V32.1091L12.6936 29.7903H16.159C16.2852 29.7882 16.4093 29.7551 16.5212 29.6935C16.5916 29.657 16.6571 29.6105 16.7157 29.5555C16.7291 29.5425 16.7448 29.5331 16.7571 29.5189C16.8196 29.4525 16.8717 29.376 16.9114 29.2923L18.1086 25.6939L23.5549 29.1184C23.8708 29.318 24.2211 29.4494 24.5855 29.5051C24.9499 29.5608 25.3212 29.5397 25.6778 29.4429C26.0353 29.3492 26.3717 29.1814 26.6672 28.9493C26.9628 28.7171 27.2116 28.4252 27.3993 28.0905C28.0063 28.4953 28.8399 28.5353 29.7142 28.2923C30.4119 28.0985 30.943 27.602 31.2906 27.3164C31.4438 27.1892 31.5505 27.0099 31.5925 26.809L32.9876 20.1265C33.0025 20.0368 33.004 19.9452 32.9921 19.8551C32.9898 19.8338 32.9988 19.8126 32.9943 19.789ZM24.4134 27.5973L13.3956 20.6693C13.1396 20.5076 12.9552 20.2492 12.8814 19.9389C12.8076 19.6285 12.8512 19.3087 13.0032 19.0373L14.0697 17.1469L27.0248 25.2939L25.9584 27.1843C25.8827 27.3186 25.7827 27.4359 25.6641 27.5293C25.5455 27.6228 25.4106 27.6907 25.2671 27.729C25.1236 27.7674 24.9743 27.7755 24.8278 27.7529C24.6813 27.7303 24.5405 27.6774 24.4134 27.5973ZM28.2578 26.5718L28.895 25.4414C28.9129 25.4083 28.9151 25.3729 28.9297 25.3387C28.9342 25.3328 28.942 25.3304 28.9465 25.3245L30.621 23.2371L30.033 26.0526C29.5 26.809 28.8593 26.9872 28.2578 26.5718Z" fill="#8291A9"/>
</svg>
