<svg width="180" height="206" viewBox="0 0 180 206" fill="none" xmlns="http://www.w3.org/2000/svg">
<circle cx="90" cy="70" r="50" fill="#E6F6FF"/>
<mask id="mask0_36_98760" style="mask-type:alpha" maskUnits="userSpaceOnUse" x="40" y="20" width="100" height="100">
<circle cx="90" cy="70" r="50" fill="url(#paint0_linear_36_98760)"/>
</mask>
<g mask="url(#mask0_36_98760)">
<path opacity="0.74" d="M90 90L123 73V120H90V90Z" fill="#52AEFF"/>
<path opacity="0.81" d="M97 99.0909L115 90V100.909L97 110V99.0909Z" fill="white"/>
<path opacity="0.82" d="M57 73L90 90V120H57V73Z" fill="#7AC6FF"/>
<path opacity="0.6" d="M123 73L90 56V90L123 73Z" fill="#0077FF"/>
<path opacity="0.67" d="M57 73L90 56V90L57 73Z" fill="#0077FF"/>
<path d="M98 37L101 34" stroke="#52AEFF" stroke-width="3" stroke-linecap="square"/>
<path d="M82 37L79 34" stroke="#52AEFF" stroke-width="3" stroke-linecap="square"/>
<path d="M90 35L90 30" stroke="#52AEFF" stroke-width="3" stroke-linecap="square"/>
</g>
<path opacity="0.82" d="M101.939 104L135 86.9275L123 73L90 90L101.939 104Z" fill="#7AC6FF"/>
<path opacity="0.82" d="M78.0612 104L45 86.9275L57 73L90 90L78.0612 104Z" fill="#52AEFF"/>
<path opacity="0.82" d="M123 73L90 56L105.396 51L138 68.0612L123 73Z" fill="#7AC6FF"/>
<path opacity="0.74" d="M57 73L90 56L74.6038 51L42 68.0612L57 73Z" fill="#52AEFF"/>
<g clip-path="url(#clip0_36_98760)">
<path d="M62.672 168.976H63.792V167.424L66.208 167.152L66.192 166.24C65.392 166.32 64.592 166.416 63.792 166.496V165.28H66.288V164.32H63.792V163.28H62.672V164.32H60.608C61.056 163.824 61.488 163.248 61.92 162.624H66.256V161.696H62.512C62.672 161.424 62.832 161.184 62.976 160.912L61.776 160.576C61.616 160.96 61.424 161.328 61.232 161.696H58.896V162.624H60.672C60.352 163.152 60.048 163.552 59.904 163.728C59.616 164.096 59.344 164.368 59.088 164.416C59.232 164.72 59.408 165.264 59.472 165.504C59.616 165.376 60.096 165.28 60.752 165.28H62.672V166.608C61.232 166.736 59.92 166.864 58.912 166.944L59.024 167.936L62.672 167.552V168.976ZM70.048 170.224V171.52H61.968V170.224H70.048ZM61.968 173.712V172.384H70.048V173.712H61.968ZM60.832 175.216H61.968V174.656H70.048V175.184H71.216V169.28H60.832V175.216ZM73.168 164.192H68.096V164.08V162.496C69.712 162.368 71.504 162.112 72.704 161.744L72.064 160.848C70.88 161.248 68.784 161.536 67.024 161.68V164.064C67.024 165.376 66.896 167.088 65.888 168.368C66.128 168.48 66.592 168.8 66.784 168.96C67.616 167.92 67.952 166.464 68.048 165.168H70.192V168.944H71.296V165.168H73.168V164.192ZM84.368 173.696C83.552 173.696 83.392 173.568 83.392 173.008V167.552H89.152V166.384H82.032C82.208 165.2 82.288 163.984 82.32 162.848H88.24V161.696H75.888V162.848H81.152C81.104 163.984 81.056 165.2 80.864 166.384H74.896V167.552H80.656C79.984 170.288 78.448 172.832 74.688 174.256C74.976 174.48 75.312 174.928 75.488 175.232C79.584 173.584 81.184 170.64 81.84 167.552H82.176V173.008C82.176 174.432 82.608 174.848 84.256 174.848H87.232C88.768 174.848 89.136 174.192 89.296 171.648C88.96 171.568 88.432 171.36 88.16 171.152C88.064 173.328 87.936 173.696 87.152 173.696H84.368ZM97.104 160.912C96.832 161.552 96.304 162.464 95.904 163.04L96.672 163.408C97.12 162.88 97.632 162.08 98.096 161.36L97.104 160.912ZM93.36 163.072C93.2 162.48 92.768 161.632 92.32 161.008L91.456 161.36C91.888 162.016 92.304 162.896 92.448 163.456L93.36 163.072ZM94.144 167.552H95.248V165.36C96.016 165.904 97.008 166.688 97.392 167.056L98.048 166.192C97.68 165.92 96.304 165.024 95.504 164.56H98.512V163.568H95.248V160.608H94.144V163.568H90.848V164.56H93.776C92.992 165.6 91.808 166.576 90.688 167.056C90.912 167.28 91.2 167.68 91.328 167.952C92.304 167.44 93.344 166.56 94.144 165.616V167.552ZM96.576 169.84C96.224 170.672 95.712 171.376 95.088 171.952C94.512 171.664 93.872 171.36 93.28 171.104C93.504 170.736 93.744 170.288 93.984 169.84H96.576ZM97.36 173.28C97.008 173.024 96.528 172.736 96.016 172.448C96.864 171.552 97.52 170.432 97.936 169.056L97.264 168.784L97.088 168.832H94.48C94.608 168.544 94.704 168.272 94.816 168L93.76 167.808C93.648 168.144 93.504 168.48 93.344 168.832H91.184V169.84H92.848C92.512 170.464 92.16 171.056 91.824 171.536C92.608 171.824 93.472 172.224 94.272 172.64C93.232 173.376 92.016 173.888 90.72 174.176C90.928 174.4 91.168 174.832 91.28 175.088C92.736 174.704 94.096 174.08 95.232 173.168C95.776 173.472 96.256 173.792 96.624 174.064L97.36 173.28ZM102.912 164.8C102.672 166.64 102.288 168.24 101.712 169.584C101.104 168.16 100.656 166.528 100.352 164.8H102.912ZM105.104 164.8V163.696H100.592C100.816 162.8 101.008 161.872 101.136 160.928L100.048 160.768C99.648 163.536 98.928 166.208 97.712 167.888C97.968 168.048 98.416 168.416 98.608 168.608C99.008 168 99.376 167.296 99.696 166.512C100.048 168.096 100.496 169.536 101.104 170.784C100.208 172.304 98.96 173.472 97.232 174.32C97.44 174.544 97.776 175.024 97.888 175.28C99.52 174.4 100.736 173.28 101.68 171.888C102.464 173.248 103.472 174.336 104.704 175.088C104.88 174.784 105.216 174.384 105.488 174.16C104.16 173.456 103.12 172.272 102.304 170.816C103.152 169.168 103.68 167.184 104.048 164.8H105.104ZM111.648 168.656L111.488 167.568L109.824 168.096V164.928H111.632V163.824H109.824V160.624H108.72V163.824H106.736V164.928H108.72V168.432C107.888 168.672 107.136 168.896 106.544 169.072L106.832 170.208C107.408 170.032 108.048 169.84 108.72 169.616V173.728C108.72 173.968 108.64 174.032 108.448 174.032C108.272 174.032 107.632 174.032 106.944 174.016C107.104 174.352 107.248 174.832 107.296 175.12C108.304 175.136 108.912 175.088 109.28 174.896C109.68 174.704 109.824 174.4 109.824 173.744V169.248L111.648 168.656ZM113.472 167.184C113.488 166.8 113.488 166.464 113.488 166.112V165.424H116.576V167.184H113.472ZM119.584 162.352V164.384H113.488V162.352H119.584ZM119.696 173.6H114.784V171.184H119.696V173.6ZM121.264 168.208V167.184H117.712V165.424H120.72V161.312H112.336V166.112C112.336 168.64 112.192 172.112 110.544 174.56C110.816 174.672 111.312 175.008 111.504 175.232C112.848 173.264 113.28 170.576 113.424 168.208H116.576V170.176H113.744V175.248H114.784V174.592H119.696V175.184H120.784V170.176H117.712V168.208H121.264Z" fill="#333333"/>
<path d="M59.326 190.662C58.892 190.102 57.94 189.234 57.212 188.618L56.54 189.234C57.268 189.892 58.192 190.802 58.612 191.39L59.326 190.662ZM58.724 198.628V192.664H55.63V193.658H57.716V198.74C57.716 199.356 57.324 199.776 57.058 199.93C57.24 200.14 57.506 200.574 57.604 200.812C57.814 200.546 58.178 200.238 60.516 198.432C60.404 198.236 60.222 197.844 60.152 197.564L58.724 198.628ZM61.916 198.152V197.018H66.284V198.152H61.916ZM66.284 195.212V196.29H61.916V195.212H66.284ZM67.278 194.4H60.936V201.064H61.916V198.908H66.284V199.888C66.284 200.07 66.228 200.126 66.018 200.126C65.85 200.14 65.178 200.14 64.464 200.112C64.59 200.378 64.73 200.756 64.772 201.008C65.766 201.022 66.382 201.008 66.788 200.854C67.166 200.7 67.278 200.434 67.278 199.902V194.4ZM64.604 192.804V191.824H67.544V191.068H64.604V190.186H67.964V189.388H64.604V188.296H63.582V189.388H60.362V190.186H63.582V191.068H60.698V191.824H63.582V192.804H59.942V193.602H68.37V192.804H64.604ZM76.042 189.752H73.718C73.536 189.29 73.242 188.716 72.976 188.24L72.038 188.478C72.248 188.856 72.472 189.332 72.654 189.752H69.91V190.62H76.042V189.752ZM70.932 196.682C70.652 197.55 70.19 198.404 69.63 199.006C69.84 199.132 70.176 199.398 70.344 199.538C70.89 198.88 71.464 197.872 71.786 196.906L70.932 196.682ZM70.82 190.914C71.086 191.544 71.31 192.384 71.366 192.916L72.248 192.678C72.192 192.146 71.94 191.32 71.66 190.718L70.82 190.914ZM76.098 196.164V195.268H73.494V193.798H76.266V192.916H74.488C74.74 192.328 75.02 191.572 75.258 190.9L74.306 190.69C74.138 191.334 73.816 192.272 73.55 192.916H69.686V193.798H72.542V195.268H69.756V196.164H72.542V199.706C72.542 199.846 72.514 199.888 72.374 199.888C72.22 199.902 71.786 199.902 71.31 199.888C71.45 200.154 71.576 200.518 71.618 200.77C72.29 200.77 72.766 200.756 73.088 200.602C73.41 200.448 73.494 200.21 73.494 199.72V196.164H76.098ZM74.054 196.99C74.488 197.69 74.978 198.642 75.202 199.244L75.93 198.824C75.72 198.222 75.216 197.312 74.768 196.626L74.054 196.99ZM82.37 192.972H77.708V190.312C79.164 190.088 80.774 189.738 81.922 189.304L81.096 188.534C80.088 188.954 78.296 189.374 76.742 189.626V194.4C76.742 196.262 76.616 198.628 75.454 200.308C75.678 200.434 76.07 200.742 76.252 200.938C77.526 199.132 77.708 196.402 77.708 194.4V193.952H79.822V201.008H80.83V193.952H82.37V192.972ZM94.298 190.326V191.348H92.198V190.326H94.298ZM94.298 193.238H92.198V192.202H94.298V193.238ZM91.218 191.348H87.62V192.202H91.218V193.238H88.432V194.078H91.218V195.128H88.334V195.926H91.218V197.06H87.746V197.914H91.218V199.3H92.198V197.914H96.02V197.06H92.198V195.926H95.502V195.128H92.198V194.078H95.236V192.202H96.202V191.348H95.236V189.5H92.198V188.352H91.218V189.5H88.53V190.326H91.218V191.348ZM87.102 193.014L86.92 193.042H85.926C86.542 191.88 87.284 190.396 87.872 189.164H83.938V190.088H86.388C85.758 191.432 84.988 192.944 84.386 193.966H86.654C86.472 195.226 86.192 196.318 85.814 197.256C85.45 196.696 85.142 196.01 84.904 195.184L84.134 195.492C84.47 196.598 84.876 197.48 85.394 198.18C84.89 199.062 84.274 199.776 83.56 200.28C83.798 200.42 84.162 200.784 84.33 200.994C84.988 200.476 85.562 199.804 86.066 198.95C87.508 200.364 89.538 200.728 92.128 200.728H96.034C96.09 200.448 96.272 200 96.426 199.762C95.712 199.776 92.702 199.776 92.156 199.776C89.776 199.776 87.844 199.468 86.486 198.096C87.06 196.794 87.466 195.17 87.69 193.182L87.102 193.014ZM101.144 188.296C100.29 190.466 98.876 192.608 97.35 193.966C97.574 194.218 97.896 194.75 97.994 195.002C98.568 194.456 99.128 193.812 99.646 193.112V201.078H100.668V191.572C101.242 190.62 101.732 189.626 102.152 188.604L101.144 188.296ZM110.384 195.24V194.232H106.436V190.354C107.696 190.102 108.872 189.808 109.824 189.5L109.054 188.632C107.346 189.248 104.322 189.808 101.732 190.144C101.844 190.382 102.012 190.774 102.054 191.026C103.118 190.9 104.28 190.732 105.4 190.536V194.232H101.27V195.24H105.4V199.538H101.802V200.546H110.174V199.538H106.436V195.24H110.384ZM118.056 196.052C118.154 195.66 118.252 195.212 118.322 194.75L117.244 194.666C117.188 195.17 117.09 195.632 116.978 196.052H112.806V196.962H116.656C115.858 198.754 114.304 199.692 111.84 200.168C112.036 200.378 112.302 200.812 112.414 201.05C115.158 200.392 116.88 199.216 117.762 196.962H122.004C121.766 198.796 121.486 199.65 121.164 199.916C121.01 200.028 120.842 200.042 120.562 200.042C120.212 200.042 119.33 200.028 118.448 199.944C118.63 200.21 118.756 200.588 118.77 200.868C119.596 200.924 120.436 200.924 120.842 200.91C121.36 200.882 121.668 200.812 121.976 200.532C122.452 200.098 122.774 199.048 123.068 196.514C123.11 196.374 123.124 196.052 123.124 196.052H118.056ZM115.746 190.62H121.402C120.576 191.446 119.428 192.118 118.112 192.65C117.034 192.188 116.152 191.586 115.536 190.816L115.746 190.62ZM122.382 189.668L122.2 189.724H116.558C116.894 189.318 117.188 188.898 117.454 188.492L116.362 188.268C115.648 189.486 114.262 190.928 112.302 191.922C112.526 192.09 112.806 192.454 112.946 192.692C113.66 192.286 114.304 191.866 114.864 191.404C115.438 192.062 116.138 192.608 116.95 193.056C115.298 193.588 113.464 193.924 111.686 194.092C111.854 194.33 112.036 194.736 112.106 195.002C114.136 194.75 116.236 194.33 118.098 193.602C119.722 194.274 121.668 194.652 123.81 194.834C123.936 194.54 124.174 194.134 124.384 193.896C122.522 193.784 120.786 193.532 119.33 193.084C120.87 192.328 122.172 191.362 123.012 190.102L122.382 189.668Z" fill="#999999"/>
</g>
<defs>
<linearGradient id="paint0_linear_36_98760" x1="90" y1="20" x2="90" y2="120" gradientUnits="userSpaceOnUse">
<stop stop-color="#E6EEFE"/>
<stop offset="1" stop-color="#D7E0F2"/>
</linearGradient>
<clipPath id="clip0_36_98760">
<rect width="70" height="50" fill="white" transform="translate(55 156)"/>
</clipPath>
</defs>
</svg>
