<svg width="110" height="28" viewBox="0 0 110 28" fill="none" xmlns="http://www.w3.org/2000/svg">
<g clip-path="url(#clip0_1610_100851)">
<path fill-rule="evenodd" clip-rule="evenodd" d="M25.8035 16.2628C25.9477 15.4435 26.0155 14.6001 25.998 13.7349C25.8603 6.77823 20.1512 1.10189 13.1924 1.00139C5.92324 0.896511 0 6.75638 0 13.9993C0 14.7706 0.0677316 15.5287 0.19664 16.2628C0.225044 16.4202 0.415129 16.4835 0.533113 16.3765L7.58812 10.0774C10.671 7.32446 15.3292 7.32446 18.4121 10.0774L25.4671 16.3765C25.5851 16.4835 25.7751 16.4202 25.8035 16.2628ZM23.481 21.1395L15.1653 13.7153C13.933 12.6141 12.0693 12.6141 10.8371 13.7153L2.51918 21.1395C2.38153 21.2619 2.3575 21.4694 2.46456 21.618C4.82861 24.8779 8.66527 26.9994 13.0001 26.9994C17.3349 26.9994 21.1716 24.8779 23.5356 21.618C23.6427 21.4694 23.6165 21.2619 23.481 21.1395Z" fill="#0077FF"/>
</g>
<path d="M40.6181 9.478H51.3281V11.512H53.6141V7.498H47.2601C46.9901 6.886 46.6121 6.112 46.2701 5.5L44.0201 6.022C44.2361 6.472 44.4881 6.994 44.7041 7.498H38.4401V11.512H40.6181V9.478ZM48.2681 14.536C47.8181 15.562 47.2061 16.426 46.4501 17.164C45.4421 16.786 44.4701 16.426 43.4981 16.084C43.8221 15.616 44.1461 15.094 44.4881 14.536H48.2681ZM53.9561 14.536V12.52H45.5861C45.9641 11.782 46.3061 11.062 46.5941 10.342L44.2001 9.874C43.8761 10.702 43.4441 11.62 42.9761 12.52H38.0981V14.536H41.8241C41.2661 15.436 40.6901 16.282 40.1501 16.984L40.1141 17.02C41.4641 17.452 42.9401 18.01 44.3981 18.604C42.7241 19.486 40.6361 20.044 38.1521 20.386C38.5661 20.854 39.1961 21.844 39.4301 22.366C42.3461 21.808 44.8121 20.962 46.7741 19.612C48.8981 20.566 50.8421 21.574 52.1201 22.42L53.8661 20.602C52.5341 19.792 50.6441 18.892 48.5921 18.028C49.4741 17.074 50.2121 15.904 50.7521 14.536H53.9561Z" fill="#697585"/>
<path d="M66.6461 8.2H68.6261V9.838C68.6261 11.512 68.9501 12.232 70.6241 12.232H71.5061C71.8481 12.232 72.2441 12.214 72.4961 12.106C72.4241 11.62 72.3881 10.936 72.3521 10.414C72.1181 10.504 71.7221 10.54 71.5061 10.54H70.8401C70.6241 10.54 70.6061 10.36 70.6061 9.874V6.382H64.6481V8.848C64.6481 9.802 64.5401 10.81 63.3701 11.548C63.8021 11.818 64.6481 12.556 64.9541 12.916C66.3761 11.944 66.6461 10.324 66.6461 8.902V8.2ZM69.4541 14.932C69.0941 15.994 68.6081 16.894 67.9961 17.65C67.1861 16.858 66.5741 15.922 66.1241 14.932H69.4541ZM58.6721 13.15V12.79V10.378C59.1401 11.152 59.6621 12.124 59.9141 12.754L61.2821 11.998C60.9941 11.35 60.4181 10.36 59.8961 9.604L58.6721 10.216V9.1H61.4441V13.15H58.6721ZM70.5881 13.006L70.2281 13.06H63.9641V14.932H65.2601L64.1261 15.292C64.7201 16.714 65.5121 17.974 66.4841 19.036C65.5841 19.666 64.5221 20.134 63.3341 20.494C63.3521 20.35 63.3521 20.206 63.3521 20.044V7.426H60.6161C60.8141 6.922 61.0481 6.364 61.3001 5.752L59.1401 5.5C59.0501 6.076 58.8521 6.796 58.6541 7.426H56.7821V12.79V13.15H55.6301V15.004H56.7461C56.6561 17.146 56.3861 19.504 55.5941 21.304C56.0261 21.484 56.8721 22.06 57.2321 22.384C58.1681 20.35 58.5101 17.488 58.6181 15.004H61.4441V20.026C61.4441 20.296 61.3541 20.368 61.1021 20.386C60.8321 20.386 59.9681 20.386 59.2121 20.35C59.4461 20.836 59.7161 21.664 59.7701 22.168C61.0481 22.168 61.9481 22.15 62.5421 21.844C62.9921 21.61 63.2081 21.286 63.2981 20.746C63.6761 21.16 64.1261 21.844 64.3241 22.24C65.6741 21.808 66.9161 21.214 67.9601 20.368C68.8961 21.07 69.9581 21.628 71.1821 22.042C71.4881 21.502 72.0821 20.692 72.5681 20.26C71.4161 19.936 70.3721 19.468 69.4721 18.856C70.5521 17.488 71.3801 15.724 71.8121 13.474L70.5881 13.006ZM61.3901 18.064C61.0841 17.362 60.4901 16.264 59.9321 15.454L58.6001 16.102C59.1221 16.966 59.6981 18.118 59.9861 18.856L61.3901 18.064Z" fill="#697585"/>
<path d="M78.2921 10.756H85.8521V11.89H78.2921V10.756ZM78.2921 8.038H85.8521V9.154H78.2921V8.038ZM79.5161 14.698C79.7861 14.338 80.0381 13.978 80.2721 13.6H88.0301V6.31H76.1861V13.6H77.7701C76.6721 15.076 75.0881 16.372 73.4501 17.236C73.9001 17.56 74.7101 18.352 75.0701 18.748C76.0061 18.172 76.9781 17.416 77.8601 16.57H79.4261C78.2921 18.172 76.6541 19.558 74.8901 20.44C75.3401 20.782 76.1321 21.538 76.4741 21.97C78.4901 20.728 80.5061 18.802 81.8381 16.57H83.3861C82.5761 18.46 81.2981 20.098 79.7861 21.178C80.2721 21.466 81.1181 22.132 81.4781 22.492C83.1341 21.124 84.6641 18.982 85.6001 16.57H87.1481C86.8961 19 86.5361 20.098 86.1941 20.422C86.0141 20.62 85.8521 20.638 85.5281 20.638C85.2041 20.638 84.5021 20.638 83.7461 20.566C84.0701 21.07 84.2861 21.844 84.3041 22.384C85.2041 22.402 86.0501 22.402 86.5541 22.348C87.1121 22.294 87.5801 22.132 88.0121 21.664C88.6061 21.07 89.0201 19.432 89.3981 15.544C89.4341 15.274 89.4701 14.698 89.4701 14.698H79.5161Z" fill="#697585"/>
<path d="M102.826 17.542C102.052 18.118 101.116 18.568 100.036 18.964C99.0281 18.568 98.1281 18.118 97.4261 17.542H102.826ZM96.7421 13.078H104.104V13.834H96.7421V13.078ZM96.7421 11.026H104.104V11.764H96.7421V11.026ZM104.896 15.904L104.554 15.994H98.2721C98.4521 15.778 98.6321 15.562 98.7941 15.346L98.4881 15.238H106.354V9.622H95.0501C95.2661 9.37 95.5001 9.1 95.6801 8.83H107.56V7.102H96.8861C97.0661 6.778 97.2281 6.454 97.3901 6.148L95.4461 5.554C94.6721 7.246 93.2321 8.812 91.7381 9.82C92.1161 10.198 92.8181 11.026 93.0881 11.404C93.5921 11.044 94.0961 10.594 94.5821 10.108V15.238H96.5081C95.5001 16.372 93.9701 17.416 92.4941 18.082C92.9261 18.388 93.6641 19.072 93.9701 19.432C94.6001 19.072 95.2661 18.64 95.8961 18.172C96.4361 18.73 97.0661 19.216 97.7501 19.648C95.8061 20.098 93.6641 20.368 91.4861 20.494C91.8101 20.98 92.1341 21.826 92.2601 22.366C95.0501 22.114 97.7861 21.646 100.198 20.818C102.25 21.574 104.68 22.006 107.344 22.186C107.596 21.628 108.082 20.8 108.496 20.35C106.408 20.278 104.446 20.062 102.736 19.702C104.158 18.946 105.346 17.956 106.21 16.732L104.896 15.904Z" fill="#697585"/>
<defs>
<clipPath id="clip0_1610_100851">
<rect width="26" height="26" fill="white" transform="translate(0 1)"/>
</clipPath>
</defs>
</svg>
