<svg width="18" height="18" viewBox="0 0 18 18" fill="none" xmlns="http://www.w3.org/2000/svg">
<path fill-rule="evenodd" clip-rule="evenodd" d="M2.63582 2.63577C1.00727 4.26443 0 6.51434 0 8.99952C0 11.4849 1.00742 13.7349 2.63619 15.3636L3.52007 14.4797C2.11751 13.0773 1.25 11.1397 1.25 8.99952C1.25 6.85952 2.11736 4.92211 3.51971 3.51965L2.63582 2.63577ZM14.4803 3.51963L15.3641 2.63574C16.9927 4.26441 18 6.51433 18 8.99952C18 11.4849 16.9926 13.7349 15.3638 15.3636L14.4799 14.4797C15.8825 13.0772 16.75 11.1397 16.75 8.99952C16.75 6.85951 15.8826 4.92209 14.4803 3.51963ZM4.05004 4.04998C2.78341 5.31672 2 7.06663 2 8.99952C2 10.9326 2.78356 12.6827 4.0504 13.9494L4.93429 13.0655C3.89365 12.025 3.25 10.5874 3.25 8.99952C3.25 7.41181 3.8935 5.97439 4.93392 4.93387L4.05004 4.04998ZM13.0661 4.93384L13.9499 4.04996C15.2166 5.31669 16 7.06661 16 8.99952C16 10.9326 15.2164 12.6826 13.9496 13.9494L13.0657 13.0655C14.1064 12.025 14.75 10.5874 14.75 8.99952C14.75 7.41179 14.1065 5.97437 13.0661 4.93384ZM5.46425 5.4642C4.55956 6.369 4 7.61891 4 8.99952C4 10.3803 4.55971 11.6304 5.46462 12.5352L6.3485 11.6513C5.6698 10.9727 5.25 10.0351 5.25 8.99952C5.25 7.96409 5.66964 7.02668 6.34813 6.34808L5.46425 5.4642ZM11.6518 6.34805L12.5357 5.46417C13.4404 6.36898 14 7.6189 14 8.99952C14 10.3803 13.4403 11.6304 12.5354 12.5352L11.6515 11.6513C12.3302 10.9727 12.75 10.0351 12.75 8.99952C12.75 7.96408 12.3303 7.02665 11.6518 6.34805ZM6.87847 6.87841C6.3357 7.42129 6 8.1712 6 8.99952C6 9.82802 6.33585 10.5781 6.87883 11.121L7.76271 10.2371C7.44594 9.9204 7.25 9.48284 7.25 8.99952C7.25 8.51638 7.44579 8.07896 7.76235 7.76229L6.87847 6.87841ZM10.2376 7.76227L11.1215 6.87838C11.6643 7.42126 12 8.17118 12 8.99952C12 9.82801 11.6642 10.5781 11.1212 11.121L10.2373 10.2371C10.5541 9.92039 10.75 9.48283 10.75 8.99952C10.75 8.51636 10.5542 8.07894 10.2376 7.76227ZM6 15L9.00001 12L12 15H9.00001H6ZM9.00001 3H6L9.00001 6.00001L12 3H9.00001Z" fill="#999999"/>
</svg>
