<svg width="18" height="18" viewBox="0 0 18 18" fill="none" xmlns="http://www.w3.org/2000/svg">
<path fill-rule="evenodd" clip-rule="evenodd" d="M17.5 16H16H1.99998H0.499969L0.499981 14.5L1.99998 14.5H16V13V10.5L16 10.4839V11.25H14V9.75H15.9603C15.84 8.62081 15.4513 7.57185 14.8591 6.6682L12.95 8.1L12.05 6.9L13.9067 5.50751C12.8109 4.4305 11.3622 3.71143 9.75 3.5397V5.5H8.25V3.53971C6.63778 3.71145 5.1891 4.43052 4.09337 5.50753L5.95 6.9L5.05 8.1L3.14095 6.66821C2.54876 7.57187 2.15999 8.62082 2.03971 9.75H4V11.25H2L1.99998 13V14.5L0.499981 14.5V14.4999V14.4995V14.4982V14.493L0.499981 14.4725L0.499982 14.393L0.499984 14.0976L0.49999 13.0936L0.499999 10.5C0.499999 5.80557 4.30562 2 9.00004 2C13.6945 2 17.5 5.80558 17.5 10.5V10.5205V10.5409V10.5612V10.5815V10.6017V10.6218V10.6419V10.6619V10.6818V10.7017V10.7215V10.7412V10.7608V10.7804V10.8V10.8194V10.8388V10.8581V10.8774V10.8966V10.9157V10.9348V10.9537V10.9727V10.9915V11.0103V11.029V11.0477V11.0663V11.0848V11.1033V11.1217V11.14V11.1583V11.1765V11.1947V11.2127V11.2307V11.2487V11.2666V11.2844V11.3021V11.3198V11.3375V11.355V11.3725V11.39V11.4073V11.4246V11.4419V11.4591V11.4762V11.4932V11.5102V11.5272V11.544V11.5608V11.5776V11.5943V11.6109V11.6275V11.644V11.6604V11.6768V11.6931V11.7093V11.7255V11.7416V11.7577V11.7737V11.7897V11.8055V11.8214V11.8371V11.8528V11.8685V11.884V11.8996V11.915V11.9304V11.9458V11.9611V11.9763V11.9914V12.0066V12.0216V12.0366V12.0515V12.0664V12.0812V12.0959V12.1106V12.1253V12.1398V12.1544V12.1688V12.1832V12.1976V12.2119V12.2261V12.2403V12.2544V12.2684V12.2824V12.2964V12.3103V12.3241V12.3379V12.3516V12.3652V12.3788V12.3924V12.4059V12.4193V12.4327V12.446V12.4593V12.4725V12.4856V12.4987V12.5118V12.5248V12.5377V12.5506V12.5634V12.5762V12.5889V12.6016V12.6142V12.6267V12.6392V12.6517V12.6641V12.6764V12.6887V12.7009V12.7131V12.7252V12.7373V12.7493V12.7613V12.7732V12.785V12.7968V12.8086V12.8203V12.8319V12.8435V12.8551V12.8666V12.878V12.8894V12.9007V12.912V12.9232V12.9344V12.9456V12.9566V12.9677V12.9786V12.9896V13.0004V13.0113V13.022V13.0328V13.0434V13.0541V13.0646V13.0752V13.0856V13.0961V13.1064V13.1168V13.127V13.1373V13.1474V13.1576V13.1677V13.1777V13.1877V13.1976V13.2075V13.2173V13.2271V13.2369V13.2466V13.2562V13.2658V13.2753V13.2848V13.2943V13.3037V13.3131V13.3224V13.3317V13.3409V13.35V13.3592V13.3682V13.3773V13.3863V13.3952V13.4041V13.413V13.4218V13.4305V13.4392V13.4479V13.4565V13.4651V13.4736V13.4821V13.4905V13.4989V13.5073V13.5156V13.5239V13.5321V13.5402V13.5484V13.5565V13.5645V13.5725V13.5804V13.5884V13.5962V13.604V13.6118V13.6196V13.6272V13.6349V13.6425V13.6501V13.6576V13.6651V13.6725V13.6799V13.6873V13.6946V13.7018V13.7091V13.7162V13.7234V13.7305V13.7375V13.7446V13.7515V13.7585V13.7654V13.7722V13.779V13.7858V13.7925V13.7992V13.8059V13.8125V13.8191V13.8256V13.8321V13.8385V13.845V13.8513V13.8577V13.864V13.8702V13.8764V13.8826V13.8888V13.8948V13.9009V13.9069V13.9129V13.9189V13.9248V13.9306V13.9365V13.9423V13.948V13.9537V13.9594V13.9651V13.9707V13.9762V13.9818V13.9873V13.9927V13.9982V14.0035V14.0089V14.0142V14.0195V14.0247V14.0299V14.0351V14.0402V14.0453V14.0504V14.0554V14.0604V14.0654V14.0703V14.0752V14.08V14.0848V14.0896V14.0943V14.0991V14.1037V14.1084V14.113V14.1176V14.1221V14.1266V14.1311V14.1355V14.1399V14.1443V14.1486V14.153V14.1572V14.1615V14.1657V14.1699V14.174V14.1781V14.1822V14.1862V14.1902V14.1942V14.1982V14.2021V14.206V14.2098V14.2137V14.2174V14.2212V14.2249V14.2286V14.2323V14.2359V14.2395V14.2431V14.2467V14.2502V14.2537V14.2571V14.2605V14.2639V14.2673V14.2706V14.2739V14.2772V14.2805V14.2837V14.2869V14.29V14.2932V14.2963V14.2993V14.3024V14.3054V14.3084V14.3113V14.3143V14.3172V14.3201V14.3229V14.3257V14.3285V14.3313V14.334V14.3367V14.3394V14.3421V14.3447V14.3473V14.3499V14.3524V14.355V14.3575V14.3599V14.3624V14.3648V14.3672V14.3696V14.3719V14.3742V14.3765V14.3788V14.381V14.3832V14.3854V14.3876V14.3897V14.3918V14.3939V14.396V14.398V14.4001V14.4021V14.404V14.406V14.4079V14.4098V14.4117V14.4135V14.4154V14.4172V14.4189V14.4207V14.4224V14.4242V14.4258V14.4275V14.4292V14.4308V14.4324V14.434V14.4355V14.4371V14.4386V14.4401V14.4415V14.443V14.4444V14.4458V14.4472V14.4486V14.4499V14.4513V14.4526V14.4538V14.4551V14.4563V14.4576V14.4588V14.46V14.4611V14.4623V14.4634V14.4645V14.4656V14.4666V14.4677V14.4687V14.4697V14.4707V14.4717V14.4726V14.4736V14.4745V14.4754V14.4763V14.4771V14.478V14.4788V14.4796V14.4804V14.4812V14.4819V14.4826V14.4834V14.4841V14.4848V14.4854V14.4861V14.4867V14.4873V14.4879V14.4885V14.4891V14.4897V14.4902V14.4907V14.4912V14.4917V14.4922V14.4927V14.4931V14.4935V14.4939V14.4943V14.4947V14.4951V14.4955V14.4958V14.4961V14.4964V14.4967V14.497V14.4973V14.4976V14.4978V14.498V14.4983V14.4985V14.4986V14.4988V14.499V14.4991V14.4993V14.4994V14.4995V14.4996V14.4997V14.4998V14.4999V14.4999V14.4999V14.5V14.5V16ZM7.79175 11.722L9 8.5L10.2082 11.722C10.3859 12.1958 10.2703 12.7297 9.91246 13.0875C9.40852 13.5915 8.59148 13.5915 8.08754 13.0875C7.72973 12.7297 7.61407 12.1958 7.79175 11.722Z" fill="#999999"/>
</svg>
