<svg width="24" height="24" viewBox="0 0 24 24" fill="none" xmlns="http://www.w3.org/2000/svg">
<path fill-rule="evenodd" clip-rule="evenodd" d="M2.15006 11.4731C4.91444 7.01382 8.18014 4.5 12 4.5C15.8199 4.5 19.0856 7.01382 21.8499 11.4731L22.1766 12L21.8499 12.5269C19.0856 16.9862 15.8199 19.5 12 19.5C8.18014 19.5 4.91444 16.9862 2.15006 12.5269L1.82344 12L2.15006 11.4731ZM4.18535 12C6.69221 15.8328 9.31254 17.5 12 17.5C14.6875 17.5 17.3078 15.8328 19.8147 12C17.3078 8.16717 14.6875 6.5 12 6.5C9.31254 6.5 6.69221 8.16717 4.18535 12ZM12 10.5C11.1716 10.5 10.5 11.1716 10.5 12C10.5 12.8284 11.1716 13.5 12 13.5C12.8284 13.5 13.5 12.8284 13.5 12C13.5 11.1716 12.8284 10.5 12 10.5ZM8.5 12C8.5 10.067 10.067 8.5 12 8.5C13.933 8.5 15.5 10.067 15.5 12C15.5 13.933 13.933 15.5 12 15.5C10.067 15.5 8.5 13.933 8.5 12Z" fill="#4880FF"/>
</svg>
