<svg width="24" height="24" viewBox="0 0 24 24" fill="none" xmlns="http://www.w3.org/2000/svg">
<path fill-rule="evenodd" clip-rule="evenodd" d="M18.7174 5.28574C19.4984 6.06679 19.4984 7.33312 18.7174 8.11416L16.2425 10.589L17.6567 12.0033L20.1316 9.52838C21.6937 7.96628 21.6937 5.43362 20.1316 3.87152C18.5695 2.30943 16.0368 2.30943 14.4747 3.87152L10.2321 8.11416C8.66997 9.67626 8.66997 12.2089 10.2321 13.771L11.6463 12.3568C10.8652 11.5758 10.8652 10.3094 11.6463 9.52838L15.8889 5.28574C16.67 4.50469 17.9363 4.50469 18.7174 5.28574ZM5.28253 18.7174C4.50148 17.9364 4.50148 16.6701 5.28253 15.889L7.7574 13.4141L6.34319 11.9999L3.86831 14.4748C2.30622 16.0369 2.30621 18.5696 3.86831 20.1316C5.43041 21.6937 7.96307 21.6937 9.52517 20.1316L13.7678 15.889C15.3299 14.3269 15.3299 11.7943 13.7678 10.2322L12.3536 11.6464C13.1346 12.4274 13.1346 13.6937 12.3536 14.4748L8.11095 18.7174C7.3299 19.4985 6.06357 19.4985 5.28253 18.7174Z" fill="#333333"/>
</svg>
