<svg width="672" height="38" viewBox="0 0 672 38" fill="none" xmlns="http://www.w3.org/2000/svg">
<mask id="path-1-inside-1_10_221635" fill="white">
<path d="M0 0H88V38H0V0Z"/>
</mask>
<path d="M0 0H88V38H0V0Z" fill="#F7F9FA"/>
<path fill-rule="evenodd" clip-rule="evenodd" d="M4.66675 15.3335H6.66675V13.3335H4.66675V15.3335ZM9.33341 15.3335H11.3334V13.3335H9.33341V15.3335ZM6.66675 20.0002H4.66675V18.0002H6.66675V20.0002ZM9.33341 20.0002H11.3334V18.0002H9.33341V20.0002ZM6.66675 24.6668H4.66675V22.6668H6.66675V24.6668ZM9.33341 24.6668H11.3334V22.6668H9.33341V24.6668Z" fill="#CCCCCC"/>
<path d="M43.784 23.296V24.01H49.384V25.382H36.63V24.01H38.702V21.896H40.298V24.01H42.146V21.378H37.47V20.034H48.516V21.378H43.784V22.078H47.396V23.296H43.784ZM46.85 15.4H45.282C45.506 15.862 45.8 16.296 46.192 16.73C46.472 16.338 46.682 15.904 46.85 15.4ZM40.76 18.06L41.138 17.598H40.76V18.06ZM38.366 15.918V16.632H39.304V15.918H38.366ZM41.614 15.918H40.76V16.632H41.614V15.918ZM49.328 15.4H48.404C48.138 16.296 47.746 17.052 47.256 17.682C47.886 18.144 48.684 18.522 49.594 18.76C49.286 19.054 48.866 19.67 48.684 20.048C47.732 19.726 46.92 19.264 46.262 18.69C45.562 19.25 44.75 19.684 43.784 20.02C43.644 19.712 43.154 19.11 42.86 18.83C43.812 18.564 44.624 18.2 45.254 17.696C44.946 17.304 44.666 16.898 44.428 16.478C44.232 16.716 44.036 16.94 43.826 17.122C43.658 16.898 43.28 16.478 42.972 16.17V17.598H41.642C42.132 17.878 42.65 18.214 42.944 18.466L42.258 19.39C41.936 19.068 41.306 18.62 40.76 18.298V19.726H39.304V18.62C38.73 19.194 38.044 19.684 37.4 20.006C37.19 19.684 36.77 19.194 36.462 18.956C37.26 18.662 38.1 18.158 38.716 17.598H37.078V14.938H39.304V14.462H36.756V13.3H39.304V12.628H40.76V13.3H43.182V14.462H40.76V14.938H42.972V15.764C43.77 14.994 44.386 13.86 44.708 12.656L46.192 13.006C46.08 13.37 45.954 13.72 45.828 14.07H49.328V15.4ZM55.95 12.824L57.35 13.37C56.888 14 56.454 14.63 56.09 15.064L55.026 14.588C55.348 14.098 55.726 13.342 55.95 12.824ZM53.29 18.928V17.668C52.646 18.312 51.904 18.9 51.204 19.278C51.022 18.914 50.658 18.368 50.35 18.06C51.176 17.724 52.058 17.108 52.716 16.422H50.644V15.106H51.736C51.624 14.63 51.302 13.916 50.994 13.37L52.17 12.88C52.548 13.398 52.898 14.126 53.01 14.602L51.876 15.106H53.29V12.642H54.83V15.106H57.476V16.422H55.432C56.062 16.786 56.846 17.248 57.084 17.416L56.216 18.578C55.908 18.284 55.362 17.822 54.83 17.402V18.928H53.29ZM55.264 21.154H53.57C53.43 21.42 53.29 21.672 53.15 21.896C53.528 22.078 53.92 22.274 54.284 22.47C54.676 22.078 55.012 21.644 55.264 21.154ZM56.524 23.772L55.544 24.836C55.264 24.626 54.9 24.374 54.48 24.122C53.542 24.836 52.422 25.34 51.162 25.69C51.008 25.312 50.686 24.724 50.406 24.444C51.414 24.22 52.352 23.856 53.15 23.366C52.492 23.016 51.792 22.694 51.162 22.428C51.414 22.064 51.68 21.63 51.96 21.154H50.896V19.81H52.646C52.772 19.53 52.884 19.264 52.982 18.998L54.452 19.264C54.382 19.446 54.298 19.628 54.214 19.81H55.992L56.244 19.768L57.14 20.104C56.804 21.336 56.244 22.344 55.53 23.156C55.908 23.366 56.244 23.576 56.524 23.772ZM60.962 16.758H59.422C59.632 17.878 59.912 18.956 60.276 19.95C60.598 18.998 60.822 17.948 60.962 16.758ZM63.384 16.758H62.502C62.236 18.718 61.816 20.356 61.158 21.728C61.802 22.834 62.656 23.716 63.706 24.29C63.342 24.584 62.852 25.186 62.628 25.606C61.662 25.004 60.892 24.206 60.262 23.226C59.464 24.29 58.456 25.13 57.154 25.788C57 25.452 56.566 24.752 56.272 24.43C57.686 23.8 58.722 22.918 59.436 21.756C59.03 20.874 58.722 19.894 58.442 18.83C58.218 19.278 57.966 19.698 57.7 20.076C57.476 19.796 56.846 19.25 56.51 19.012C57.63 17.556 58.246 15.19 58.568 12.684L60.08 12.908C59.968 13.692 59.828 14.476 59.66 15.218H63.384V16.758Z" fill="#333333"/>
<path d="M88 38V39H89V38H88ZM87 0V38H89V0H87ZM88 37H0V39H88V37Z" fill="#E9E9E9" mask="url(#path-1-inside-1_10_221635)"/>
<mask id="path-5-inside-2_10_221635" fill="white">
<path d="M88 0H188V38H88V0Z"/>
</mask>
<path d="M88 0H188V38H88V0Z" fill="white"/>
<path d="M99.276 24.182C98.198 24.182 97.162 23.734 96.434 23.132L97.064 22.292C97.722 22.824 98.408 23.188 99.318 23.188C100.326 23.188 100.816 22.656 100.816 21.998C100.816 21.228 99.92 20.878 99.08 20.556C98.016 20.164 96.812 19.646 96.812 18.358C96.812 17.154 97.778 16.202 99.43 16.202C100.368 16.202 101.194 16.594 101.796 17.056L101.18 17.882C100.648 17.49 100.116 17.21 99.43 17.21C98.478 17.21 98.044 17.714 98.044 18.302C98.044 19.03 98.87 19.296 99.724 19.618C100.83 20.038 102.048 20.486 102.048 21.928C102.048 23.16 101.068 24.182 99.276 24.182ZM106.903 24.182C104.887 24.182 103.263 22.712 103.263 20.206C103.263 17.742 104.929 16.202 106.693 16.202C108.625 16.202 109.717 17.602 109.717 19.772C109.717 20.052 109.689 20.318 109.661 20.5H104.537C104.621 22.124 105.615 23.16 107.057 23.16C107.799 23.16 108.401 22.936 108.961 22.558L109.423 23.398C108.751 23.832 107.939 24.182 106.903 24.182ZM104.523 19.59H108.597C108.597 18.05 107.897 17.224 106.707 17.224C105.629 17.224 104.677 18.092 104.523 19.59ZM114 27.5C112.138 27.5 110.85 26.772 110.85 25.456C110.85 24.812 111.27 24.196 111.984 23.734V23.678C111.578 23.44 111.284 23.034 111.284 22.432C111.284 21.802 111.746 21.298 112.138 21.018V20.962C111.634 20.556 111.144 19.828 111.144 18.918C111.144 17.252 112.46 16.202 114 16.202C114.42 16.202 114.798 16.3 115.064 16.398H117.71V17.378H116.156C116.52 17.728 116.772 18.288 116.772 18.946C116.772 20.57 115.54 21.592 114 21.592C113.622 21.592 113.202 21.494 112.866 21.326C112.586 21.564 112.376 21.816 112.376 22.236C112.376 22.726 112.684 23.062 113.706 23.062H115.19C116.954 23.062 117.836 23.622 117.836 24.868C117.836 26.282 116.352 27.5 114 27.5ZM114 20.724C114.868 20.724 115.61 20.024 115.61 18.918C115.61 17.812 114.896 17.14 114 17.14C113.104 17.14 112.376 17.798 112.376 18.918C112.376 20.024 113.118 20.724 114 20.724ZM114.182 26.632C115.638 26.632 116.604 25.862 116.604 25.064C116.604 24.364 116.058 24.126 115.05 24.126H113.734C113.454 24.126 113.09 24.084 112.754 24C112.208 24.392 111.97 24.84 111.97 25.288C111.97 26.1 112.796 26.632 114.182 26.632ZM118.221 25.96V25.106H125.669V25.96H118.221ZM126.069 24L128.575 20.038L126.265 16.398H127.637L128.659 18.078C128.897 18.498 129.163 18.918 129.415 19.338H129.471C129.709 18.918 129.933 18.498 130.157 18.078L131.095 16.398H132.425L130.115 20.164L132.621 24H131.221L130.101 22.222C129.849 21.76 129.569 21.298 129.289 20.864H129.219C128.953 21.298 128.701 21.76 128.435 22.222L127.413 24H126.069ZM133.042 24L135.548 20.038L133.238 16.398H134.61L135.632 18.078C135.87 18.498 136.136 18.918 136.388 19.338H136.444C136.682 18.918 136.906 18.498 137.13 18.078L138.068 16.398H139.398L137.088 20.164L139.594 24H138.194L137.074 22.222C136.822 21.76 136.542 21.298 136.262 20.864H136.192C135.926 21.298 135.674 21.76 135.408 22.222L134.386 24H133.042ZM140.015 24L142.521 20.038L140.211 16.398H141.583L142.605 18.078C142.843 18.498 143.109 18.918 143.361 19.338H143.417C143.655 18.918 143.879 18.498 144.103 18.078L145.041 16.398H146.371L144.061 20.164L146.567 24H145.167L144.047 22.222C143.795 21.76 143.515 21.298 143.235 20.864H143.165C142.899 21.298 142.647 21.76 142.381 22.222L141.359 24H140.015Z" fill="#333333"/>
<path d="M188 38V39H189V38H188ZM187 0V38H189V0H187ZM188 37H88V39H188V37Z" fill="#E9E9E9" mask="url(#path-5-inside-2_10_221635)"/>
<mask id="path-8-inside-3_10_221635" fill="white">
<path d="M188 0H260V38H188V0Z"/>
</mask>
<path d="M188 0H260V38H188V0Z" fill="#F7F9FA"/>
<path d="M198.618 15.54V17.178H196.98V13.972H202.216C202.048 13.65 201.866 13.314 201.67 13.048L203.336 12.544C203.672 12.964 204.008 13.524 204.19 13.972H209.006V17.178H207.284V15.54H198.618ZM209.104 20.118V21.7H203.882V23.814C203.882 24.71 203.672 25.158 202.986 25.41C202.314 25.676 201.418 25.69 200.27 25.69C200.158 25.186 199.836 24.444 199.542 23.996C200.41 24.024 201.46 24.024 201.74 24.024C202.02 24.024 202.104 23.968 202.104 23.772V21.7H196.91V20.118H202.104V19.376C202.692 19.082 203.28 18.662 203.812 18.228H199.304V16.674H205.492L205.87 16.59L206.976 17.458C206.164 18.312 205.058 19.208 203.882 19.88V20.118H209.104ZM222.18 17.626V22.078C222.18 22.974 221.998 23.464 221.34 23.73C220.696 24.01 219.786 24.01 218.484 24.01C218.428 23.478 218.218 22.736 218.008 22.246C218.82 22.274 219.814 22.274 220.066 22.274C220.332 22.274 220.43 22.218 220.43 22.022V19.222H216.426V25.69H214.662V19.222H211.358V17.626H222.18ZM220.388 14.028H223.3V15.61H220.388V16.954H218.624V15.61H215.446V16.954H213.724V15.61H210.714V14.028H213.724V12.642H215.446V14.028H218.624V12.642H220.388V14.028ZM234.514 12.908L236.208 13.636C234.85 15.12 232.708 16.506 230.902 17.332C230.594 16.968 229.936 16.268 229.544 15.946C231.406 15.288 233.38 14.154 234.514 12.908ZM237.272 19.558H232.372C233.352 21.574 235.074 23.03 237.608 23.674C237.216 24.052 236.684 24.78 236.446 25.27C233.52 24.332 231.756 22.4 230.65 19.558H228.9V23.226L231.896 22.582C231.896 23.072 231.966 23.8 232.05 24.178C228.2 25.116 227.542 25.326 227.108 25.592C227.01 25.186 226.702 24.486 226.464 24.178C226.772 24.024 227.136 23.716 227.136 23.1V19.558H224.756V17.892H227.136V12.698H228.9V17.892H237.272V19.558ZM241.248 15.4V17.556C241.248 19.908 241.066 23.408 239.904 25.69C239.568 25.452 238.812 25.102 238.378 24.976C239.498 22.82 239.596 19.698 239.596 17.57V13.846H244.818C244.72 13.524 244.608 13.188 244.482 12.922L246.176 12.544C246.372 12.936 246.568 13.412 246.708 13.846H251.328V15.4H241.248ZM247.534 17.948H244.986V18.872H247.534V17.948ZM249.186 20.132H243.418V17.948H241.528V16.646H243.418V15.722H244.986V16.646H247.534V15.722H249.186V16.646H251.202V17.948H249.186V20.132ZM247.996 21.994H244.3C244.79 22.442 245.42 22.82 246.148 23.128C246.862 22.82 247.478 22.456 247.996 21.994ZM249.466 20.636L250.502 21.168C249.914 22.26 249.074 23.1 248.038 23.758C249.102 24.01 250.278 24.164 251.552 24.262C251.23 24.612 250.81 25.284 250.6 25.704C248.892 25.536 247.38 25.214 246.064 24.682C244.734 25.158 243.222 25.452 241.64 25.62C241.514 25.228 241.206 24.598 240.954 24.234C242.116 24.136 243.236 23.996 244.258 23.744C243.614 23.31 243.04 22.792 242.564 22.218L243.124 21.994H241.64V20.692H249.172L249.466 20.636Z" fill="#333333"/>
<path d="M260 38V39H261V38H260ZM259 0V38H261V0H259ZM260 37H188V39H260V37Z" fill="#E9E9E9" mask="url(#path-8-inside-3_10_221635)"/>
<mask id="path-11-inside-4_10_221635" fill="white">
<path d="M260 0H308V38H260V0Z"/>
</mask>
<path d="M260 0H308V38H260V0Z" fill="white"/>
<path d="M269.232 24V22.936H271.514V15.278H269.694V14.466C270.604 14.298 271.262 14.06 271.822 13.738H272.802V22.936H274.86V24H269.232Z" fill="#333333"/>
<path fill-rule="evenodd" clip-rule="evenodd" d="M285.529 16.4716L286.472 15.5288L292 21.0574L297.529 15.5288L298.472 16.4716L292 22.943L285.529 16.4716Z" fill="#CCCCCC"/>
<path d="M308 38V39H309V38H308ZM307 0V38H309V0H307ZM308 37H260V39H308V37Z" fill="#E9E9E9" mask="url(#path-11-inside-4_10_221635)"/>
<mask id="path-15-inside-5_10_221635" fill="white">
<path d="M308 0H388V38H308V0Z"/>
</mask>
<path d="M308 0H388V38H308V0Z" fill="white"/>
<path d="M328.978 14.312H324.54C324.232 14.83 323.896 15.334 323.546 15.852V25.036H322.44V17.252C321.026 18.862 319.318 20.304 317.372 21.326C317.218 21.06 316.882 20.654 316.672 20.416C319.43 19.03 321.824 16.706 323.21 14.312H317.022V13.276H328.978V14.312ZM323.826 17.322L324.596 16.65C326.22 17.7 328.348 19.268 329.37 20.332L328.544 21.13C327.55 20.066 325.478 18.414 323.826 17.322ZM334.872 18.862V14.634H331.036V13.71H336.762C336.58 13.304 336.314 12.8 336.048 12.408L337.056 12.156C337.378 12.632 337.742 13.276 337.938 13.71H342.978V14.634H339.1V18.848H338.064V14.634H335.908V18.862H334.872ZM339.646 15.754L340.43 15.306C341.326 16.09 342.348 17.21 342.838 17.924L342.026 18.456C341.522 17.7 340.5 16.538 339.646 15.754ZM333.15 15.222L334.088 15.474C333.626 16.594 332.842 17.714 332.086 18.442C331.904 18.274 331.512 18.008 331.274 17.882C332.044 17.21 332.744 16.23 333.15 15.222ZM339.926 20.178H334.144C334.858 21.088 335.824 21.844 337 22.446C338.204 21.858 339.198 21.116 339.926 20.178ZM340.822 19.198L341.494 19.674C340.696 21.046 339.492 22.11 338.064 22.936C339.576 23.566 341.368 23.972 343.328 24.196C343.104 24.42 342.866 24.826 342.74 25.106C340.57 24.826 338.624 24.294 336.972 23.482C335.25 24.28 333.276 24.784 331.288 25.106C331.19 24.84 330.952 24.406 330.77 24.182C332.59 23.944 334.382 23.538 335.936 22.922C334.746 22.18 333.766 21.27 333.024 20.178H331.89V19.254H340.64L340.822 19.198ZM354.556 13.836H347.038V15.418H354.556V13.836ZM354.514 18.862H348.956C346.674 18.862 346.016 18.568 346.016 17.21V12.94H355.578V16.314H347.038V17.196C347.038 17.798 347.318 17.938 348.886 17.938H354.486C355.634 17.938 355.83 17.728 355.942 16.58C356.208 16.748 356.628 16.888 356.95 16.93C356.74 18.484 356.334 18.862 354.514 18.862ZM357.272 20.85V21.802H354.136V25.036H353.114V21.802H348.578C348.326 22.992 347.57 24.21 345.498 25.12C345.358 24.882 345.036 24.518 344.812 24.322C346.52 23.608 347.22 22.698 347.5 21.802H344.784V20.85H347.668C347.682 20.696 347.682 20.556 347.682 20.43V19.31H348.704V20.458C348.704 20.584 348.704 20.71 348.69 20.85H353.114V19.324H354.136V20.85H357.272Z" fill="#333333"/>
<path fill-rule="evenodd" clip-rule="evenodd" d="M365.529 16.4716L366.472 15.5288L372 21.0574L377.529 15.5288L378.472 16.4716L372 22.943L365.529 16.4716Z" fill="#CCCCCC"/>
<path d="M388 38V39H389V38H388ZM387 0V38H389V0H387ZM388 37H308V39H388V37Z" fill="#E9E9E9" mask="url(#path-15-inside-5_10_221635)"/>
<mask id="path-19-inside-6_10_221635" fill="white">
<path d="M388 0H446V38H388V0Z"/>
</mask>
<path d="M388 0H446V38H388V0Z" fill="#F7F9FA"/>
<path d="M402.342 20.958L401.404 22.274C401.124 21.854 400.676 21.266 400.214 20.678V25.704H398.492V20.874C398.044 21.35 397.582 21.784 397.134 22.134C396.994 21.672 396.588 20.804 396.35 20.482C397.652 19.614 398.954 18.06 399.766 16.492H396.742V14.994H399.136C398.856 14.476 398.394 13.818 398.03 13.3L399.346 12.572C399.794 13.146 400.326 13.902 400.606 14.392L399.654 14.994H400.676L400.9 14.938L401.838 15.596C401.418 16.646 400.858 17.71 400.214 18.69V18.9L400.452 19.11C400.802 18.718 401.25 18.144 401.502 17.752L402.58 18.662C402.062 19.068 401.614 19.516 401.222 19.852C401.712 20.3 402.16 20.762 402.342 20.958ZM402.006 13.72H409.006C409.006 13.72 408.992 14.336 408.992 14.532C408.866 21.588 408.74 23.996 408.222 24.752C407.872 25.284 407.508 25.452 406.99 25.55C406.472 25.648 405.716 25.634 404.96 25.606C404.932 25.158 404.736 24.472 404.47 24.01C405.212 24.08 405.87 24.08 406.206 24.08C406.43 24.08 406.584 24.024 406.724 23.814C407.116 23.338 407.256 21.07 407.354 15.33H405.464C405.282 20.104 404.624 23.52 402.104 25.676C401.908 25.354 401.208 24.668 400.83 24.374C403.154 22.624 403.672 19.502 403.77 15.33H402.006V13.72ZM413.906 16.94H412.982C412.8 17.92 412.576 18.872 412.366 19.712C412.66 19.95 412.954 20.202 413.234 20.454C413.556 19.418 413.78 18.256 413.906 16.94ZM414.55 15.386L415.502 15.512C415.376 18.004 415.054 19.992 414.494 21.588C414.984 22.092 415.432 22.568 415.726 22.988L414.732 24.374C414.508 24.01 414.172 23.59 413.78 23.156C413.178 24.248 412.394 25.06 411.414 25.704C411.204 25.298 410.77 24.696 410.434 24.388C411.358 23.884 412.072 23.058 412.632 21.98C411.988 21.35 411.316 20.748 410.686 20.244C410.952 19.348 411.232 18.186 411.47 16.94H410.546V15.414H411.736C411.876 14.49 411.988 13.566 412.058 12.726L413.626 12.824C413.528 13.636 413.402 14.532 413.248 15.414H414.27L414.55 15.386ZM423.734 18.564L422.306 19.334C422.222 19.054 422.082 18.732 421.956 18.396C417.28 18.802 416.566 18.872 416.048 19.082C415.95 18.76 415.698 17.962 415.502 17.528C415.81 17.444 416.062 17.164 416.384 16.66C416.734 16.184 417.728 14.392 418.316 12.656L420.052 13.118C419.45 14.546 418.652 16.002 417.882 17.178L421.186 16.954C420.85 16.352 420.472 15.778 420.108 15.274L421.438 14.616C422.39 15.834 423.342 17.444 423.734 18.564ZM421.214 21.322H417.798V23.688H421.214V21.322ZM416.272 25.718V19.866H422.796V25.704H421.214V25.158H417.798V25.718H416.272ZM427.346 12.684L428.844 13.188C428.494 14.21 428.018 15.246 427.5 16.24V25.704H425.96V18.718C425.708 19.04 425.442 19.362 425.19 19.656C425.05 19.25 424.602 18.34 424.322 17.92C425.526 16.646 426.674 14.672 427.346 12.684ZM430.762 23.268V24.052H434.906V23.268H430.762ZM434.906 17.514H430.762V18.284H434.906V17.514ZM434.906 21.322H430.762V22.12H434.906V21.322ZM434.906 20.202V19.432H430.762V20.202H434.906ZM436.446 24.052H437.51V25.452H428.088V24.052H429.292V16.296H431.714C431.77 16.002 431.826 15.68 431.882 15.344H428.704V13.916H432.078C432.12 13.468 432.162 13.062 432.19 12.67L433.954 12.726C433.898 13.118 433.814 13.51 433.744 13.916H437.188V15.344H433.45C433.366 15.694 433.296 16.002 433.212 16.296H436.446V24.052Z" fill="#333333"/>
<path d="M446 38V39H447V38H446ZM445 0V38H447V0H445ZM446 37H388V39H446V37Z" fill="#E9E9E9" mask="url(#path-19-inside-6_10_221635)"/>
<mask id="path-22-inside-7_10_221635" fill="white">
<path d="M446 0H656V38H446V0Z"/>
</mask>
<path d="M446 0H656V38H446V0Z" fill="white"/>
<path d="M457.892 24.182C455.932 24.182 454.686 22.404 454.686 18.834C454.686 15.264 455.932 13.542 457.892 13.542C459.838 13.542 461.084 15.278 461.084 18.834C461.084 22.404 459.838 24.182 457.892 24.182ZM457.892 23.16C459.054 23.16 459.838 21.858 459.838 18.834C459.838 15.838 459.054 14.578 457.892 14.578C456.716 14.578 455.932 15.838 455.932 18.834C455.932 21.858 456.716 23.16 457.892 23.16Z" fill="#333333"/>
<path d="M656 38V39H657V38H656ZM655 0V38H657V0H655ZM656 37H446V39H656V37Z" fill="#E9E9E9" mask="url(#path-22-inside-7_10_221635)"/>
<mask id="path-25-inside-8_10_221635" fill="white">
<path d="M656 0H672V38H656V0Z"/>
</mask>
<path d="M656 0H672V38H656V0Z" fill="#F7F9FA"/>
<path fill-rule="evenodd" clip-rule="evenodd" d="M666.917 14.0415H661.083V15.7915H659.333V16.9582H668.667V15.7915H666.917V14.0415ZM665.75 15.7915V15.2082H662.25V15.7915H665.75ZM659.625 17.8332H660.792V22.7915H667.208V17.8332H668.375V23.9582H659.625V17.8332ZM665.75 18.4165V21.3332H664.583V18.4165H665.75ZM663.417 21.3332V18.4165H662.25V21.3332H663.417Z" fill="#CCCCCC"/>
<path d="M672 38V39H673V38H672ZM671 0V38H673V0H671ZM672 37H656V39H672V37Z" fill="#E9E9E9" mask="url(#path-25-inside-8_10_221635)"/>
</svg>
