<svg width="672" height="38" viewBox="0 0 672 38" fill="none" xmlns="http://www.w3.org/2000/svg">
<mask id="path-1-inside-1_10_221491" fill="white">
<path d="M0 0H88V38H0V0Z"/>
</mask>
<path d="M0 0H88V38H0V0Z" fill="#F7F9FA"/>
<path fill-rule="evenodd" clip-rule="evenodd" d="M4.66675 15.3335H6.66675V13.3335H4.66675V15.3335ZM9.33341 15.3335H11.3334V13.3335H9.33341V15.3335ZM6.66675 20.0002H4.66675V18.0002H6.66675V20.0002ZM9.33341 20.0002H11.3334V18.0002H9.33341V20.0002ZM6.66675 24.6668H4.66675V22.6668H6.66675V24.6668ZM9.33341 24.6668H11.3334V22.6668H9.33341V24.6668Z" fill="#CCCCCC"/>
<path d="M27.784 23.296V24.01H33.384V25.382H20.63V24.01H22.702V21.896H24.298V24.01H26.146V21.378H21.47V20.034H32.516V21.378H27.784V22.078H31.396V23.296H27.784ZM30.85 15.4H29.282C29.506 15.862 29.8 16.296 30.192 16.73C30.472 16.338 30.682 15.904 30.85 15.4ZM24.76 18.06L25.138 17.598H24.76V18.06ZM22.366 15.918V16.632H23.304V15.918H22.366ZM25.614 15.918H24.76V16.632H25.614V15.918ZM33.328 15.4H32.404C32.138 16.296 31.746 17.052 31.256 17.682C31.886 18.144 32.684 18.522 33.594 18.76C33.286 19.054 32.866 19.67 32.684 20.048C31.732 19.726 30.92 19.264 30.262 18.69C29.562 19.25 28.75 19.684 27.784 20.02C27.644 19.712 27.154 19.11 26.86 18.83C27.812 18.564 28.624 18.2 29.254 17.696C28.946 17.304 28.666 16.898 28.428 16.478C28.232 16.716 28.036 16.94 27.826 17.122C27.658 16.898 27.28 16.478 26.972 16.17V17.598H25.642C26.132 17.878 26.65 18.214 26.944 18.466L26.258 19.39C25.936 19.068 25.306 18.62 24.76 18.298V19.726H23.304V18.62C22.73 19.194 22.044 19.684 21.4 20.006C21.19 19.684 20.77 19.194 20.462 18.956C21.26 18.662 22.1 18.158 22.716 17.598H21.078V14.938H23.304V14.462H20.756V13.3H23.304V12.628H24.76V13.3H27.182V14.462H24.76V14.938H26.972V15.764C27.77 14.994 28.386 13.86 28.708 12.656L30.192 13.006C30.08 13.37 29.954 13.72 29.828 14.07H33.328V15.4ZM39.95 12.824L41.35 13.37C40.888 14 40.454 14.63 40.09 15.064L39.026 14.588C39.348 14.098 39.726 13.342 39.95 12.824ZM37.29 18.928V17.668C36.646 18.312 35.904 18.9 35.204 19.278C35.022 18.914 34.658 18.368 34.35 18.06C35.176 17.724 36.058 17.108 36.716 16.422H34.644V15.106H35.736C35.624 14.63 35.302 13.916 34.994 13.37L36.17 12.88C36.548 13.398 36.898 14.126 37.01 14.602L35.876 15.106H37.29V12.642H38.83V15.106H41.476V16.422H39.432C40.062 16.786 40.846 17.248 41.084 17.416L40.216 18.578C39.908 18.284 39.362 17.822 38.83 17.402V18.928H37.29ZM39.264 21.154H37.57C37.43 21.42 37.29 21.672 37.15 21.896C37.528 22.078 37.92 22.274 38.284 22.47C38.676 22.078 39.012 21.644 39.264 21.154ZM40.524 23.772L39.544 24.836C39.264 24.626 38.9 24.374 38.48 24.122C37.542 24.836 36.422 25.34 35.162 25.69C35.008 25.312 34.686 24.724 34.406 24.444C35.414 24.22 36.352 23.856 37.15 23.366C36.492 23.016 35.792 22.694 35.162 22.428C35.414 22.064 35.68 21.63 35.96 21.154H34.896V19.81H36.646C36.772 19.53 36.884 19.264 36.982 18.998L38.452 19.264C38.382 19.446 38.298 19.628 38.214 19.81H39.992L40.244 19.768L41.14 20.104C40.804 21.336 40.244 22.344 39.53 23.156C39.908 23.366 40.244 23.576 40.524 23.772ZM44.962 16.758H43.422C43.632 17.878 43.912 18.956 44.276 19.95C44.598 18.998 44.822 17.948 44.962 16.758ZM47.384 16.758H46.502C46.236 18.718 45.816 20.356 45.158 21.728C45.802 22.834 46.656 23.716 47.706 24.29C47.342 24.584 46.852 25.186 46.628 25.606C45.662 25.004 44.892 24.206 44.262 23.226C43.464 24.29 42.456 25.13 41.154 25.788C41 25.452 40.566 24.752 40.272 24.43C41.686 23.8 42.722 22.918 43.436 21.756C43.03 20.874 42.722 19.894 42.442 18.83C42.218 19.278 41.966 19.698 41.7 20.076C41.476 19.796 40.846 19.25 40.51 19.012C41.63 17.556 42.246 15.19 42.568 12.684L44.08 12.908C43.968 13.692 43.828 14.476 43.66 15.218H47.384V16.758ZM53.95 12.824L55.35 13.37C54.888 14 54.454 14.63 54.09 15.064L53.026 14.588C53.348 14.098 53.726 13.342 53.95 12.824ZM51.29 18.928V17.668C50.646 18.312 49.904 18.9 49.204 19.278C49.022 18.914 48.658 18.368 48.35 18.06C49.176 17.724 50.058 17.108 50.716 16.422H48.644V15.106H49.736C49.624 14.63 49.302 13.916 48.994 13.37L50.17 12.88C50.548 13.398 50.898 14.126 51.01 14.602L49.876 15.106H51.29V12.642H52.83V15.106H55.476V16.422H53.432C54.062 16.786 54.846 17.248 55.084 17.416L54.216 18.578C53.908 18.284 53.362 17.822 52.83 17.402V18.928H51.29ZM53.264 21.154H51.57C51.43 21.42 51.29 21.672 51.15 21.896C51.528 22.078 51.92 22.274 52.284 22.47C52.676 22.078 53.012 21.644 53.264 21.154ZM54.524 23.772L53.544 24.836C53.264 24.626 52.9 24.374 52.48 24.122C51.542 24.836 50.422 25.34 49.162 25.69C49.008 25.312 48.686 24.724 48.406 24.444C49.414 24.22 50.352 23.856 51.15 23.366C50.492 23.016 49.792 22.694 49.162 22.428C49.414 22.064 49.68 21.63 49.96 21.154H48.896V19.81H50.646C50.772 19.53 50.884 19.264 50.982 18.998L52.452 19.264C52.382 19.446 52.298 19.628 52.214 19.81H53.992L54.244 19.768L55.14 20.104C54.804 21.336 54.244 22.344 53.53 23.156C53.908 23.366 54.244 23.576 54.524 23.772ZM58.962 16.758H57.422C57.632 17.878 57.912 18.956 58.276 19.95C58.598 18.998 58.822 17.948 58.962 16.758ZM61.384 16.758H60.502C60.236 18.718 59.816 20.356 59.158 21.728C59.802 22.834 60.656 23.716 61.706 24.29C61.342 24.584 60.852 25.186 60.628 25.606C59.662 25.004 58.892 24.206 58.262 23.226C57.464 24.29 56.456 25.13 55.154 25.788C55 25.452 54.566 24.752 54.272 24.43C55.686 23.8 56.722 22.918 57.436 21.756C57.03 20.874 56.722 19.894 56.442 18.83C56.218 19.278 55.966 19.698 55.7 20.076C55.476 19.796 54.846 19.25 54.51 19.012C55.63 17.556 56.246 15.19 56.568 12.684L58.08 12.908C57.968 13.692 57.828 14.476 57.66 15.218H61.384V16.758ZM65.29 20.104L67.754 19.698C67.698 20.104 67.684 20.72 67.698 21.042C64.058 21.742 63.484 21.91 63.106 22.12C63.036 21.812 62.798 21.126 62.63 20.734C62.98 20.65 63.302 20.328 63.778 19.838C63.988 19.6 64.436 19.054 64.954 18.368C63.582 18.522 63.232 18.62 63.008 18.732C62.924 18.41 62.672 17.668 62.504 17.248C62.784 17.178 63.022 16.87 63.344 16.408C63.666 15.974 64.632 14.224 65.164 12.6L66.648 13.286C66.088 14.588 65.318 15.96 64.506 17.094L65.878 16.982C66.172 16.506 66.466 16.016 66.718 15.54L67.978 16.352C67.194 17.654 66.256 18.97 65.29 20.104ZM67.474 22.33L67.656 23.702C66.018 24.178 64.31 24.626 62.952 24.976L62.658 23.394C63.876 23.156 65.71 22.75 67.474 22.33ZM70.232 21.854V23.968H72.724V21.854H70.232ZM72.724 14.84H70.232V16.856H72.724V14.84ZM70.232 18.34V20.384H72.724V18.34H70.232ZM74.376 23.968H75.496V25.466H67.418V23.968H68.65V13.328H74.376V23.968Z" fill="#333333"/>
<path d="M88 38V39H89V38H88ZM87 0V38H89V0H87ZM88 37H0V39H88V37Z" fill="#E9E9E9" mask="url(#path-1-inside-1_10_221491)"/>
<mask id="path-5-inside-2_10_221491" fill="white">
<path d="M88 0H188V38H88V0Z"/>
</mask>
<path d="M88 0H188V38H88V0Z" fill="white"/>
<path d="M99.276 24.182C98.198 24.182 97.162 23.734 96.434 23.132L97.064 22.292C97.722 22.824 98.408 23.188 99.318 23.188C100.326 23.188 100.816 22.656 100.816 21.998C100.816 21.228 99.92 20.878 99.08 20.556C98.016 20.164 96.812 19.646 96.812 18.358C96.812 17.154 97.778 16.202 99.43 16.202C100.368 16.202 101.194 16.594 101.796 17.056L101.18 17.882C100.648 17.49 100.116 17.21 99.43 17.21C98.478 17.21 98.044 17.714 98.044 18.302C98.044 19.03 98.87 19.296 99.724 19.618C100.83 20.038 102.048 20.486 102.048 21.928C102.048 23.16 101.068 24.182 99.276 24.182ZM106.903 24.182C104.887 24.182 103.263 22.712 103.263 20.206C103.263 17.742 104.929 16.202 106.693 16.202C108.625 16.202 109.717 17.602 109.717 19.772C109.717 20.052 109.689 20.318 109.661 20.5H104.537C104.621 22.124 105.615 23.16 107.057 23.16C107.799 23.16 108.401 22.936 108.961 22.558L109.423 23.398C108.751 23.832 107.939 24.182 106.903 24.182ZM104.523 19.59H108.597C108.597 18.05 107.897 17.224 106.707 17.224C105.629 17.224 104.677 18.092 104.523 19.59ZM114 27.5C112.138 27.5 110.85 26.772 110.85 25.456C110.85 24.812 111.27 24.196 111.984 23.734V23.678C111.578 23.44 111.284 23.034 111.284 22.432C111.284 21.802 111.746 21.298 112.138 21.018V20.962C111.634 20.556 111.144 19.828 111.144 18.918C111.144 17.252 112.46 16.202 114 16.202C114.42 16.202 114.798 16.3 115.064 16.398H117.71V17.378H116.156C116.52 17.728 116.772 18.288 116.772 18.946C116.772 20.57 115.54 21.592 114 21.592C113.622 21.592 113.202 21.494 112.866 21.326C112.586 21.564 112.376 21.816 112.376 22.236C112.376 22.726 112.684 23.062 113.706 23.062H115.19C116.954 23.062 117.836 23.622 117.836 24.868C117.836 26.282 116.352 27.5 114 27.5ZM114 20.724C114.868 20.724 115.61 20.024 115.61 18.918C115.61 17.812 114.896 17.14 114 17.14C113.104 17.14 112.376 17.798 112.376 18.918C112.376 20.024 113.118 20.724 114 20.724ZM114.182 26.632C115.638 26.632 116.604 25.862 116.604 25.064C116.604 24.364 116.058 24.126 115.05 24.126H113.734C113.454 24.126 113.09 24.084 112.754 24C112.208 24.392 111.97 24.84 111.97 25.288C111.97 26.1 112.796 26.632 114.182 26.632ZM118.221 25.96V25.106H125.669V25.96H118.221ZM126.069 24L128.575 20.038L126.265 16.398H127.637L128.659 18.078C128.897 18.498 129.163 18.918 129.415 19.338H129.471C129.709 18.918 129.933 18.498 130.157 18.078L131.095 16.398H132.425L130.115 20.164L132.621 24H131.221L130.101 22.222C129.849 21.76 129.569 21.298 129.289 20.864H129.219C128.953 21.298 128.701 21.76 128.435 22.222L127.413 24H126.069ZM133.042 24L135.548 20.038L133.238 16.398H134.61L135.632 18.078C135.87 18.498 136.136 18.918 136.388 19.338H136.444C136.682 18.918 136.906 18.498 137.13 18.078L138.068 16.398H139.398L137.088 20.164L139.594 24H138.194L137.074 22.222C136.822 21.76 136.542 21.298 136.262 20.864H136.192C135.926 21.298 135.674 21.76 135.408 22.222L134.386 24H133.042ZM140.015 24L142.521 20.038L140.211 16.398H141.583L142.605 18.078C142.843 18.498 143.109 18.918 143.361 19.338H143.417C143.655 18.918 143.879 18.498 144.103 18.078L145.041 16.398H146.371L144.061 20.164L146.567 24H145.167L144.047 22.222C143.795 21.76 143.515 21.298 143.235 20.864H143.165C142.899 21.298 142.647 21.76 142.381 22.222L141.359 24H140.015Z" fill="#333333"/>
<path d="M188 38V39H189V38H188ZM187 0V38H189V0H187ZM188 37H88V39H188V37Z" fill="#E9E9E9" mask="url(#path-5-inside-2_10_221491)"/>
<mask id="path-8-inside-3_10_221491" fill="white">
<path d="M188 0H260V38H188V0Z"/>
</mask>
<path d="M188 0H260V38H188V0Z" fill="#F7F9FA"/>
<path d="M207.97 13.622V15.232H198.03V13.622H207.97ZM206.108 23.926H207.368C207.83 23.926 207.914 23.562 207.984 21.546C208.348 21.84 209.062 22.134 209.524 22.246C209.356 24.752 208.936 25.48 207.508 25.48H205.828C204.246 25.48 203.84 24.948 203.84 23.31V19.026H201.74C201.488 21.938 200.844 24.332 197.498 25.69C197.302 25.27 196.84 24.654 196.462 24.332C199.374 23.24 199.766 21.35 199.934 19.026H196.77V17.402H209.258V19.026H205.562V23.31C205.562 23.842 205.646 23.926 206.108 23.926ZM213.752 22.708L215.292 23.296C214.354 24.178 212.884 25.032 211.68 25.564C211.4 25.256 210.798 24.682 210.434 24.43C211.652 24.01 212.996 23.38 213.752 22.708ZM218.764 23.534L219.968 22.68C221.032 23.198 222.544 24.024 223.342 24.626L222.054 25.592C221.354 25.004 219.87 24.122 218.764 23.534ZM223.44 16.87V18.13H216.86L217.182 18.396C216.65 18.662 216.09 18.928 215.516 19.166L218.344 19.054C218.932 18.774 219.506 18.494 220.024 18.2L221.172 19.194C219.534 20.02 217.77 20.734 216.006 21.322L220.038 21.154C219.842 21 219.632 20.846 219.45 20.706L220.696 19.95C221.578 20.594 222.796 21.532 223.37 22.176L222.04 23.002C221.844 22.764 221.564 22.498 221.256 22.19L218.078 22.358V24.038C218.078 24.794 217.924 25.214 217.322 25.452C216.734 25.676 215.964 25.69 214.942 25.69C214.872 25.228 214.592 24.584 214.368 24.164C215.082 24.192 215.936 24.206 216.174 24.192C216.412 24.192 216.468 24.136 216.468 23.982V22.456C212.688 22.666 212.072 22.736 211.61 22.89C211.568 22.624 211.372 21.924 211.26 21.546C211.82 21.49 212.408 21.336 213.318 21.042C213.738 20.902 214.592 20.608 215.628 20.202C213.276 20.342 212.842 20.412 212.548 20.524C212.478 20.244 212.282 19.586 212.142 19.208C212.464 19.166 212.772 19.068 213.192 18.914C213.5 18.802 214.228 18.522 214.998 18.13H210.616V16.87H216.132V16.324H212.03V15.134H216.132V14.602H211.288V13.398H216.132V12.628H217.812V13.398H222.754V14.602H217.812V15.134H222.04V16.324H217.812V16.87H223.44ZM230.118 25.704V17.15H231.854V25.704H230.118ZM230.986 12.628L232.484 13.342C232.344 13.552 232.204 13.776 232.064 14C234.206 16.114 236.11 17.15 237.734 17.766C237.272 18.158 236.74 18.802 236.502 19.348C234.976 18.606 233.24 17.57 231.056 15.302C229.53 17.052 227.612 18.41 225.582 19.334C225.316 18.83 224.84 18.172 224.364 17.71C227.024 16.716 229.558 14.994 230.986 12.628ZM243.95 12.824L245.35 13.37C244.888 14 244.454 14.63 244.09 15.064L243.026 14.588C243.348 14.098 243.726 13.342 243.95 12.824ZM241.29 18.928V17.668C240.646 18.312 239.904 18.9 239.204 19.278C239.022 18.914 238.658 18.368 238.35 18.06C239.176 17.724 240.058 17.108 240.716 16.422H238.644V15.106H239.736C239.624 14.63 239.302 13.916 238.994 13.37L240.17 12.88C240.548 13.398 240.898 14.126 241.01 14.602L239.876 15.106H241.29V12.642H242.83V15.106H245.476V16.422H243.432C244.062 16.786 244.846 17.248 245.084 17.416L244.216 18.578C243.908 18.284 243.362 17.822 242.83 17.402V18.928H241.29ZM243.264 21.154H241.57C241.43 21.42 241.29 21.672 241.15 21.896C241.528 22.078 241.92 22.274 242.284 22.47C242.676 22.078 243.012 21.644 243.264 21.154ZM244.524 23.772L243.544 24.836C243.264 24.626 242.9 24.374 242.48 24.122C241.542 24.836 240.422 25.34 239.162 25.69C239.008 25.312 238.686 24.724 238.406 24.444C239.414 24.22 240.352 23.856 241.15 23.366C240.492 23.016 239.792 22.694 239.162 22.428C239.414 22.064 239.68 21.63 239.96 21.154H238.896V19.81H240.646C240.772 19.53 240.884 19.264 240.982 18.998L242.452 19.264C242.382 19.446 242.298 19.628 242.214 19.81H243.992L244.244 19.768L245.14 20.104C244.804 21.336 244.244 22.344 243.53 23.156C243.908 23.366 244.244 23.576 244.524 23.772ZM248.962 16.758H247.422C247.632 17.878 247.912 18.956 248.276 19.95C248.598 18.998 248.822 17.948 248.962 16.758ZM251.384 16.758H250.502C250.236 18.718 249.816 20.356 249.158 21.728C249.802 22.834 250.656 23.716 251.706 24.29C251.342 24.584 250.852 25.186 250.628 25.606C249.662 25.004 248.892 24.206 248.262 23.226C247.464 24.29 246.456 25.13 245.154 25.788C245 25.452 244.566 24.752 244.272 24.43C245.686 23.8 246.722 22.918 247.436 21.756C247.03 20.874 246.722 19.894 246.442 18.83C246.218 19.278 245.966 19.698 245.7 20.076C245.476 19.796 244.846 19.25 244.51 19.012C245.63 17.556 246.246 15.19 246.568 12.684L248.08 12.908C247.968 13.692 247.828 14.476 247.66 15.218H251.384V16.758Z" fill="#333333"/>
<path d="M260 38V39H261V38H260ZM259 0V38H261V0H259ZM260 37H188V39H260V37Z" fill="#E9E9E9" mask="url(#path-8-inside-3_10_221491)"/>
<mask id="path-11-inside-4_10_221491" fill="white">
<path d="M260 0H308V38H260V0Z"/>
</mask>
<path d="M260 0H308V38H260V0Z" fill="white"/>
<path d="M269.232 24V22.936H271.514V15.278H269.694V14.466C270.604 14.298 271.262 14.06 271.822 13.738H272.802V22.936H274.86V24H269.232ZM279.658 24.182C277.698 24.182 276.452 22.404 276.452 18.834C276.452 15.264 277.698 13.542 279.658 13.542C281.604 13.542 282.85 15.278 282.85 18.834C282.85 22.404 281.604 24.182 279.658 24.182ZM279.658 23.16C280.82 23.16 281.604 21.858 281.604 18.834C281.604 15.838 280.82 14.578 279.658 14.578C278.482 14.578 277.698 15.838 277.698 18.834C277.698 21.858 278.482 23.16 279.658 23.16Z" fill="#333333"/>
<path d="M308 38V39H309V38H308ZM307 0V38H309V0H307ZM308 37H260V39H308V37Z" fill="#E9E9E9" mask="url(#path-11-inside-4_10_221491)"/>
<mask id="path-14-inside-5_10_221491" fill="white">
<path d="M308 0H380V38H308V0Z"/>
</mask>
<path d="M308 0H380V38H308V0Z" fill="#F7F9FA"/>
<path d="M318.618 15.54V17.178H316.98V13.972H322.216C322.048 13.65 321.866 13.314 321.67 13.048L323.336 12.544C323.672 12.964 324.008 13.524 324.19 13.972H329.006V17.178H327.284V15.54H318.618ZM329.104 20.118V21.7H323.882V23.814C323.882 24.71 323.672 25.158 322.986 25.41C322.314 25.676 321.418 25.69 320.27 25.69C320.158 25.186 319.836 24.444 319.542 23.996C320.41 24.024 321.46 24.024 321.74 24.024C322.02 24.024 322.104 23.968 322.104 23.772V21.7H316.91V20.118H322.104V19.376C322.692 19.082 323.28 18.662 323.812 18.228H319.304V16.674H325.492L325.87 16.59L326.976 17.458C326.164 18.312 325.058 19.208 323.882 19.88V20.118H329.104ZM342.18 17.626V22.078C342.18 22.974 341.998 23.464 341.34 23.73C340.696 24.01 339.786 24.01 338.484 24.01C338.428 23.478 338.218 22.736 338.008 22.246C338.82 22.274 339.814 22.274 340.066 22.274C340.332 22.274 340.43 22.218 340.43 22.022V19.222H336.426V25.69H334.662V19.222H331.358V17.626H342.18ZM340.388 14.028H343.3V15.61H340.388V16.954H338.624V15.61H335.446V16.954H333.724V15.61H330.714V14.028H333.724V12.642H335.446V14.028H338.624V12.642H340.388V14.028ZM354.514 12.908L356.208 13.636C354.85 15.12 352.708 16.506 350.902 17.332C350.594 16.968 349.936 16.268 349.544 15.946C351.406 15.288 353.38 14.154 354.514 12.908ZM357.272 19.558H352.372C353.352 21.574 355.074 23.03 357.608 23.674C357.216 24.052 356.684 24.78 356.446 25.27C353.52 24.332 351.756 22.4 350.65 19.558H348.9V23.226L351.896 22.582C351.896 23.072 351.966 23.8 352.05 24.178C348.2 25.116 347.542 25.326 347.108 25.592C347.01 25.186 346.702 24.486 346.464 24.178C346.772 24.024 347.136 23.716 347.136 23.1V19.558H344.756V17.892H347.136V12.698H348.9V17.892H357.272V19.558ZM361.248 15.4V17.556C361.248 19.908 361.066 23.408 359.904 25.69C359.568 25.452 358.812 25.102 358.378 24.976C359.498 22.82 359.596 19.698 359.596 17.57V13.846H364.818C364.72 13.524 364.608 13.188 364.482 12.922L366.176 12.544C366.372 12.936 366.568 13.412 366.708 13.846H371.328V15.4H361.248ZM367.534 17.948H364.986V18.872H367.534V17.948ZM369.186 20.132H363.418V17.948H361.528V16.646H363.418V15.722H364.986V16.646H367.534V15.722H369.186V16.646H371.202V17.948H369.186V20.132ZM367.996 21.994H364.3C364.79 22.442 365.42 22.82 366.148 23.128C366.862 22.82 367.478 22.456 367.996 21.994ZM369.466 20.636L370.502 21.168C369.914 22.26 369.074 23.1 368.038 23.758C369.102 24.01 370.278 24.164 371.552 24.262C371.23 24.612 370.81 25.284 370.6 25.704C368.892 25.536 367.38 25.214 366.064 24.682C364.734 25.158 363.222 25.452 361.64 25.62C361.514 25.228 361.206 24.598 360.954 24.234C362.116 24.136 363.236 23.996 364.258 23.744C363.614 23.31 363.04 22.792 362.564 22.218L363.124 21.994H361.64V20.692H369.172L369.466 20.636Z" fill="#333333"/>
<path d="M380 38V39H381V38H380ZM379 0V38H381V0H379ZM380 37H308V39H380V37Z" fill="#E9E9E9" mask="url(#path-14-inside-5_10_221491)"/>
<mask id="path-17-inside-6_10_221491" fill="white">
<path d="M380 0H428V38H380V0Z"/>
</mask>
<path d="M380 0H428V38H380V0Z" fill="white"/>
<path d="M391.906 24.182C390.016 24.182 388.63 23.034 388.63 21.452C388.63 20.08 389.582 19.128 390.52 18.624V18.554C389.764 18.036 389.134 17.266 389.134 16.188C389.134 14.62 390.338 13.584 391.948 13.584C393.698 13.584 394.762 14.704 394.762 16.286C394.762 17.364 394.006 18.288 393.39 18.764V18.834C394.286 19.352 395.126 20.122 395.126 21.522C395.126 23.02 393.838 24.182 391.906 24.182ZM392.606 18.428C393.306 17.812 393.67 17.112 393.67 16.356C393.67 15.348 393.026 14.522 391.92 14.522C390.982 14.522 390.296 15.194 390.296 16.188C390.296 17.42 391.402 17.952 392.606 18.428ZM391.934 23.23C393.11 23.23 393.908 22.516 393.908 21.494C393.908 20.122 392.648 19.604 391.192 19.016C390.366 19.548 389.792 20.36 389.792 21.34C389.792 22.432 390.702 23.23 391.934 23.23Z" fill="#333333"/>
<path fill-rule="evenodd" clip-rule="evenodd" d="M405.529 16.4716L406.472 15.5288L412 21.0574L417.529 15.5288L418.472 16.4716L412 22.943L405.529 16.4716Z" fill="#CCCCCC"/>
<path d="M428 38V39H429V38H428ZM427 0V38H429V0H427ZM428 37H380V39H428V37Z" fill="#E9E9E9" mask="url(#path-17-inside-6_10_221491)"/>
<mask id="path-21-inside-7_10_221491" fill="white">
<path d="M428 0H508V38H428V0Z"/>
</mask>
<path d="M428 0H508V38H428V0Z" fill="white"/>
<path d="M448.978 14.312H444.54C444.232 14.83 443.896 15.334 443.546 15.852V25.036H442.44V17.252C441.026 18.862 439.318 20.304 437.372 21.326C437.218 21.06 436.882 20.654 436.672 20.416C439.43 19.03 441.824 16.706 443.21 14.312H437.022V13.276H448.978V14.312ZM443.826 17.322L444.596 16.65C446.22 17.7 448.348 19.268 449.37 20.332L448.544 21.13C447.55 20.066 445.478 18.414 443.826 17.322ZM454.872 18.862V14.634H451.036V13.71H456.762C456.58 13.304 456.314 12.8 456.048 12.408L457.056 12.156C457.378 12.632 457.742 13.276 457.938 13.71H462.978V14.634H459.1V18.848H458.064V14.634H455.908V18.862H454.872ZM459.646 15.754L460.43 15.306C461.326 16.09 462.348 17.21 462.838 17.924L462.026 18.456C461.522 17.7 460.5 16.538 459.646 15.754ZM453.15 15.222L454.088 15.474C453.626 16.594 452.842 17.714 452.086 18.442C451.904 18.274 451.512 18.008 451.274 17.882C452.044 17.21 452.744 16.23 453.15 15.222ZM459.926 20.178H454.144C454.858 21.088 455.824 21.844 457 22.446C458.204 21.858 459.198 21.116 459.926 20.178ZM460.822 19.198L461.494 19.674C460.696 21.046 459.492 22.11 458.064 22.936C459.576 23.566 461.368 23.972 463.328 24.196C463.104 24.42 462.866 24.826 462.74 25.106C460.57 24.826 458.624 24.294 456.972 23.482C455.25 24.28 453.276 24.784 451.288 25.106C451.19 24.84 450.952 24.406 450.77 24.182C452.59 23.944 454.382 23.538 455.936 22.922C454.746 22.18 453.766 21.27 453.024 20.178H451.89V19.254H460.64L460.822 19.198ZM474.556 13.836H467.038V15.418H474.556V13.836ZM474.514 18.862H468.956C466.674 18.862 466.016 18.568 466.016 17.21V12.94H475.578V16.314H467.038V17.196C467.038 17.798 467.318 17.938 468.886 17.938H474.486C475.634 17.938 475.83 17.728 475.942 16.58C476.208 16.748 476.628 16.888 476.95 16.93C476.74 18.484 476.334 18.862 474.514 18.862ZM477.272 20.85V21.802H474.136V25.036H473.114V21.802H468.578C468.326 22.992 467.57 24.21 465.498 25.12C465.358 24.882 465.036 24.518 464.812 24.322C466.52 23.608 467.22 22.698 467.5 21.802H464.784V20.85H467.668C467.682 20.696 467.682 20.556 467.682 20.43V19.31H468.704V20.458C468.704 20.584 468.704 20.71 468.69 20.85H473.114V19.324H474.136V20.85H477.272Z" fill="#333333"/>
<path fill-rule="evenodd" clip-rule="evenodd" d="M485.529 16.4716L486.472 15.5288L492 21.0574L497.529 15.5288L498.472 16.4716L492 22.943L485.529 16.4716Z" fill="#CCCCCC"/>
<path d="M508 38V39H509V38H508ZM507 0V38H509V0H507ZM508 37H428V39H508V37Z" fill="#E9E9E9" mask="url(#path-21-inside-7_10_221491)"/>
<mask id="path-25-inside-8_10_221491" fill="white">
<path d="M508 0H566V38H508V0Z"/>
</mask>
<path d="M508 0H566V38H508V0Z" fill="#F7F9FA"/>
<path d="M522.342 20.958L521.404 22.274C521.124 21.854 520.676 21.266 520.214 20.678V25.704H518.492V20.874C518.044 21.35 517.582 21.784 517.134 22.134C516.994 21.672 516.588 20.804 516.35 20.482C517.652 19.614 518.954 18.06 519.766 16.492H516.742V14.994H519.136C518.856 14.476 518.394 13.818 518.03 13.3L519.346 12.572C519.794 13.146 520.326 13.902 520.606 14.392L519.654 14.994H520.676L520.9 14.938L521.838 15.596C521.418 16.646 520.858 17.71 520.214 18.69V18.9L520.452 19.11C520.802 18.718 521.25 18.144 521.502 17.752L522.58 18.662C522.062 19.068 521.614 19.516 521.222 19.852C521.712 20.3 522.16 20.762 522.342 20.958ZM522.006 13.72H529.006C529.006 13.72 528.992 14.336 528.992 14.532C528.866 21.588 528.74 23.996 528.222 24.752C527.872 25.284 527.508 25.452 526.99 25.55C526.472 25.648 525.716 25.634 524.96 25.606C524.932 25.158 524.736 24.472 524.47 24.01C525.212 24.08 525.87 24.08 526.206 24.08C526.43 24.08 526.584 24.024 526.724 23.814C527.116 23.338 527.256 21.07 527.354 15.33H525.464C525.282 20.104 524.624 23.52 522.104 25.676C521.908 25.354 521.208 24.668 520.83 24.374C523.154 22.624 523.672 19.502 523.77 15.33H522.006V13.72ZM533.906 16.94H532.982C532.8 17.92 532.576 18.872 532.366 19.712C532.66 19.95 532.954 20.202 533.234 20.454C533.556 19.418 533.78 18.256 533.906 16.94ZM534.55 15.386L535.502 15.512C535.376 18.004 535.054 19.992 534.494 21.588C534.984 22.092 535.432 22.568 535.726 22.988L534.732 24.374C534.508 24.01 534.172 23.59 533.78 23.156C533.178 24.248 532.394 25.06 531.414 25.704C531.204 25.298 530.77 24.696 530.434 24.388C531.358 23.884 532.072 23.058 532.632 21.98C531.988 21.35 531.316 20.748 530.686 20.244C530.952 19.348 531.232 18.186 531.47 16.94H530.546V15.414H531.736C531.876 14.49 531.988 13.566 532.058 12.726L533.626 12.824C533.528 13.636 533.402 14.532 533.248 15.414H534.27L534.55 15.386ZM543.734 18.564L542.306 19.334C542.222 19.054 542.082 18.732 541.956 18.396C537.28 18.802 536.566 18.872 536.048 19.082C535.95 18.76 535.698 17.962 535.502 17.528C535.81 17.444 536.062 17.164 536.384 16.66C536.734 16.184 537.728 14.392 538.316 12.656L540.052 13.118C539.45 14.546 538.652 16.002 537.882 17.178L541.186 16.954C540.85 16.352 540.472 15.778 540.108 15.274L541.438 14.616C542.39 15.834 543.342 17.444 543.734 18.564ZM541.214 21.322H537.798V23.688H541.214V21.322ZM536.272 25.718V19.866H542.796V25.704H541.214V25.158H537.798V25.718H536.272ZM547.346 12.684L548.844 13.188C548.494 14.21 548.018 15.246 547.5 16.24V25.704H545.96V18.718C545.708 19.04 545.442 19.362 545.19 19.656C545.05 19.25 544.602 18.34 544.322 17.92C545.526 16.646 546.674 14.672 547.346 12.684ZM550.762 23.268V24.052H554.906V23.268H550.762ZM554.906 17.514H550.762V18.284H554.906V17.514ZM554.906 21.322H550.762V22.12H554.906V21.322ZM554.906 20.202V19.432H550.762V20.202H554.906ZM556.446 24.052H557.51V25.452H548.088V24.052H549.292V16.296H551.714C551.77 16.002 551.826 15.68 551.882 15.344H548.704V13.916H552.078C552.12 13.468 552.162 13.062 552.19 12.67L553.954 12.726C553.898 13.118 553.814 13.51 553.744 13.916H557.188V15.344H553.45C553.366 15.694 553.296 16.002 553.212 16.296H556.446V24.052Z" fill="#333333"/>
<path d="M566 38V39H567V38H566ZM565 0V38H567V0H565ZM566 37H508V39H566V37Z" fill="#E9E9E9" mask="url(#path-25-inside-8_10_221491)"/>
<mask id="path-28-inside-9_10_221491" fill="white">
<path d="M566 0H656V38H566V0Z"/>
</mask>
<path d="M566 0H656V38H566V0Z" fill="white"/>
<path d="M577.892 24.182C575.932 24.182 574.686 22.404 574.686 18.834C574.686 15.264 575.932 13.542 577.892 13.542C579.838 13.542 581.084 15.278 581.084 18.834C581.084 22.404 579.838 24.182 577.892 24.182ZM577.892 23.16C579.054 23.16 579.838 21.858 579.838 18.834C579.838 15.838 579.054 14.578 577.892 14.578C576.716 14.578 575.932 15.838 575.932 18.834C575.932 21.858 576.716 23.16 577.892 23.16Z" fill="#333333"/>
<path d="M656 38V39H657V38H656ZM655 0V38H657V0H655ZM656 37H566V39H656V37Z" fill="#E9E9E9" mask="url(#path-28-inside-9_10_221491)"/>
<mask id="path-31-inside-10_10_221491" fill="white">
<path d="M656 0H672V38H656V0Z"/>
</mask>
<path d="M656 0H672V38H656V0Z" fill="#F7F9FA"/>
<path fill-rule="evenodd" clip-rule="evenodd" d="M666.917 14.0415H661.083V15.7915H659.333V16.9582H668.667V15.7915H666.917V14.0415ZM665.75 15.7915V15.2082H662.25V15.7915H665.75ZM659.625 17.8332H660.792V22.7915H667.208V17.8332H668.375V23.9582H659.625V17.8332ZM665.75 18.4165V21.3332H664.583V18.4165H665.75ZM663.417 21.3332V18.4165H662.25V21.3332H663.417Z" fill="#CCCCCC"/>
<path d="M672 38V39H673V38H672ZM671 0V38H673V0H671ZM672 37H656V39H672V37Z" fill="#E9E9E9" mask="url(#path-31-inside-10_10_221491)"/>
</svg>
