<svg width="672" height="38" viewBox="0 0 672 38" fill="none" xmlns="http://www.w3.org/2000/svg">
<mask id="path-1-inside-1_10_221515" fill="white">
<path d="M0 0H88V38H0V0Z"/>
</mask>
<path d="M0 0H88V38H0V0Z" fill="#F7F9FA"/>
<path fill-rule="evenodd" clip-rule="evenodd" d="M4.66675 15.3335H6.66675V13.3335H4.66675V15.3335ZM9.33341 15.3335H11.3334V13.3335H9.33341V15.3335ZM6.66675 20.0002H4.66675V18.0002H6.66675V20.0002ZM9.33341 20.0002H11.3334V18.0002H9.33341V20.0002ZM6.66675 24.6668H4.66675V22.6668H6.66675V24.6668ZM9.33341 24.6668H11.3334V22.6668H9.33341V24.6668Z" fill="#CCCCCC"/>
<path d="M31.618 15.54V17.178H29.98V13.972H35.216C35.048 13.65 34.866 13.314 34.67 13.048L36.336 12.544C36.672 12.964 37.008 13.524 37.19 13.972H42.006V17.178H40.284V15.54H31.618ZM42.104 20.118V21.7H36.882V23.814C36.882 24.71 36.672 25.158 35.986 25.41C35.314 25.676 34.418 25.69 33.27 25.69C33.158 25.186 32.836 24.444 32.542 23.996C33.41 24.024 34.46 24.024 34.74 24.024C35.02 24.024 35.104 23.968 35.104 23.772V21.7H29.91V20.118H35.104V19.376C35.692 19.082 36.28 18.662 36.812 18.228H32.304V16.674H38.492L38.87 16.59L39.976 17.458C39.164 18.312 38.058 19.208 36.882 19.88V20.118H42.104ZM48.418 20.916L49.748 20.202C50.322 20.986 51.148 22.078 51.54 22.736L50.14 23.576C49.776 22.904 49.006 21.756 48.418 20.916ZM54.62 16.842V18.186H56.216V19.698H54.62V23.856C54.62 24.752 54.438 25.172 53.836 25.424C53.262 25.676 52.352 25.704 51.148 25.704C51.064 25.228 50.826 24.542 50.616 24.094C51.442 24.122 52.366 24.136 52.632 24.122C52.898 24.108 52.982 24.052 52.982 23.828V19.698H47.984V18.186H52.982V16.842H54.62ZM52.338 13.832H56.244V15.232H54.032C54.284 15.582 54.522 15.946 54.676 16.184L53.22 16.786C53.024 16.38 52.618 15.764 52.268 15.232H51.638C51.232 15.904 50.798 16.492 50.35 16.954C50.042 16.688 49.356 16.226 48.964 16.016C49.23 15.806 49.468 15.526 49.706 15.232H47.9C48.152 15.694 48.404 16.142 48.572 16.478L47.214 16.954L48.054 17.248C47.802 17.766 47.508 18.298 47.172 18.816V25.704H45.576V20.916C45.212 21.336 44.848 21.686 44.47 22.008C44.26 21.658 43.714 20.902 43.406 20.566C44.596 19.642 45.772 18.172 46.472 16.702L47.046 16.898C46.85 16.45 46.528 15.806 46.248 15.232H45.996C45.604 15.932 45.17 16.562 44.75 17.052C44.428 16.786 43.742 16.338 43.35 16.128C44.218 15.288 44.988 13.902 45.436 12.572L47.032 12.992C46.934 13.258 46.822 13.552 46.696 13.832H49.762V15.162C50.336 14.42 50.812 13.496 51.092 12.572L52.674 12.964C52.576 13.244 52.464 13.538 52.338 13.832ZM64.868 22.078H67.962V20.72H64.868V22.078ZM60.052 22.078H63.062V20.72H60.052V22.078ZM60.612 16.912H63.062V15.652H60.612V16.912ZM67.346 15.652H64.868V16.912H67.346V15.652ZM64.868 19.208H69.782V24.108H67.962V23.562H64.868V25.718H63.062V23.562H60.052V24.122H58.316V19.208H63.062V18.368H58.89V14.21H63.062V12.656H64.868V14.21H69.166V18.368H64.868V19.208Z" fill="#333333"/>
<path d="M88 38V39H89V38H88ZM87 0V38H89V0H87ZM88 37H0V39H88V37Z" fill="#E9E9E9" mask="url(#path-1-inside-1_10_221515)"/>
<mask id="path-5-inside-2_10_221515" fill="white">
<path d="M88 0H188V38H88V0Z"/>
</mask>
<path d="M88 0H188V38H88V0Z" fill="white"/>
<path d="M99.276 24.182C98.198 24.182 97.162 23.734 96.434 23.132L97.064 22.292C97.722 22.824 98.408 23.188 99.318 23.188C100.326 23.188 100.816 22.656 100.816 21.998C100.816 21.228 99.92 20.878 99.08 20.556C98.016 20.164 96.812 19.646 96.812 18.358C96.812 17.154 97.778 16.202 99.43 16.202C100.368 16.202 101.194 16.594 101.796 17.056L101.18 17.882C100.648 17.49 100.116 17.21 99.43 17.21C98.478 17.21 98.044 17.714 98.044 18.302C98.044 19.03 98.87 19.296 99.724 19.618C100.83 20.038 102.048 20.486 102.048 21.928C102.048 23.16 101.068 24.182 99.276 24.182ZM106.903 24.182C104.887 24.182 103.263 22.712 103.263 20.206C103.263 17.742 104.929 16.202 106.693 16.202C108.625 16.202 109.717 17.602 109.717 19.772C109.717 20.052 109.689 20.318 109.661 20.5H104.537C104.621 22.124 105.615 23.16 107.057 23.16C107.799 23.16 108.401 22.936 108.961 22.558L109.423 23.398C108.751 23.832 107.939 24.182 106.903 24.182ZM104.523 19.59H108.597C108.597 18.05 107.897 17.224 106.707 17.224C105.629 17.224 104.677 18.092 104.523 19.59ZM114 27.5C112.138 27.5 110.85 26.772 110.85 25.456C110.85 24.812 111.27 24.196 111.984 23.734V23.678C111.578 23.44 111.284 23.034 111.284 22.432C111.284 21.802 111.746 21.298 112.138 21.018V20.962C111.634 20.556 111.144 19.828 111.144 18.918C111.144 17.252 112.46 16.202 114 16.202C114.42 16.202 114.798 16.3 115.064 16.398H117.71V17.378H116.156C116.52 17.728 116.772 18.288 116.772 18.946C116.772 20.57 115.54 21.592 114 21.592C113.622 21.592 113.202 21.494 112.866 21.326C112.586 21.564 112.376 21.816 112.376 22.236C112.376 22.726 112.684 23.062 113.706 23.062H115.19C116.954 23.062 117.836 23.622 117.836 24.868C117.836 26.282 116.352 27.5 114 27.5ZM114 20.724C114.868 20.724 115.61 20.024 115.61 18.918C115.61 17.812 114.896 17.14 114 17.14C113.104 17.14 112.376 17.798 112.376 18.918C112.376 20.024 113.118 20.724 114 20.724ZM114.182 26.632C115.638 26.632 116.604 25.862 116.604 25.064C116.604 24.364 116.058 24.126 115.05 24.126H113.734C113.454 24.126 113.09 24.084 112.754 24C112.208 24.392 111.97 24.84 111.97 25.288C111.97 26.1 112.796 26.632 114.182 26.632ZM118.221 25.96V25.106H125.669V25.96H118.221ZM126.069 24L128.575 20.038L126.265 16.398H127.637L128.659 18.078C128.897 18.498 129.163 18.918 129.415 19.338H129.471C129.709 18.918 129.933 18.498 130.157 18.078L131.095 16.398H132.425L130.115 20.164L132.621 24H131.221L130.101 22.222C129.849 21.76 129.569 21.298 129.289 20.864H129.219C128.953 21.298 128.701 21.76 128.435 22.222L127.413 24H126.069ZM133.042 24L135.548 20.038L133.238 16.398H134.61L135.632 18.078C135.87 18.498 136.136 18.918 136.388 19.338H136.444C136.682 18.918 136.906 18.498 137.13 18.078L138.068 16.398H139.398L137.088 20.164L139.594 24H138.194L137.074 22.222C136.822 21.76 136.542 21.298 136.262 20.864H136.192C135.926 21.298 135.674 21.76 135.408 22.222L134.386 24H133.042ZM140.015 24L142.521 20.038L140.211 16.398H141.583L142.605 18.078C142.843 18.498 143.109 18.918 143.361 19.338H143.417C143.655 18.918 143.879 18.498 144.103 18.078L145.041 16.398H146.371L144.061 20.164L146.567 24H145.167L144.047 22.222C143.795 21.76 143.515 21.298 143.235 20.864H143.165C142.899 21.298 142.647 21.76 142.381 22.222L141.359 24H140.015Z" fill="#333333"/>
<path d="M188 38V39H189V38H188ZM187 0V38H189V0H187ZM188 37H88V39H188V37Z" fill="#E9E9E9" mask="url(#path-5-inside-2_10_221515)"/>
<mask id="path-8-inside-3_10_221515" fill="white">
<path d="M188 0H268V38H188V0Z"/>
</mask>
<path d="M188 0H268V38H188V0Z" fill="white"/>
<path d="M208.978 14.312H204.54C204.232 14.83 203.896 15.334 203.546 15.852V25.036H202.44V17.252C201.026 18.862 199.318 20.304 197.372 21.326C197.218 21.06 196.882 20.654 196.672 20.416C199.43 19.03 201.824 16.706 203.21 14.312H197.022V13.276H208.978V14.312ZM203.826 17.322L204.596 16.65C206.22 17.7 208.348 19.268 209.37 20.332L208.544 21.13C207.55 20.066 205.478 18.414 203.826 17.322ZM214.872 18.862V14.634H211.036V13.71H216.762C216.58 13.304 216.314 12.8 216.048 12.408L217.056 12.156C217.378 12.632 217.742 13.276 217.938 13.71H222.978V14.634H219.1V18.848H218.064V14.634H215.908V18.862H214.872ZM219.646 15.754L220.43 15.306C221.326 16.09 222.348 17.21 222.838 17.924L222.026 18.456C221.522 17.7 220.5 16.538 219.646 15.754ZM213.15 15.222L214.088 15.474C213.626 16.594 212.842 17.714 212.086 18.442C211.904 18.274 211.512 18.008 211.274 17.882C212.044 17.21 212.744 16.23 213.15 15.222ZM219.926 20.178H214.144C214.858 21.088 215.824 21.844 217 22.446C218.204 21.858 219.198 21.116 219.926 20.178ZM220.822 19.198L221.494 19.674C220.696 21.046 219.492 22.11 218.064 22.936C219.576 23.566 221.368 23.972 223.328 24.196C223.104 24.42 222.866 24.826 222.74 25.106C220.57 24.826 218.624 24.294 216.972 23.482C215.25 24.28 213.276 24.784 211.288 25.106C211.19 24.84 210.952 24.406 210.77 24.182C212.59 23.944 214.382 23.538 215.936 22.922C214.746 22.18 213.766 21.27 213.024 20.178H211.89V19.254H220.64L220.822 19.198ZM234.556 13.836H227.038V15.418H234.556V13.836ZM234.514 18.862H228.956C226.674 18.862 226.016 18.568 226.016 17.21V12.94H235.578V16.314H227.038V17.196C227.038 17.798 227.318 17.938 228.886 17.938H234.486C235.634 17.938 235.83 17.728 235.942 16.58C236.208 16.748 236.628 16.888 236.95 16.93C236.74 18.484 236.334 18.862 234.514 18.862ZM237.272 20.85V21.802H234.136V25.036H233.114V21.802H228.578C228.326 22.992 227.57 24.21 225.498 25.12C225.358 24.882 225.036 24.518 224.812 24.322C226.52 23.608 227.22 22.698 227.5 21.802H224.784V20.85H227.668C227.682 20.696 227.682 20.556 227.682 20.43V19.31H228.704V20.458C228.704 20.584 228.704 20.71 228.69 20.85H233.114V19.324H234.136V20.85H237.272Z" fill="#333333"/>
<path fill-rule="evenodd" clip-rule="evenodd" d="M245.529 16.4716L246.472 15.5288L252 21.0574L257.529 15.5288L258.472 16.4716L252 22.943L245.529 16.4716Z" fill="#CCCCCC"/>
<path d="M268 38V39H269V38H268ZM267 0V38H269V0H267ZM268 37H188V39H268V37Z" fill="#E9E9E9" mask="url(#path-8-inside-3_10_221515)"/>
<mask id="path-12-inside-4_10_221515" fill="white">
<path d="M268 0H326V38H268V0Z"/>
</mask>
<path d="M268 0H326V38H268V0Z" fill="#F7F9FA"/>
<path d="M282.342 20.958L281.404 22.274C281.124 21.854 280.676 21.266 280.214 20.678V25.704H278.492V20.874C278.044 21.35 277.582 21.784 277.134 22.134C276.994 21.672 276.588 20.804 276.35 20.482C277.652 19.614 278.954 18.06 279.766 16.492H276.742V14.994H279.136C278.856 14.476 278.394 13.818 278.03 13.3L279.346 12.572C279.794 13.146 280.326 13.902 280.606 14.392L279.654 14.994H280.676L280.9 14.938L281.838 15.596C281.418 16.646 280.858 17.71 280.214 18.69V18.9L280.452 19.11C280.802 18.718 281.25 18.144 281.502 17.752L282.58 18.662C282.062 19.068 281.614 19.516 281.222 19.852C281.712 20.3 282.16 20.762 282.342 20.958ZM282.006 13.72H289.006C289.006 13.72 288.992 14.336 288.992 14.532C288.866 21.588 288.74 23.996 288.222 24.752C287.872 25.284 287.508 25.452 286.99 25.55C286.472 25.648 285.716 25.634 284.96 25.606C284.932 25.158 284.736 24.472 284.47 24.01C285.212 24.08 285.87 24.08 286.206 24.08C286.43 24.08 286.584 24.024 286.724 23.814C287.116 23.338 287.256 21.07 287.354 15.33H285.464C285.282 20.104 284.624 23.52 282.104 25.676C281.908 25.354 281.208 24.668 280.83 24.374C283.154 22.624 283.672 19.502 283.77 15.33H282.006V13.72ZM293.906 16.94H292.982C292.8 17.92 292.576 18.872 292.366 19.712C292.66 19.95 292.954 20.202 293.234 20.454C293.556 19.418 293.78 18.256 293.906 16.94ZM294.55 15.386L295.502 15.512C295.376 18.004 295.054 19.992 294.494 21.588C294.984 22.092 295.432 22.568 295.726 22.988L294.732 24.374C294.508 24.01 294.172 23.59 293.78 23.156C293.178 24.248 292.394 25.06 291.414 25.704C291.204 25.298 290.77 24.696 290.434 24.388C291.358 23.884 292.072 23.058 292.632 21.98C291.988 21.35 291.316 20.748 290.686 20.244C290.952 19.348 291.232 18.186 291.47 16.94H290.546V15.414H291.736C291.876 14.49 291.988 13.566 292.058 12.726L293.626 12.824C293.528 13.636 293.402 14.532 293.248 15.414H294.27L294.55 15.386ZM303.734 18.564L302.306 19.334C302.222 19.054 302.082 18.732 301.956 18.396C297.28 18.802 296.566 18.872 296.048 19.082C295.95 18.76 295.698 17.962 295.502 17.528C295.81 17.444 296.062 17.164 296.384 16.66C296.734 16.184 297.728 14.392 298.316 12.656L300.052 13.118C299.45 14.546 298.652 16.002 297.882 17.178L301.186 16.954C300.85 16.352 300.472 15.778 300.108 15.274L301.438 14.616C302.39 15.834 303.342 17.444 303.734 18.564ZM301.214 21.322H297.798V23.688H301.214V21.322ZM296.272 25.718V19.866H302.796V25.704H301.214V25.158H297.798V25.718H296.272ZM307.346 12.684L308.844 13.188C308.494 14.21 308.018 15.246 307.5 16.24V25.704H305.96V18.718C305.708 19.04 305.442 19.362 305.19 19.656C305.05 19.25 304.602 18.34 304.322 17.92C305.526 16.646 306.674 14.672 307.346 12.684ZM310.762 23.268V24.052H314.906V23.268H310.762ZM314.906 17.514H310.762V18.284H314.906V17.514ZM314.906 21.322H310.762V22.12H314.906V21.322ZM314.906 20.202V19.432H310.762V20.202H314.906ZM316.446 24.052H317.51V25.452H308.088V24.052H309.292V16.296H311.714C311.77 16.002 311.826 15.68 311.882 15.344H308.704V13.916H312.078C312.12 13.468 312.162 13.062 312.19 12.67L313.954 12.726C313.898 13.118 313.814 13.51 313.744 13.916H317.188V15.344H313.45C313.366 15.694 313.296 16.002 313.212 16.296H316.446V24.052Z" fill="#333333"/>
<path d="M326 38V39H327V38H326ZM325 0V38H327V0H325ZM326 37H268V39H326V37Z" fill="#E9E9E9" mask="url(#path-12-inside-4_10_221515)"/>
<mask id="path-15-inside-5_10_221515" fill="white">
<path d="M326 0H656V38H326V0Z"/>
</mask>
<path d="M326 0H656V38H326V0Z" fill="white"/>
<path d="M337.276 24.182C336.198 24.182 335.162 23.734 334.434 23.132L335.064 22.292C335.722 22.824 336.408 23.188 337.318 23.188C338.326 23.188 338.816 22.656 338.816 21.998C338.816 21.228 337.92 20.878 337.08 20.556C336.016 20.164 334.812 19.646 334.812 18.358C334.812 17.154 335.778 16.202 337.43 16.202C338.368 16.202 339.194 16.594 339.796 17.056L339.18 17.882C338.648 17.49 338.116 17.21 337.43 17.21C336.478 17.21 336.044 17.714 336.044 18.302C336.044 19.03 336.87 19.296 337.724 19.618C338.83 20.038 340.048 20.486 340.048 21.928C340.048 23.16 339.068 24.182 337.276 24.182ZM343.916 24.182C342.292 24.182 341.746 23.174 341.746 21.648V17.434H340.612V16.468L341.802 16.398L341.956 14.27H343.02V16.398H345.078V17.434H343.02V21.676C343.02 22.614 343.314 23.146 344.196 23.146C344.462 23.146 344.812 23.048 345.064 22.95L345.316 23.902C344.882 24.042 344.378 24.182 343.916 24.182ZM346.8 24V16.398H348.074V24H346.8ZM347.444 14.83C346.94 14.83 346.562 14.48 346.562 14.004C346.562 13.486 346.94 13.178 347.444 13.178C347.948 13.178 348.326 13.486 348.326 14.004C348.326 14.48 347.948 14.83 347.444 14.83ZM350.655 24V16.398H351.705L351.817 17.49H351.859C352.587 16.776 353.371 16.202 354.407 16.202C356.003 16.202 356.731 17.238 356.731 19.184V24H355.457V19.352C355.457 17.924 355.023 17.322 354.015 17.322C353.231 17.322 352.699 17.714 351.929 18.484V24H350.655ZM361.776 27.5C359.914 27.5 358.626 26.772 358.626 25.456C358.626 24.812 359.046 24.196 359.76 23.734V23.678C359.354 23.44 359.06 23.034 359.06 22.432C359.06 21.802 359.522 21.298 359.914 21.018V20.962C359.41 20.556 358.92 19.828 358.92 18.918C358.92 17.252 360.236 16.202 361.776 16.202C362.196 16.202 362.574 16.3 362.84 16.398H365.486V17.378H363.932C364.296 17.728 364.548 18.288 364.548 18.946C364.548 20.57 363.316 21.592 361.776 21.592C361.398 21.592 360.978 21.494 360.642 21.326C360.362 21.564 360.152 21.816 360.152 22.236C360.152 22.726 360.46 23.062 361.482 23.062H362.966C364.73 23.062 365.612 23.622 365.612 24.868C365.612 26.282 364.128 27.5 361.776 27.5ZM361.776 20.724C362.644 20.724 363.386 20.024 363.386 18.918C363.386 17.812 362.672 17.14 361.776 17.14C360.88 17.14 360.152 17.798 360.152 18.918C360.152 20.024 360.894 20.724 361.776 20.724ZM361.958 26.632C363.414 26.632 364.38 25.862 364.38 25.064C364.38 24.364 363.834 24.126 362.826 24.126H361.51C361.23 24.126 360.866 24.084 360.53 24C359.984 24.392 359.746 24.84 359.746 25.288C359.746 26.1 360.572 26.632 361.958 26.632Z" fill="#333333"/>
<path d="M656 38V39H657V38H656ZM655 0V38H657V0H655ZM656 37H326V39H656V37Z" fill="#E9E9E9" mask="url(#path-15-inside-5_10_221515)"/>
<mask id="path-18-inside-6_10_221515" fill="white">
<path d="M656 0H672V38H656V0Z"/>
</mask>
<path d="M656 0H672V38H656V0Z" fill="#F7F9FA"/>
<path fill-rule="evenodd" clip-rule="evenodd" d="M666.917 14.0415H661.083V15.7915H659.333V16.9582H668.667V15.7915H666.917V14.0415ZM665.75 15.7915V15.2082H662.25V15.7915H665.75ZM659.625 17.8332H660.792V22.7915H667.208V17.8332H668.375V23.9582H659.625V17.8332ZM665.75 18.4165V21.3332H664.583V18.4165H665.75ZM663.417 21.3332V18.4165H662.25V21.3332H663.417Z" fill="#CCCCCC"/>
<path d="M672 38V39H673V38H672ZM671 0V38H673V0H671ZM672 37H656V39H672V37Z" fill="#E9E9E9" mask="url(#path-18-inside-6_10_221515)"/>
</svg>
