<svg width="96" height="22" viewBox="0 0 96 22" fill="none" xmlns="http://www.w3.org/2000/svg">
<g clip-path="url(#clip0_127_4711)">
<path d="M29.7744 6.29008H39.7759C39.8359 6.29008 39.8959 6.34955 39.8959 6.40903V7.34079C39.8959 7.40026 39.9559 7.45974 40.0159 7.45974H41.8762C41.9362 7.45974 41.9962 7.40026 41.9962 7.34079V4.3076C41.9962 4.24813 41.9362 4.18866 41.8762 4.18866H36.1353C36.0753 4.18866 36.0153 4.12918 36.0153 4.06971V3.05865C36.0153 2.99917 35.9553 2.9397 35.8953 2.9397H33.4749C33.4149 2.9397 33.3549 2.99917 33.3549 3.05865V4.06971C33.3549 4.12918 33.2949 4.18866 33.2349 4.18866H27.6541C27.5941 4.18866 27.5341 4.24813 27.5341 4.3076V7.32096C27.5341 7.38044 27.5941 7.43991 27.6541 7.43991H29.5143C29.5744 7.43991 29.6344 7.38044 29.6344 7.32096V6.3892C29.6344 6.32973 29.6944 6.29008 29.7744 6.29008Z" fill="#16285F"/>
<path d="M62.559 17.8675H64.0992C64.1392 17.8675 64.1792 17.8279 64.1992 17.7882L64.6193 9.87818C64.6193 9.8187 64.5793 9.77905 64.5193 9.77905H62.9791C62.9391 9.77905 62.899 9.8187 62.879 9.85835L62.459 17.7684C62.479 17.8279 62.519 17.8675 62.559 17.8675Z" fill="#16285F"/>
<path d="M67.1198 9.87818L67.5398 17.7882C67.5398 17.8279 67.5798 17.8675 67.6398 17.8675H69.2001C69.2601 17.8675 69.3001 17.8279 69.3001 17.7684L68.88 9.85835C68.88 9.8187 68.84 9.77905 68.78 9.77905H67.2198C67.1598 9.77905 67.1198 9.8187 67.1198 9.87818Z" fill="#16285F"/>
<path d="M55.3783 5.64251V5.49052C55.3783 5.43105 55.4183 5.3914 55.4783 5.3914H56.7985C56.8585 5.3914 56.8985 5.43105 56.8985 5.49052V7.53908C56.8985 8.21312 57.4586 8.76821 58.1387 8.76821H59.9256C59.9856 8.76821 60.0256 8.72856 60.0256 8.66909V6.76591C60.0256 6.70644 59.9856 6.66679 59.9256 6.66679H59.3389C59.1589 6.66679 58.9988 6.50819 58.9988 6.32977V3.41553C58.9988 3.35606 58.9588 3.31641 58.8988 3.31641H53.358C53.298 3.31641 53.258 3.35606 53.258 3.41553V5.4773C53.258 6.92451 52.9579 8.23294 52.8579 8.62944C52.8379 8.68891 52.8979 8.74839 52.9579 8.74839H54.9982C55.0382 8.74839 55.0783 8.70874 55.0983 8.66909C55.1383 8.33207 55.3783 7.14919 55.3783 5.64251Z" fill="#16285F"/>
<path d="M49.6172 9.11183L49.3172 6.93111C49.3172 6.89146 49.2772 6.85181 49.2172 6.85181H47.717C47.6569 6.85181 47.6169 6.91128 47.6169 6.95093L47.917 9.13165C47.917 9.1713 47.957 9.21095 48.017 9.21095H49.5172C49.5772 9.21095 49.6372 9.1713 49.6172 9.11183Z" fill="#16285F"/>
<path d="M49.2172 12.3765H47.717C47.6569 12.3765 47.6169 12.4161 47.6169 12.4756L47.897 14.6563C47.897 14.696 47.937 14.7356 47.997 14.7356H49.4972C49.5572 14.7356 49.5972 14.696 49.5972 14.6365L49.3172 12.4558C49.3172 12.4161 49.2772 12.3765 49.2172 12.3765Z" fill="#16285F"/>
<path d="M49.2375 2.9397H46.7771C46.7371 2.9397 46.6971 2.95952 46.6771 2.99917L46.317 4.12918C46.317 4.16883 46.277 4.18866 46.237 4.18866H45.3169C45.2569 4.18866 45.2169 4.22831 45.2169 4.28778V9.66029C45.2169 9.71976 45.1769 9.75941 45.1169 9.75941H44.3767C44.3167 9.75941 44.2767 9.79906 44.2767 9.85853V11.7617C44.2767 11.8212 44.3167 11.8608 44.3767 11.8608H45.1169C45.1769 11.8608 45.2169 11.9005 45.2169 11.96V13.5063C45.2169 15.013 44.4968 17.2135 44.3167 17.7488C44.2967 17.8083 44.3367 17.8677 44.3968 17.8677H46.317C46.357 17.8677 46.397 17.8479 46.397 17.8083C46.5371 17.4118 47.2172 15.1914 47.2172 13.5063V11.96C47.2172 11.9005 47.2572 11.8608 47.3172 11.8608H49.8976C49.9576 11.8608 49.9976 11.9005 49.9976 11.96V15.3302C49.9976 15.5879 49.7775 15.806 49.5175 15.806H49.0374L49.2775 17.8083C49.2775 17.8479 49.3175 17.8876 49.3775 17.8876H50.7777C51.4578 17.8876 52.0179 17.3325 52.0179 16.6584V11.8807V9.77923V4.28778C52.0179 4.22831 51.9779 4.18866 51.9179 4.18866H49.1174C49.0574 4.18866 49.0174 4.12918 49.0174 4.06971L49.3375 3.05865C49.3375 2.99917 49.2975 2.9397 49.2375 2.9397ZM50.0376 6.36938V9.66029C50.0376 9.71976 49.9976 9.75941 49.9376 9.75941H47.3572C47.2972 9.75941 47.2572 9.71976 47.2572 9.66029V6.36938C47.2572 6.3099 47.2972 6.27025 47.3572 6.27025H49.9376C49.9776 6.29008 50.0376 6.32973 50.0376 6.36938Z" fill="#16285F"/>
<path d="M83.3022 3.31641H81.4019C81.3419 3.31641 81.3019 3.35606 81.3019 3.41553V5.4773C81.3019 5.53678 81.2619 5.57643 81.2019 5.57643H79.7017C79.6417 5.57643 79.6017 5.61608 79.6017 5.67555V7.5589C79.6017 7.61837 79.6417 7.65802 79.7017 7.65802H81.2019C81.2619 7.65802 81.3019 7.69767 81.3019 7.75715V11.0877C81.3019 11.1472 81.2619 11.1868 81.2219 11.1868L79.6817 11.4644C79.6217 11.4644 79.6017 11.5238 79.6017 11.5635V13.4865C79.6017 13.546 79.6617 13.6054 79.7217 13.5856L81.2019 13.3279C81.2619 13.3081 81.3219 13.3675 81.3219 13.427V15.2905C81.3219 15.5681 81.1019 15.7862 80.8219 15.7862H79.8017L80.0418 17.7885C80.0418 17.8479 80.1018 17.8876 80.1418 17.8876H82.1821C82.8822 17.8876 83.4423 17.3325 83.4423 16.6386V13.0504C83.4423 12.9909 83.4823 12.9512 83.5223 12.9512L85.0025 12.7133C85.0625 12.7133 85.0825 12.6539 85.0825 12.6142V10.711C85.0825 10.6516 85.0225 10.5921 84.9625 10.6119L83.5423 10.8498C83.4823 10.8696 83.4222 10.8102 83.4222 10.7507V7.81662C83.4222 7.75715 83.4623 7.7175 83.5223 7.7175H84.9625C85.0225 7.7175 85.0625 7.67785 85.0625 7.61837V5.73502C85.0625 5.67555 85.0225 5.6359 84.9625 5.6359H83.5223C83.4623 5.6359 83.4222 5.59625 83.4222 5.53678V3.41553C83.4022 3.37588 83.3422 3.31641 83.3022 3.31641Z" fill="#16285F"/>
<path d="M66.9796 5.41779C67.8198 5.41779 68.6199 5.29884 68.8599 5.25919C68.8999 5.25919 68.9399 5.21954 68.9399 5.17989V3.23706C68.9399 3.17759 68.8999 3.13794 68.8399 3.13794C68.5399 3.17759 67.5997 3.29654 66.8796 3.29654H62.919C62.859 3.29654 62.819 3.33619 62.819 3.39566V5.31866C62.819 5.37814 62.859 5.41779 62.919 5.41779H64.7993C64.8593 5.41779 64.8993 5.45743 64.8993 5.51691V6.5478C64.8993 6.60727 64.8593 6.64692 64.7993 6.64692H62.559C62.499 6.64692 62.459 6.68657 62.459 6.74604V8.66904C62.459 8.72852 62.499 8.76817 62.559 8.76817H64.7593C64.8193 8.76817 64.8593 8.80782 64.8593 8.86729V17.8479C64.8593 17.9074 64.8993 17.947 64.9594 17.947H66.7996C66.8596 17.947 66.8996 17.9074 66.8996 17.8479V8.82764C66.8996 8.76817 66.9396 8.72852 66.9997 8.72852H69.24C69.3 8.72852 69.34 8.68887 69.34 8.62939V6.70639C69.34 6.64692 69.3 6.60727 69.24 6.60727H66.9997C66.9396 6.60727 66.8996 6.56762 66.8996 6.50815V5.45743C66.8796 5.45743 66.9196 5.41779 66.9796 5.41779Z" fill="#16285F"/>
<path d="M76.6413 3.31641H74.701C74.641 3.31641 74.601 3.35606 74.601 3.41553V12.0988C74.601 12.1582 74.561 12.1979 74.501 12.1979H69.9403C69.8803 12.1979 69.8403 12.2375 69.8403 12.297V14.22C69.8403 14.2795 69.8803 14.3191 69.9403 14.3191H74.501C74.561 14.3191 74.601 14.3588 74.601 14.4183V17.8083C74.601 17.8678 74.641 17.9074 74.701 17.9074H76.6413C76.7013 17.9074 76.7413 17.8678 76.7413 17.8083V14.3984C76.7413 14.339 76.7813 14.2993 76.8414 14.2993H77.9215C77.9815 14.2993 78.0215 14.2597 78.0215 14.2002V12.297C78.0215 12.2375 77.9815 12.1979 77.9215 12.1979H76.8414C76.7813 12.1979 76.7413 12.1582 76.7413 12.0988V3.41553C76.7213 3.35606 76.6813 3.31641 76.6413 3.31641Z" fill="#16285F"/>
<path d="M71.4806 11.3456H73.5209C73.5809 11.3456 73.621 11.2861 73.601 11.2266L72.4608 7.5987C72.4408 7.53922 72.4808 7.47975 72.5408 7.47975H73.901C73.961 7.47975 74.001 7.42027 73.981 7.3608L72.7408 3.41568C72.7208 3.37603 72.7008 3.3562 72.6608 3.3562H70.5805C70.5205 3.3562 70.4805 3.41568 70.5005 3.47515L71.6607 7.10308C71.6807 7.16255 71.6407 7.22203 71.5807 7.22203H70.2005C70.1404 7.22203 70.1004 7.2815 70.1204 7.34097L71.4006 11.2861C71.4006 11.3257 71.4406 11.3456 71.4806 11.3456Z" fill="#16285F"/>
<path d="M42.2362 15.6674C40.676 15.4096 38.9557 15.0131 37.7356 14.577C37.6556 14.5572 37.6356 14.4382 37.6956 14.3788C38.5557 13.447 39.3558 12.2972 39.9359 10.9094C39.9559 10.8698 39.9959 10.8301 40.0559 10.8301H42.2962C42.3562 10.8301 42.4163 10.7707 42.4163 10.7112V8.86748C42.4163 8.808 42.3562 8.74853 42.2962 8.74853H34.7951C34.7151 8.74853 34.6551 8.6494 34.6751 8.57011C34.8751 8.13396 35.0352 7.71764 35.1552 7.34097C35.1752 7.26167 35.1152 7.18237 35.0352 7.18237H32.7548C32.6948 7.18237 32.6548 7.22202 32.6348 7.26167C32.5148 7.59869 32.2748 8.11414 31.9947 8.66923C31.9747 8.70888 31.9347 8.74853 31.8747 8.74853H27.234C27.174 8.74853 27.114 8.808 27.114 8.86748V10.7112C27.114 10.7707 27.174 10.8301 27.234 10.8301H30.6745C30.7745 10.8301 30.8346 10.9292 30.7745 11.0085C30.3545 11.6826 29.9544 12.317 29.6144 12.6937C29.5744 12.7531 29.5744 12.8324 29.6344 12.8721C30.6345 13.6452 31.5347 14.2003 32.4548 14.7356C32.5348 14.7951 32.5348 14.914 32.4348 14.9537C30.9746 15.5088 29.0543 15.8061 27.294 15.826C27.214 15.826 27.174 15.8854 27.174 15.9647L27.3941 17.8084C27.3941 17.8679 27.4541 17.9274 27.5141 17.9076C30.6945 17.8679 33.575 17.3723 35.5352 16.2225C35.5753 16.2026 35.5953 16.2026 35.6353 16.2225C37.2955 16.837 39.2958 17.4119 41.9762 17.8481C42.0362 17.8679 42.1162 17.8084 42.1162 17.749L42.3362 15.7665C42.3562 15.7268 42.3162 15.6674 42.2362 15.6674ZM34.8952 13.4272C34.115 13.0703 33.3949 12.6937 32.7548 12.2773C32.6948 12.2377 32.6748 12.1584 32.7348 12.0989C32.9749 11.7817 33.2549 11.3456 33.555 10.85C33.575 10.8103 33.615 10.7905 33.655 10.7905H36.9955C37.0955 10.7905 37.1555 10.8896 37.0955 10.9689C36.5154 11.9403 35.8353 12.7531 35.0352 13.4073C34.9752 13.447 34.9352 13.447 34.8952 13.4272Z" fill="#16285F"/>
<path d="M60.0388 15.8656C59.3187 15.6872 58.6186 15.4295 58.0185 15.1519C57.9585 15.1321 57.9385 15.0528 57.9985 15.0132C58.8386 14.0814 59.4587 13.0307 59.7188 11.9205V11.9007V9.91822C59.7188 9.85874 59.6788 9.81909 59.6187 9.81909H53.1378C53.0778 9.81909 53.0378 9.85874 53.0378 9.91822V11.8214C53.0378 11.8809 53.0778 11.9205 53.1378 11.9205H57.3784C57.4384 11.9205 57.4984 11.98 57.4784 12.0395C57.2584 12.6739 56.8183 13.3082 56.2183 13.9228C56.1782 13.9625 56.1182 13.9625 56.0782 13.9228C55.7382 13.5858 55.4381 13.2488 55.1981 12.8721C55.1781 12.8523 55.1581 12.8325 55.1181 12.8325H53.1578C53.0978 12.8325 53.0378 12.8919 53.0778 12.9712C53.3978 13.7444 53.9179 14.4779 54.478 15.1123C54.518 15.1519 54.498 15.2312 54.458 15.2511C53.9379 15.5088 53.3378 15.6872 52.7577 15.8062C52.7177 15.8062 52.6777 15.8656 52.6777 15.9053C52.7177 16.2423 52.8578 17.4318 52.8978 17.7886C52.8978 17.8481 52.9578 17.8878 53.0178 17.8679C54.198 17.6499 55.2981 17.2335 56.2583 16.619C56.2783 16.5992 56.3183 16.5992 56.3583 16.619C57.3784 17.2137 58.5586 17.6499 59.8388 17.8679C59.8988 17.8679 59.9388 17.8283 59.9588 17.7886L60.1188 16.0044C60.1188 15.9251 60.0788 15.8855 60.0388 15.8656Z" fill="#16285F"/>
<path d="M94.9239 15.7862C94.0037 15.5879 92.9836 15.3897 92.2435 15.0328C92.1835 14.9932 92.1635 14.9139 92.2035 14.8742C93.1836 13.7046 93.9637 12.3961 94.3438 11.0084V10.9886V9.00611C94.3438 8.94663 94.3038 8.90698 94.2438 8.90698H91.3834C91.3234 8.90698 91.2833 8.86733 91.2833 8.80786V7.10293C91.2833 7.04346 91.3234 7.00381 91.3834 7.00381H94.6038C94.6638 7.00381 94.7038 6.96416 94.7038 6.90468V5.02133C94.7038 4.96186 94.6638 4.92221 94.6038 4.92221H91.3834C91.3234 4.92221 91.2833 4.88256 91.2833 4.82309V3.41553C91.2833 3.35606 91.2433 3.31641 91.1833 3.31641H89.2831C89.223 3.31641 89.183 3.35606 89.183 3.41553V4.76361C89.183 4.82309 89.143 4.86274 89.083 4.86274H85.8626C85.8025 4.86274 85.7625 4.90239 85.7625 4.96186V6.84521C85.7625 6.90468 85.8025 6.94433 85.8626 6.94433H89.123C89.183 6.94433 89.223 6.98398 89.223 7.04346V8.74839C89.223 8.80786 89.183 8.84751 89.123 8.84751H86.1626C86.1026 8.84751 86.0626 8.88716 86.0626 8.94663V10.83C86.0626 10.8895 86.1026 10.9291 86.1626 10.9291H91.8834C91.9634 10.9291 92.0035 11.0084 91.9835 11.0679C91.6234 12.0393 91.0233 12.9711 90.2032 13.7442C90.1632 13.7839 90.1032 13.7839 90.0632 13.7442C89.4231 13.2486 88.843 12.6737 88.4429 12.0195C88.4229 11.9798 88.3829 11.9798 88.3629 11.9798H86.2426C86.1626 11.9798 86.1226 12.0591 86.1426 12.1186C86.5827 13.2883 87.3428 14.2002 88.1629 14.9535C88.2229 15.013 88.2029 15.0923 88.1429 15.132C87.4828 15.4491 86.4226 15.7663 85.5225 15.806C85.4625 15.806 85.4225 15.8655 85.4225 15.9249L85.6425 17.6893C85.6425 17.7488 85.7025 17.7885 85.7625 17.7885C87.4828 17.6893 89.063 17.273 90.2632 16.5593C90.2832 16.5395 90.3232 16.5395 90.3632 16.5593C91.6234 17.1343 92.9436 17.5109 94.7038 17.7488C94.7639 17.7488 94.8239 17.7092 94.8239 17.6497L95.0439 15.8456C95.0239 15.8456 94.9839 15.7862 94.9239 15.7862Z" fill="#16285F"/>
</g>
<g clip-path="url(#clip1_127_4711)">
<path fill-rule="evenodd" clip-rule="evenodd" d="M21.2765 12.5858C21.3954 11.9102 21.4512 11.2148 21.4368 10.5014C21.3233 4.76521 16.6158 0.0847473 10.8778 0.00187533C4.88404 -0.0845997 0 4.74719 0 10.7194C0 11.3553 0.0558485 11.9805 0.162141 12.5858C0.185561 12.7155 0.342297 12.7678 0.439581 12.6795L6.25683 7.48557C8.79883 5.2156 12.6398 5.2156 15.1818 7.48557L20.999 12.6795C21.0963 12.7678 21.253 12.7155 21.2765 12.5858ZM19.3614 16.6069L12.5047 10.4852C11.4886 9.57719 9.95184 9.57719 8.93575 10.4852L2.0772 16.6069C1.9637 16.7078 1.94389 16.8789 2.03216 17.0014C3.98145 19.6894 7.145 21.4387 10.7193 21.4387C14.2936 21.4387 17.4571 19.6894 19.4064 17.0014C19.4947 16.8789 19.4731 16.7078 19.3614 16.6069Z" fill="#0077FF"/>
</g>
<defs>
<clipPath id="clip0_127_4711">
<rect width="68.41" height="15.2651" fill="white" transform="translate(26.834 2.78125)"/>
</clipPath>
<clipPath id="clip1_127_4711">
<rect width="21.4386" height="21.4386" fill="white"/>
</clipPath>
</defs>
</svg>
