<svg width="83" height="25" viewBox="0 0 83 25" fill="none" xmlns="http://www.w3.org/2000/svg">
<path d="M2.31751 22H2.73751V19.949L4.27051 16.897H3.83651L3.08751 18.458C2.92651 18.829 2.73751 19.186 2.54151 19.564H2.51351C2.32451 19.186 2.16351 18.829 1.98151 18.458L1.23251 16.897H0.784508L2.31751 19.949V22ZM5.02618 22H5.44618V16.897H5.02618V22ZM6.56941 22H10.0064V21.636H7.09441L9.97141 17.142V16.897H6.82841V17.254H9.45341L6.56941 21.755V22ZM11.1102 22H11.5302V19.473H14.1832V22H14.5962V16.897H14.1832V19.109H11.5302V16.897H11.1102V22ZM16.0799 22H18.9779V21.636H16.4999V19.473H18.5229V19.116H16.4999V17.254H18.9009V16.897H16.0799V22ZM20.0926 22H20.4916V18.941C20.4916 18.43 20.4566 17.954 20.4356 17.464H20.4706L21.0446 18.486L23.1236 22H23.5576V16.897H23.1586V19.921C23.1586 20.418 23.1866 20.929 23.2146 21.433H23.1796L22.6126 20.404L20.5266 16.897H20.0926V22ZM27.0206 19.949L27.3356 19.025C27.5386 18.43 27.7136 17.891 27.8886 17.275H27.9166C28.0986 17.891 28.2666 18.43 28.4766 19.025L28.7846 19.949H27.0206ZM29.4636 22H29.9116L28.1266 16.897H27.6926L25.9076 22H26.3276L26.9086 20.285H28.8966L29.4636 22ZM30.702 22H31.101V18.941C31.101 18.43 31.066 17.954 31.045 17.464H31.08L31.654 18.486L33.733 22H34.167V16.897H33.768V19.921C33.768 20.418 33.796 20.929 33.824 21.433H33.789L33.222 20.404L31.136 16.897H30.702V22ZM36.0782 19.949L36.3932 19.025C36.5962 18.43 36.7712 17.891 36.9462 17.275H36.9742C37.1562 17.891 37.3242 18.43 37.5342 19.025L37.8422 19.949H36.0782ZM38.5212 22H38.9692L37.1842 16.897H36.7502L34.9652 22H35.3852L35.9662 20.285H37.9542L38.5212 22ZM39.7596 22H42.5036V21.636H40.1796V16.897H39.7596V22ZM43.6681 22H44.0881V19.949L45.6211 16.897H45.1871L44.4381 18.458C44.2771 18.829 44.0881 19.186 43.8921 19.564H43.8641C43.6751 19.186 43.5141 18.829 43.3321 18.458L42.5831 16.897H42.1351L43.6681 19.949V22ZM47.6184 22.091C48.6194 22.091 49.2704 21.489 49.2704 20.705C49.2704 19.928 48.7804 19.606 48.1994 19.347L47.4364 19.011C47.0654 18.85 46.5684 18.633 46.5684 18.052C46.5684 17.527 47.0024 17.184 47.6534 17.184C48.1574 17.184 48.5564 17.387 48.8574 17.695L49.0954 17.422C48.7734 17.072 48.2694 16.806 47.6534 16.806C46.7854 16.806 46.1414 17.331 46.1414 18.087C46.1414 18.836 46.7224 19.158 47.1774 19.361L47.9404 19.697C48.4444 19.921 48.8434 20.117 48.8434 20.733C48.8434 21.314 48.3744 21.713 47.6184 21.713C47.0374 21.713 46.5124 21.454 46.1414 21.034L45.8824 21.328C46.2884 21.783 46.8764 22.091 47.6184 22.091ZM50.3279 22H50.7479V16.897H50.3279V22ZM53.5862 22.091C54.5872 22.091 55.2382 21.489 55.2382 20.705C55.2382 19.928 54.7482 19.606 54.1672 19.347L53.4042 19.011C53.0332 18.85 52.5362 18.633 52.5362 18.052C52.5362 17.527 52.9702 17.184 53.6212 17.184C54.1252 17.184 54.5242 17.387 54.8252 17.695L55.0632 17.422C54.7412 17.072 54.2372 16.806 53.6212 16.806C52.7532 16.806 52.1092 17.331 52.1092 18.087C52.1092 18.836 52.6902 19.158 53.1452 19.361L53.9082 19.697C54.4122 19.921 54.8112 20.117 54.8112 20.733C54.8112 21.314 54.3422 21.713 53.5862 21.713C53.0052 21.713 52.4802 21.454 52.1092 21.034L51.8502 21.328C52.2562 21.783 52.8442 22.091 53.5862 22.091ZM58.2675 17.247H59.2405C60.1225 17.247 60.6125 17.52 60.6125 18.262C60.6125 18.997 60.1225 19.347 59.2405 19.347H58.2675V17.247ZM61.1445 22L59.7655 19.662C60.5425 19.543 61.0395 19.074 61.0395 18.262C61.0395 17.268 60.3535 16.897 59.3385 16.897H57.8475V22H58.2675V19.697H59.3105L60.6685 22H61.1445ZM62.1063 22H65.0043V21.636H62.5263V19.473H64.5493V19.116H62.5263V17.254H64.9273V16.897H62.1063V22ZM66.119 22H66.539V19.844H67.47C68.604 19.844 69.304 19.354 69.304 18.332C69.304 17.275 68.597 16.897 67.442 16.897H66.119V22ZM66.539 19.494V17.247H67.358C68.373 17.247 68.877 17.506 68.877 18.332C68.877 19.151 68.394 19.494 67.386 19.494H66.539ZM72.1971 22.091C73.4431 22.091 74.3181 21.055 74.3181 19.431C74.3181 17.814 73.4431 16.806 72.1971 16.806C70.9651 16.806 70.0831 17.814 70.0831 19.431C70.0831 21.055 70.9651 22.091 72.1971 22.091ZM72.1971 21.713C71.1891 21.713 70.5241 20.817 70.5241 19.431C70.5241 18.045 71.1891 17.184 72.1971 17.184C73.2121 17.184 73.8841 18.045 73.8841 19.431C73.8841 20.817 73.2121 21.713 72.1971 21.713ZM75.9042 17.247H76.8772C77.7592 17.247 78.2492 17.52 78.2492 18.262C78.2492 18.997 77.7592 19.347 76.8772 19.347H75.9042V17.247ZM78.7812 22L77.4022 19.662C78.1792 19.543 78.6762 19.074 78.6762 18.262C78.6762 17.268 77.9902 16.897 76.9752 16.897H75.4842V22H75.9042V19.697H76.9472L78.3052 22H78.7812ZM80.7391 22H81.1661V17.254H82.7761V16.897H79.1361V17.254H80.7391V22Z" fill="#8C8C8C"/>
<path d="M25.94 5.42H30.14V6.05H25.94V5.42ZM25.94 3.91H30.14V4.53H25.94V3.91ZM26.62 7.61C26.77 7.41 26.91 7.21 27.04 7H31.35V2.95H24.77V7H25.65C25.04 7.82 24.16 8.54 23.25 9.02C23.5 9.2 23.95 9.64 24.15 9.86C24.67 9.54 25.21 9.12 25.7 8.65H26.57C25.94 9.54 25.03 10.31 24.05 10.8C24.3 10.99 24.74 11.41 24.93 11.65C26.05 10.96 27.17 9.89 27.91 8.65H28.77C28.32 9.7 27.61 10.61 26.77 11.21C27.04 11.37 27.51 11.74 27.71 11.94C28.63 11.18 29.48 9.99 30 8.65H30.86C30.72 10 30.52 10.61 30.33 10.79C30.23 10.9 30.14 10.91 29.96 10.91C29.78 10.91 29.39 10.91 28.97 10.87C29.15 11.15 29.27 11.58 29.28 11.88C29.78 11.89 30.25 11.89 30.53 11.86C30.84 11.83 31.1 11.74 31.34 11.48C31.67 11.15 31.9 10.24 32.11 8.08C32.13 7.93 32.15 7.61 32.15 7.61H26.62ZM36.49 5.3V9.54H37.57V6.35H40.87V9.51H42.01V5.3H39.59V4.36H42.37V3.29H39.59V2.54H38.44V5.3H36.49ZM35.46 2.54C34.96 3.96 34.08 5.38 33.18 6.28C33.39 6.57 33.71 7.22 33.82 7.52C34.03 7.29 34.25 7.03 34.46 6.77V11.85H35.59V5.02C35.98 4.33 36.31 3.6 36.58 2.88L35.46 2.54ZM39.81 6.84H38.69V8.2C38.69 9.05 38.42 10.19 35.8 10.92C36.05 11.15 36.38 11.58 36.52 11.85C39.28 10.9 39.81 9.45 39.81 8.22V6.84ZM39.5 10.38C40.34 10.78 41.48 11.43 42.02 11.87L42.68 10.96C42.11 10.53 40.95 9.93 40.12 9.57L39.5 10.38ZM46.95 3.9H48.68V9.53H49.61V3.06H46.06V9.59H46.95V3.9ZM46.05 3.59C45.67 3.3 44.91 2.87 44.39 2.61L43.69 3.48C44.23 3.78 44.98 4.25 45.33 4.55L46.05 3.59ZM45.64 6.22C45.26 5.94 44.5 5.53 43.98 5.28L43.31 6.14C43.84 6.43 44.58 6.88 44.94 7.17L45.64 6.22ZM44.76 7.94C44.37 9.11 43.85 10.37 43.48 11.15L44.56 11.76C44.96 10.78 45.39 9.63 45.72 8.56L44.76 7.94ZM47.91 10.15C48.17 9.54 48.23 8.89 48.23 8.28V4.45H47.37V8.26C47.37 9.37 47.21 10.44 45.64 11.15C45.79 11.29 46.06 11.67 46.15 11.87C47.05 11.46 47.58 10.88 47.87 10.24C48.31 10.72 48.82 11.38 49.06 11.79L49.82 11.32C49.55 10.89 49 10.25 48.54 9.77L47.91 10.15ZM50.98 3.45H50.08V9.57H50.98V3.45ZM51.45 2.69V10.67C51.45 10.82 51.39 10.87 51.24 10.87C51.09 10.87 50.62 10.88 50.14 10.86C50.26 11.14 50.4 11.57 50.44 11.83C51.16 11.84 51.65 11.8 51.96 11.64C52.28 11.48 52.38 11.21 52.38 10.67V2.69H51.45ZM56.34 4.16C56.01 3.73 55.29 3.1 54.76 2.67L53.99 3.39C54.52 3.86 55.22 4.53 55.52 4.98L56.34 4.16ZM58.71 7.81H59.46V6.72H56.81V7.81H57.62V9.96C57.4 10.02 57.19 10.07 57 10.12L57.01 10.11C56.9 9.87 56.76 9.4 56.7 9.09L55.81 9.65V5.6H53.51V6.74H54.68V9.77C54.68 10.2 54.37 10.53 54.16 10.67C54.34 10.91 54.62 11.42 54.71 11.71C54.88 11.51 55.19 11.31 56.68 10.33L56.95 11.3C57.8 11.06 58.87 10.75 59.87 10.44L59.71 9.41C59.37 9.5 59.04 9.59 58.71 9.68V7.81ZM62.63 5.58V4.45H61.88L62.62 3.97C62.44 3.6 62.02 3.04 61.65 2.64L60.85 3.13C61.18 3.53 61.55 4.06 61.73 4.45H60.8C60.78 3.85 60.78 3.23 60.78 2.61H59.57C59.58 3.25 59.59 3.86 59.61 4.45H56.51V5.58H59.65C59.82 9.46 60.27 11.79 61.53 11.8C61.94 11.81 62.5 11.42 62.75 9.5C62.56 9.39 62.02 9.06 61.82 8.81C61.78 9.71 61.7 10.21 61.57 10.2C61.23 10.19 60.95 8.22 60.83 5.58H62.63ZM66.77 6.75C66.48 6.83 66.17 6.9 65.87 6.97V5.59H66.82V4.43H65.87V2.53H64.65V4.43H63.39V5.59H64.65V7.28C64.14 7.4 63.66 7.51 63.26 7.59L63.52 8.8C63.87 8.71 64.25 8.62 64.65 8.52V10.52C64.65 10.69 64.6 10.73 64.43 10.74C64.28 10.74 63.78 10.74 63.31 10.72C63.47 11.05 63.63 11.54 63.68 11.85C64.47 11.86 65.01 11.83 65.38 11.64C65.74 11.45 65.87 11.15 65.87 10.53V8.19C66.23 8.1 66.57 8 66.92 7.9L66.77 6.75ZM68.28 7.42H68.35C68.68 8.36 69.09 9.22 69.62 9.94C69.25 10.33 68.8 10.65 68.28 10.91V7.42ZM71.04 7.42C70.88 7.99 70.66 8.53 70.37 9C70.01 8.52 69.7 7.98 69.48 7.42H71.04ZM71.63 6.32L71.43 6.36H68.28V3.98H70.91C70.88 4.56 70.82 4.85 70.73 4.95C70.63 5.04 70.53 5.05 70.34 5.05C70.12 5.05 69.58 5.04 68.99 4.99C69.16 5.26 69.28 5.67 69.3 5.96C69.92 5.99 70.51 5.99 70.86 5.96C71.22 5.94 71.53 5.86 71.76 5.61C72.01 5.35 72.1 4.72 72.15 3.33C72.16 3.18 72.17 2.88 72.17 2.88H67.1V11.83H68.28V11.18C68.51 11.39 68.73 11.67 68.87 11.9C69.45 11.6 69.95 11.25 70.39 10.82C70.83 11.24 71.34 11.59 71.9 11.86C72.09 11.54 72.46 11.08 72.72 10.84C72.15 10.6 71.62 10.28 71.18 9.87C71.79 8.95 72.2 7.84 72.4 6.55L71.63 6.32ZM80.17 8.97V10.32H75.97V8.97H80.17ZM74.75 11.91H75.97V11.42H80.17V11.88H81.45V7.87H74.75V11.91ZM78.88 6.06V4.91H81.8V3.82H78.88V2.52H77.62V3.82H76.03C76.18 3.5 76.31 3.18 76.42 2.85L75.23 2.55C74.88 3.63 74.25 4.73 73.53 5.41C73.83 5.54 74.37 5.85 74.62 6.04C74.9 5.73 75.18 5.35 75.44 4.91H77.62V6.06H73.6V7.16H82.41V6.06H78.88Z" fill="#0077FF"/>
</svg>
