<svg width="149" height="40" viewBox="0 0 149 40" fill="none" xmlns="http://www.w3.org/2000/svg">
<path fill-rule="evenodd" clip-rule="evenodd" d="M23.4132 16.2638L37.3796 30.1718C33.8831 36.055 27.446 40 20.0837 40C12.7213 40 6.28425 36.055 2.7878 30.1718L16.7542 16.2638C18.593 14.4326 21.5743 14.4326 23.4132 16.2638ZM20.0837 0C31.1756 0 40.1674 8.9543 40.1674 20C40.1674 21.2833 40.046 22.5383 39.8141 23.7543L27.8525 11.843C23.5619 7.57023 16.6055 7.57023 12.3149 11.843L0.353282 23.7543C0.121363 22.5383 0 21.2833 0 20C0 8.9543 8.99177 0 20.0837 0Z" fill="white"/>
<path d="M58.896 16.096H56.52V11.2H64.752C64.656 10.848 64.56 10.512 64.464 10.192C64.368 9.856 64.28 9.552 64.2 9.28L66.864 8.872L67.632 11.2H75.216V16.096H72.864V13.456H58.896V16.096ZM72.168 19.888C71.752 20.976 71.288 21.96 70.776 22.84C70.28 23.704 69.688 24.496 69 25.216C70.104 25.696 71.224 26.2 72.36 26.728C73.496 27.256 74.64 27.8 75.792 28.36L74.616 30.808C73.432 30.2 72.168 29.576 70.824 28.936C69.496 28.296 68.144 27.664 66.768 27.04C65.552 27.84 64.064 28.544 62.304 29.152C60.544 29.76 58.4 30.336 55.872 30.88L55.152 28.336C57.168 28 58.904 27.632 60.36 27.232C61.816 26.816 63.072 26.352 64.128 25.84C63.024 25.36 61.976 24.912 60.984 24.496C59.992 24.064 59.072 23.688 58.224 23.368C58.576 22.856 58.928 22.304 59.28 21.712C59.632 21.12 59.984 20.512 60.336 19.888H55.488V17.608H61.512C61.832 16.936 62.128 16.288 62.4 15.664C62.688 15.04 62.944 14.448 63.168 13.888L65.64 14.728C65.464 15.176 65.264 15.64 65.04 16.12C64.816 16.6 64.592 17.096 64.368 17.608H76.152V19.888H72.168ZM66.648 24.184C67.288 23.624 67.824 22.992 68.256 22.288C68.704 21.584 69.096 20.784 69.432 19.888H63.264C62.8 20.816 62.352 21.616 61.92 22.288C62.624 22.56 63.368 22.856 64.152 23.176C64.952 23.48 65.784 23.816 66.648 24.184ZM99.177 30.784C98.169 30.272 97.241 29.752 96.393 29.224C95.545 28.712 94.769 28.152 94.065 27.544C92.817 28.632 91.193 29.68 89.193 30.688L88.233 28.936C88.057 29.368 87.753 29.664 87.321 29.824C86.905 30 86.353 30.128 85.665 30.208L84.393 30.352L83.697 28.12L85.401 27.952C85.801 27.92 86.073 27.84 86.217 27.712C86.377 27.568 86.457 27.304 86.457 26.92V20.704H82.881C82.865 22.048 82.809 23.184 82.713 24.112C82.633 25.024 82.505 25.832 82.329 26.536C82.169 27.224 81.961 27.856 81.705 28.432C81.465 29.024 81.169 29.656 80.817 30.328L78.609 29.512C78.961 28.84 79.265 28.224 79.521 27.664C79.793 27.088 80.017 26.48 80.193 25.84C80.369 25.2 80.505 24.472 80.601 23.656C80.713 22.84 80.785 21.856 80.817 20.704H79.041V18.616H80.841V10.84H82.977C83.121 10.392 83.249 9.944 83.361 9.496C83.489 9.032 83.577 8.656 83.625 8.368L85.761 8.944C85.681 9.2 85.593 9.496 85.497 9.832C85.401 10.168 85.297 10.504 85.185 10.84H88.449V27.64C88.449 27.944 88.425 28.216 88.377 28.456C89.225 28.04 89.977 27.624 90.633 27.208C91.305 26.792 91.913 26.368 92.457 25.936C91.881 25.248 91.377 24.504 90.945 23.704C90.513 22.904 90.153 22.016 89.865 21.04L91.545 20.344H89.121V18.304H98.553V20.512C98.265 21.52 97.889 22.472 97.425 23.368C96.977 24.248 96.401 25.096 95.697 25.912C96.865 26.808 98.385 27.648 100.257 28.432L99.177 30.784ZM92.625 13.216C92.625 13.728 92.585 14.2 92.505 14.632C92.425 15.048 92.289 15.456 92.097 15.856C91.921 16.24 91.681 16.624 91.377 17.008C91.089 17.376 90.729 17.768 90.297 18.184L88.689 16.696C89.073 16.36 89.385 16.048 89.625 15.76C89.881 15.456 90.081 15.144 90.225 14.824C90.369 14.504 90.473 14.16 90.537 13.792C90.601 13.408 90.633 12.96 90.633 12.448V9.928H97.449V14.08C97.449 14.448 97.497 14.688 97.593 14.8C97.705 14.912 97.921 14.968 98.241 14.968H99.777L99.633 17.152H97.377C97.025 17.152 96.721 17.128 96.465 17.08C96.209 17.016 95.993 16.912 95.817 16.768C95.657 16.624 95.537 16.424 95.457 16.168C95.377 15.912 95.337 15.584 95.337 15.184V11.92H92.625V13.216ZM86.457 18.616V12.904H82.905V18.616H86.457ZM84.441 13.696C84.777 14.208 85.081 14.712 85.353 15.208C85.625 15.688 85.889 16.224 86.145 16.816L84.777 18.04C84.201 16.808 83.609 15.648 83.001 14.56L84.441 13.696ZM91.929 20.344C92.169 21.16 92.457 21.904 92.793 22.576C93.145 23.232 93.569 23.84 94.065 24.4C94.625 23.76 95.089 23.104 95.457 22.432C95.825 21.76 96.121 21.064 96.345 20.344H91.929ZM84.657 25.744C84.385 25.12 84.113 24.52 83.841 23.944C83.569 23.352 83.297 22.776 83.025 22.216L84.417 21.328C84.737 21.856 85.033 22.368 85.305 22.864C85.577 23.36 85.833 23.912 86.073 24.52L84.657 25.744ZM122.202 19.624C122.186 19.72 122.162 19.952 122.13 20.32C122.114 20.688 122.082 21.128 122.034 21.64C121.986 22.136 121.938 22.672 121.89 23.248C121.842 23.808 121.794 24.336 121.746 24.832C121.698 25.328 121.658 25.76 121.626 26.128C121.594 26.48 121.57 26.696 121.554 26.776C121.474 27.352 121.346 27.816 121.17 28.168C121.01 28.536 120.778 28.824 120.474 29.032C120.17 29.256 119.778 29.416 119.298 29.512C118.834 29.608 118.266 29.68 117.594 29.728L115.962 29.848L115.218 27.688L116.682 27.592C117.162 27.544 117.554 27.496 117.858 27.448C118.178 27.4 118.426 27.32 118.602 27.208C118.794 27.096 118.93 26.936 119.01 26.728C119.106 26.52 119.186 26.24 119.25 25.888C119.282 25.68 119.322 25.368 119.37 24.952C119.434 24.536 119.49 24.112 119.538 23.68C119.602 23.232 119.65 22.824 119.682 22.456C119.73 22.072 119.762 21.808 119.778 21.664H117.378C117.09 22.656 116.722 23.576 116.274 24.424C115.842 25.256 115.314 26.048 114.69 26.8C114.066 27.536 113.33 28.232 112.482 28.888C111.634 29.56 110.658 30.216 109.554 30.856L108.066 29.008C109.074 28.464 109.946 27.928 110.682 27.4C111.434 26.872 112.082 26.32 112.626 25.744C113.17 25.168 113.626 24.552 113.994 23.896C114.378 23.224 114.714 22.48 115.002 21.664H112.53C112.082 22.48 111.57 23.24 110.994 23.944C110.434 24.632 109.786 25.288 109.05 25.912C108.314 26.52 107.474 27.104 106.53 27.664C105.602 28.224 104.554 28.776 103.386 29.32L102.162 27.4C104.21 26.536 105.858 25.64 107.106 24.712C108.37 23.784 109.338 22.768 110.01 21.664H107.298C106.818 22.176 106.298 22.672 105.738 23.152C105.194 23.632 104.594 24.12 103.938 24.616L102.546 22.816C103.57 22.16 104.474 21.44 105.258 20.656C106.058 19.856 106.746 19.008 107.322 18.112H105.69V9.52H120.69V18.112H108.714L109.698 18.568C109.57 18.744 109.45 18.92 109.338 19.096C109.242 19.272 109.13 19.448 109.002 19.624H122.202ZM108.042 11.464V12.952H118.338V11.464H108.042ZM118.338 16.12V14.776H108.042V16.12H118.338ZM146.907 10.648V12.76H139.995V14.92H145.419V24.904H143.115V17.104H135.507V24.904H133.179V14.92H137.619V8.488L139.995 8.584V10.648H146.907ZM132.747 9.136C132.475 10 132.187 10.832 131.883 11.632C131.595 12.416 131.283 13.192 130.947 13.96V30.184H128.619V18.328C128.347 18.792 128.059 19.248 127.755 19.696C127.451 20.128 127.139 20.576 126.819 21.04L125.307 18.88C125.755 18.256 126.219 17.552 126.699 16.768C127.179 15.984 127.643 15.152 128.091 14.272C128.539 13.376 128.963 12.44 129.363 11.464C129.763 10.488 130.107 9.504 130.395 8.512L132.747 9.136ZM140.403 21.616C140.403 22.624 140.283 23.544 140.043 24.376C139.803 25.208 139.379 25.984 138.771 26.704C138.179 27.408 137.363 28.072 136.323 28.696C135.283 29.336 133.963 29.952 132.363 30.544L131.259 28.336C132.763 27.792 133.963 27.28 134.859 26.8C135.771 26.32 136.467 25.816 136.947 25.288C137.427 24.744 137.739 24.144 137.883 23.488C138.043 22.832 138.123 22.064 138.123 21.184V18.088L140.403 18.184V21.616ZM140.859 24.304C141.819 24.848 142.827 25.464 143.883 26.152C144.939 26.824 145.947 27.536 146.907 28.288L145.779 30.568C145.363 30.2 144.907 29.816 144.411 29.416C143.915 29.032 143.403 28.648 142.875 28.264C142.347 27.896 141.819 27.544 141.291 27.208C140.763 26.856 140.251 26.544 139.755 26.272L140.859 24.304Z" fill="#F2F6FC"/>
</svg>
